<?xml version="1.0" encoding="UTF-8"?>
<svg id="Layer_1" xmlns="http://www.w3.org/2000/svg" version="1.1" viewBox="0 0 1296 1296">
  <!-- Generator: Adobe Illustrator 29.6.1, SVG Export Plug-In . SVG Version: 2.1.1 Build 9)  -->
  <defs>
    <style>
      .st0 {
        fill: #fad68a;
      }

      .st1 {
        fill: red;
        stroke: #231f20;
        stroke-miterlimit: 10;
      }

      .st1, .st2 {
        display: none;
      }

      .st3 {
        fill: #ea734d;
      }

      .st4 {
        fill: #2d2a3f;
      }

      .st5 {
        fill: #78c8aa;
      }
    </style>
  </defs>
  <g id="Logo">
    <g id="Colored_Sidewalk">
      <path class="st5" d="M443.21,670.94H140.75c4.41,127.01,55.2,242.18,136,329.16l213.93-213.92c-26.51-31.79-43.72-71.57-47.47-115.23Z"/>
      <path class="st0" d="M304.72,1027.93c86.84,80.14,201.49,130.49,327.9,134.88v-302.46c-43.06-3.69-82.32-20.53-113.89-46.42l-214.01,214Z"/>
      <path class="st3" d="M784.57,812.34c-31.9,26.83-71.96,44.24-115.93,48.01v302.46c127.33-4.43,242.76-55.43,329.81-136.59l-213.88-213.88Z"/>
    </g>
    <g id="Person_in_Wheelchair_New">
      <path class="st4" d="M882.37,783.41c4.8,23.05,24.55,37.18,39.06,37.18h104.98c22.47,0,40.85-18.38,40.85-40.85v-5.84c0-22.47-34.48-40.85-56.95-40.85h-11.49l60.17-251.51c1.21-14.81-4.05-29.42-14.41-40.06-10.37-10.64-24.86-16.26-39.67-15.45l-179.23,9.98,98.64-112.34c14.05-16,18.07-37.33,12.63-56.4-2.87-13.06-10.78-24.95-22.93-32.54-.37-.27-235.78-137.02-235.78-137.02-19.22-11.17-43.44-8.71-60.03,6.09l-114.99,102.57c-21.19,18.9-23.04,51.39-4.14,72.58,18.9,21.18,51.39,23.05,72.58,4.14l87.18-77.76,72.07,41.85-118.72,135.21c-.42.03-.79.11-1.25.12"/>
      <path id="Head" class="st4" d="M949.36,221.28c47.52,0,86.04-38.52,86.04-86.05s-38.52-86.05-86.04-86.05-86.05,38.53-86.05,86.05,38.52,86.05,86.05,86.05Z"/>
      <g id="Wheelchair">
        <path class="st4" d="M702.94,729.85c-15.71,10.57-34.63,16.75-55,16.75-54.47,0-98.63-44.16-98.63-98.63,0-20.36,6.17-39.28,16.75-55l-121.66-121.66c-41.1,47.32-66.04,109.05-66.04,176.65,0,148.89,120.7,269.58,269.58,269.58,67.6,0,129.34-24.94,176.65-66.04l-121.66-121.66Z"/>
        <path class="st4" d="M592.28,566.54c15.84-10.85,35.01-17.21,55.66-17.21,54.47,0,98.63,44.16,98.63,98.63,0,20.66-6.36,39.82-17.21,55.66l121.59,121.59c41.42-47.4,66.57-109.37,66.57-177.26,0-148.89-120.7-269.58-269.58-269.58-67.89,0-129.86,25.15-177.26,66.57l121.59,121.59Z"/>
      </g>
    </g>
    <g id="Old" class="st2">
      <path class="st4" d="M596.51,567.93c.4-.05.79-.1,1.05-.28,1.3-1.78,3.17-2.65,4.98-3.48.52-.24,1.06-.49,1.56-.75.58-.28,1.15-.6,1.7-.91,1.39-.79,2.84-1.6,4.55-1.81.23-.14.46-.28.69-.43,1.27-.8,2.59-1.63,4.19-1.88.24-.32.53-.52.85-.59.45-.1.88.07,1.22.26.14-.09.29-.19.44-.3.63-.44,1.33-.93,2.28-.84.74-.77,1.58-1.01,2.5-.72l2.26-.59c.83-.6,1.94-1.19,3.29-.74,1.08-.6,2.22-.64,3.33-.67.48-.02.93-.03,1.38-.09.64-.9,1.57-.91,2.33-.92.35,0,.68-.01.96-.09h.08s4.47-.44,4.47-.44l2.04-.22,2.33.07.08-.03c.37-.17.82-.37,1.28-.19.21.08.38.23.53.45h.04c.81-.15,1.65-.29,2.52-.12.83-.53,1.67-.37,2.42-.24.34.06.67.12.99.12h.01c.89-.34,1.75-.22,2.58-.11.39.05.77.1,1.14.1,0,0,0,0,0-.02l.06-.43,6.71.81-.05.43,1.94.37c1.09.03,2.14.11,3.1.73l2.65.45c.68-.01,1.54-.02,2.14.77.27.35.7.44,1.18.54.19.04.38.08.58.14l.19-.02c.89-.08,1.98-.17,2.76.8l.33.06c1.28-.06,2.24.21,3.05.84l2.26.78c1.14.2,2.32.51,3.25,1.41l2.53.87c.16.09.35.15.55.21.45.14,1.01.32,1.34.88.07.01.13.02.2.03.38.05.89.12,1.25.56.64.12,1.01.56,1.32.93.1.11.19.23.29.32.53-.12,1.51-.23,2.15.77.33.32.82.48,1.33.65.8.27,1.79.59,2.21,1.68h.42s-.04.09-.04.09c.88.19,1.49.79,2.05,1.34.48.47.92.92,1.5,1.08,1.16.11,1.95.72,2.3,1.77l.46.05c1.08.24,1.79.81,2.1,1.69.34.07.7.26.98.74l.58.47c1.34.23,2.02,1.19,2.63,2.05.22.31.43.61.67.87.42.26.71.59.85.98.69.12,1.53.41,2.01,1.32.15.18.3.37.45.56.55.7,1.06,1.36,1.86,1.69.84.29,1.07,1.01,1.26,1.58.06.2.13.39.21.55.67.23,1.09.74,1.46,1.19.22.27.43.52.68.71,1.05.85,2.11,1.71,2.35,3.21.66.51,1.09,1.19,1.47,1.92,1.28.46,1.84,1.55,2.21,2.56l.03.09-.04.4c1.63,1.5,2.7,3.39,3.74,5.22.22.39.44.78.67,1.17.44.75.92,1.51,1.38,2.24,1.65,2.62,3.35,5.33,4.01,8.54.85.49,1.07,1.33,1.17,2.04l.86,2.21c.51,1.1,1.04,2.23,1.02,3.55.74.65.9,1.56,1.03,2.36l.02.15c.03.81.35,1.56.69,2.35.4.96.82,1.94.75,3.08.39.52.46,1.11.52,1.64.02.17.04.33.07.5.1.36.06.71.02,1.02-.06.46-.08.72.17.95l.07.09c.75,1.24.94,2.62.59,4.34.7.66.66,1.54.61,2.27l.25,1.93.04.75c.24.32.43.8.21,1.46l-.17,2.19c.67,1.16.56,2.38.45,3.56v.09c.02.52-.04,1.04-.09,1.53-.08.79-.16,1.54.07,2.27l.02.07-.02,1.36c.36.92.22,1.81.02,2.72l-.02,1.02s.03,0,.05,0l.41.08-1.22,10.04h-.4c-.06,0-.09,0-.09,0,0,.02-.04.14-.06.21-.02.1-.05.21-.09.32l-.07.67c-.05.99-.1,2.01-.76,2.92l-.31,1.69v.18c-.03.79-.05,1.68-.69,2.43l-.31,1.6c.21,1.06-.51,1.59-1.06,1.97.36,1.84-.17,3.33-1.57,4.46.05,1.3-.08,2.64-1.04,3.76l-.17.46c-.17.92-.44,1.95-1.19,2.8-.14,1.06-.55,1.97-1.23,2.71l-.54.6c-.2.31-.35.67-.49,1.05-.24.63-.51,1.32-1.11,1.83.06.12.09.24.09.36.01.4-.25.68-.45.88-.07.08-.19.2-.21.25l.02.15-.07.12-1.02,1.81c-.05.6-.35,1.1-.89,1.5l-1.07,1.47,122.58,122.58c.2-.14.44-.18.61-.38.22-.28.71-.59,1.17-.88.97-.62,2.19-1.38,2.38-2.79.07-.55-.02-1.12-.3-1.71,2.68-.99,3.96-3.3,5.12-5.38.78-1.4,1.52-2.72,2.61-3.58l4.52-6.32.08-.13c.45-.84,1.14-1.57,1.88-2.35,1.15-1.22,2.45-2.59,2.9-4.59l3.99-5.51c1.14-.84,3.51-7.34,3.86-8.52,4.8,23.05,24.55,37.18,39.06,37.18h104.98c22.47,0,40.85-18.38,40.85-40.85v-5.84c0-22.47-34.48-40.85-56.95-40.85h-11.49l60.17-251.51c1.21-14.81-4.05-29.42-14.41-40.06-10.37-10.64-24.86-16.26-39.67-15.45l-179.23,9.98,98.64-112.34c14.05-16,18.07-37.33,12.63-56.4-2.87-13.06-10.78-24.95-22.93-32.54-.37-.27-235.78-137.02-235.78-137.02-19.22-11.17-43.44-8.71-60.03,6.09l-114.99,102.57c-21.19,18.9-23.04,51.39-4.14,72.58,18.9,21.18,51.39,23.05,72.58,4.14l87.18-77.76,72.07,41.85-118.72,135.21c-.42.03-.79.11-1.25.12-2.1.03-4.67.07-6.43,2.55-1.23.16-2.48.2-3.8.24-3.06.1-6.22.2-9.2,1.85-3.72-1.26-6.79.37-9.09,2.04l-6.23,1.64c-2.53-.81-4.85-.14-6.9,1.99-2.63-.23-4.57,1.12-6.3,2.33-.41.29-.81.56-1.2.82-.92-.53-2.12-.99-3.36-.72-.9.19-1.69.74-2.36,1.62-4.42.71-8.04,2.99-11.56,5.2-.63.4-1.27.8-1.9,1.18-4.73.59-8.71,2.83-12.56,5-1.51.85-3.08,1.73-4.68,2.5-1.4.73-2.89,1.42-4.32,2.08-5,2.31-10.16,4.7-13.74,9.62-.73.5-1.79.63-2.9.77-1.94.25-4.53.58-5.73,3.36-2.61.11-4.33,1.8-5.87,3.31l-.16.16c-2.87,2.5-6.03,4.81-9.08,7.03-3.49,2.55-7.02,5.19-10.29,8.18l122.77,122.77c.16-.03.32-.09.46-.11Z"/>
      <path class="st4" d="M699.04,733.63l-2.31,1.58c-.53.71-1.31.99-2.01,1.21-.14.15-.32.24-.52.27-.71.5-1.57.98-2.6,1.04-.32.42-.8.38-1.1.35l-.33.23c-.31.71-.96.88-1.45,1.01-.28.07-.54.15-.71.29-.88.82-1.93.93-2.95,1.04-.23.02-.45.05-.68.08-.71.79-1.63,1.11-2.53,1.41l-.32.11c-.4.15-.8.31-1.21.46-1.58.62-3.2,1.26-5.01,1.32-.14.02-.27.04-.41.06-.25.1-.49.21-.74.34-.86.41-1.84.88-3,.61-.09,0-.18.02-.27.03-1.11.74-2.39,1.08-3.79,1l-.37.02c-4.27,1.27-8.61,1.51-11.95,1.58-.71.34-1.44.26-2.08.2-.32-.03-.62-.06-.91-.05-.36.16-.73.22-1.08.23-.38,0-.76-.05-1.11-.1-.26-.04-.51-.08-.76-.09-.96.39-1.91.23-2.73.03l-2.73-.19c-.41.11-.81.11-1.21,0-3.92.01-7.73-.5-11.34-1.54l-1.26-.21-2.96-.44-3.84-.98-1.8-.66c-.45,0-1.17-.02-1.7-.61l-.63-.18c-.82.13-1.45-.23-2.01-.55-.13-.08-.26-.15-.39-.22-.62.09-1.08-.21-1.45-.46-.18-.12-.35-.23-.52-.29h-.02c-.99-.25-2.01-.51-2.91-1.13-1.82-.35-3.37-1.26-4.87-2.15-.41-.24-.82-.48-1.23-.71-.51-.29-1.05-.51-1.63-.74-1.06-.43-2.15-.88-3.03-1.77l-2.78-1.38c-.43-.31-.88-.58-1.37-.86-.96-.56-1.94-1.14-2.69-2.08-.83-.28-1.58-.79-2.39-1.63l-3.25-2.42-.6.4.32-.57c-.73-.27-1.1-.86-1.43-1.38-.2-.31-.39-.61-.64-.82-1.02-.01-1.57-.67-1.98-1.35-1.12-.63-1.84-1.35-2.26-2.27l-.03-.12s-.12-.04-.19-.07c-.21-.08-.64-.26-.73-.71-.9-.35-1.44-1.05-1.82-1.66l-.72-.74-1.37-1.44c-.82-.48-1.21-1.27-1.55-1.97-.05-.11-.11-.22-.16-.33l-.82-.72c-1.8-1.7-3.2-3.48-4.28-5.45l-4.25-6.48-.87-1.75-1.58-2.43c-.22-.43-.47-.79-.73-1.18-.54-.8-1.1-1.63-1.27-2.7-.14-.59-.53-1.15-.94-1.74-.63-.89-1.33-1.9-1.13-3.27-.47-.39-1.03-.87-1.09-1.69-.49-.67-.67-1.33-.55-2.03l-1.31-3.11-.65-2.09-.06-.11c-.37-.7-.79-1.48-.49-2.4-.86-.71-.85-1.74-.84-2.59v-.02s-.04-.07-.04-.07c-.44-.72-1.04-1.7-.23-2.76,0-.02,0-.03,0-.05-.51-.27-.84-.62-.98-1.04-.18-.53-.06-1.14.36-1.87,0-.01,0-.02,0-.04-.82-.65-.66-1.52-.55-2.18.05-.3.1-.59.07-.83-.88-.58-.89-1.47-.9-2.18,0-.38,0-.75-.13-1.03l-.06-.14.04-.15c.25-.91.1-1.83-.06-2.8-.15-.95-.31-1.93-.09-2.94-.74-.43-.55-1.24-.44-1.71v-.03s.06-1.65.06-1.65c-.31-.54-.35-1.15-.12-1.85l.14-2.14c-.38-.94-.19-1.86-.02-2.67l.14-1.51.35-3.35c0-2.8.51-5.57,1.01-8.25l.19-1.02.37-3,.74-2.26c-.02-.76.06-1.54.64-2.17l.28-1.29.04-.07c.5-.78.67-1.68.85-2.63.17-.88.34-1.78.79-2.62.12-.22.17-.53.23-.85.13-.72.31-1.69,1.46-1.98.45-3.87,1.71-6.73,3.94-8.97.64-2.84,2.27-5.15,3.84-7.39.29-.41.58-.83.87-1.24.11-.57.39-1.16.87-1.59l-122.04-122.04c-4.65,4.52-9.44,9.19-12.89,15.04-2.06,1.13-3.25,2.94-3.47,5.28-1.01.97-2.13,2.37-2.36,4.32-3.31.51-3.94,3.46-4.39,5.73-.79,1.15-1.59,2.29-2.39,3.43-4.34,6.18-8.83,12.56-10.61,20.4-6.17,6.19-9.64,14.09-10.88,24.77-3.17.81-3.66,3.47-4.03,5.46-.16.89-.32,1.72-.64,2.34-1.24,2.31-1.72,4.82-2.18,7.24-.5,2.63-.97,5.11-2.36,7.26l-.12.19-.77,3.55c-1.62,1.75-1.83,3.9-1.78,5.99l-2.04,6.24-1.02,8.27-.52,2.83c-1.36,7.39-2.76,15.03-2.78,22.77l-.98,9.26-.4,4.17c-.48,2.25-.99,4.79.06,7.38l-.39,5.91c-.63,1.93-.52,3.61.34,5.1l-.15,4.55-.02.08c-.31,1.29-.84,3.54,1.21,4.72-.59,2.78-.16,5.49.26,8.11.43,2.69.84,5.23.16,7.73l-.11.42.18.39c.35.78.36,1.78.37,2.84.02,1.98.05,4.41,2.49,6.02.1.66-.04,1.46-.19,2.29-.32,1.8-.74,4.2,1.51,6.01,0,.03,0,.07,0,.1-1.16,2-1.49,3.69-1,5.16.39,1.18,1.3,2.14,2.7,2.88,0,.05,0,.09,0,.14-2.24,2.93-.59,5.63.63,7.62l.11.18v.05c-.03,2.34-.07,5.19,2.32,7.15-.82,2.56.33,4.71,1.36,6.63l.17.31,1.79,5.77,3.6,8.59c-.33,1.92.17,3.76,1.52,5.6.15,2.28,1.7,3.61,3,4.68-.54,3.77,1.4,6.55,3.13,9.02,1.14,1.63,2.21,3.16,2.6,4.8.45,2.95,1.99,5.24,3.49,7.46.72,1.07,1.41,2.08,2.03,3.26l4.36,6.71,2.4,4.84,11.74,17.9c2.97,5.44,6.82,10.35,11.8,15.04l2.26,1.99c.15.3.3.61.45.91.94,1.93,2,4.12,4.27,5.45l3.77,3.99,1.99,2.05c1.05,1.66,2.54,3.6,5.03,4.57.25,1.27,1.44,1.74,2.01,1.97.19.08.49.21.52.19l.1.32c1.16,2.54,3.14,4.54,6.23,6.27,1.12,1.89,2.66,3.71,5.47,3.74.69.57,1.22,1.39,1.77,2.26.91,1.44,1.94,3.06,3.95,3.8l-.89,1.58,1.64-1.1,8.96,6.68c2.25,2.32,4.31,3.72,6.61,4.49,2.07,2.59,4.79,4.19,7.44,5.74,1.33.78,2.59,1.52,3.77,2.38l7.67,3.81c2.43,2.45,5.45,3.69,8.37,4.88,1.58.65,3.08,1.26,4.49,2.06,1.14.64,2.27,1.3,3.4,1.97,4.13,2.45,8.41,4.98,13.44,5.93,2.48,1.73,5.3,2.44,8.03,3.12h.06c.46.17.93.48,1.43.8,1.04.68,2.31,1.5,4.02,1.26.37.19.73.4,1.09.61,1.54.89,3.28,1.9,5.54,1.52l1.75.51c1.45,1.61,3.46,1.68,4.7,1.67l4.98,1.84,10.61,2.7,8.18,1.21,3.48.59c9.95,2.86,20.48,4.29,31.31,4.25,1.1.28,2.22.27,3.34-.03l7.53.52c2.27.52,4.89.97,7.54-.1.68.03,1.37.14,2.1.25.96.15,1.99.3,3.06.28.97-.02,1.98-.18,2.98-.64.8-.04,1.63.04,2.5.14,1.77.18,3.76.39,5.73-.55,9.2-.18,21.2-.85,32.98-4.35l1.03-.04c3.88.22,7.41-.7,10.47-2.75.25-.03.49-.06.74-.08,3.21.74,5.91-.54,8.29-1.68.71-.34,1.37-.66,2.05-.93.37-.05.75-.1,1.12-.16,4.98-.16,9.47-1.93,13.82-3.64,1.11-.44,2.23-.88,3.33-1.28l.88-.3c2.48-.84,5.04-1.71,7-3.89.62-.09,1.25-.15,1.87-.22,2.81-.29,5.71-.59,8.14-2.86.46-.41,1.19-.61,1.96-.81,1.33-.36,3.13-.84,3.99-2.8l.92-.64c.81.08,2.16.19,3.03-.97,2.85-.15,5.21-1.49,7.18-2.87.56-.07,1.06-.32,1.44-.74,1.95-.61,4.08-1.36,5.56-3.33l6.38-4.36c5.28-2.04,9.84-5.29,14.25-8.44,1.54-1.1,3.13-2.23,4.7-3.28.69-.45,1.39-.89,2.09-1.34,5.98-3.82,12.17-7.76,16.39-14.05.19-.11.38-.21.57-.31l-122.13-122.13c-1.34.94-2.73,1.86-4.31,2.48Z"/>
      <path class="st4" d="M949.36,221.28c47.52,0,86.04-38.52,86.04-86.05s-38.52-86.05-86.04-86.05-86.05,38.53-86.05,86.05,38.52,86.05,86.05,86.05Z"/>
    </g>
  </g>
  <circle id="CenteredCircle" class="st1" cx="648" cy="648" r="23.7"/>
</svg>