<?xml version="1.0" encoding="utf-8"?>
<!-- Generator: Adobe Illustrator 24.3.0, SVG Export Plug-In . SVG Version: 6.00 Build 0)  -->
<svg version="1.1" id="Layer_1" xmlns="http://www.w3.org/2000/svg" xmlns:xlink="http://www.w3.org/1999/xlink" x="0px" y="0px"
	 viewBox="0 0 792 612" style="enable-background:new 0 0 792 612;" xml:space="preserve">
<style type="text/css">
	.st0{fill:#78C8AA;}
	.st1{fill:#FAD68A;}
	.st2{fill:#EA734D;}
	.st3{fill:#2D2A3F;}
</style>
<g>
	<g>
		<path class="st0" d="M350.1,262.4h-75.6c1.1,31.8,13.8,60.5,34,82.3l53.5-53.5C355.4,283.3,351.1,273.3,350.1,262.4z"/>
		<path class="st1" d="M315.5,351.7c21.7,20,50.4,32.6,82,33.7v-75.6c-10.8-0.9-20.6-5.1-28.5-11.6L315.5,351.7z"/>
		<path class="st2" d="M435.5,297.8c-8,6.7-18,11.1-29,12v75.6c31.8-1.1,60.7-13.9,82.5-34.1L435.5,297.8z"/>
	</g>
	<g>
		<path class="st3" d="M424.9,261.3C424.9,261.3,424.9,261.3,424.9,261.3C424.9,261.3,424.9,261.3,424.9,261.3
			C424.9,261.3,424.9,261.3,424.9,261.3z"/>
		<path class="st3" d="M388.5,236.7c0.1,0,0.2,0,0.3-0.1c0.3-0.4,0.8-0.7,1.2-0.9c0.1-0.1,0.3-0.1,0.4-0.2c0.1-0.1,0.3-0.1,0.4-0.2
			c0.3-0.2,0.7-0.4,1.1-0.5c0.1,0,0.1-0.1,0.2-0.1c0.3-0.2,0.6-0.4,1-0.5c0.1-0.1,0.1-0.1,0.2-0.1c0.1,0,0.2,0,0.3,0.1
			c0,0,0.1,0,0.1-0.1c0.2-0.1,0.3-0.2,0.6-0.2c0.2-0.2,0.4-0.3,0.6-0.2l0.6-0.1c0.2-0.2,0.5-0.3,0.8-0.2c0.3-0.1,0.6-0.2,0.8-0.2
			c0.1,0,0.2,0,0.3,0c0.2-0.2,0.4-0.2,0.6-0.2c0.1,0,0.2,0,0.2,0l0,0l1.1-0.1l0.5-0.1l0.6,0l0,0c0.1,0,0.2-0.1,0.3,0
			c0.1,0,0.1,0.1,0.1,0.1l0,0c0.2,0,0.4-0.1,0.6,0c0.2-0.1,0.4-0.1,0.6-0.1c0.1,0,0.2,0,0.2,0h0c0.2-0.1,0.4-0.1,0.6,0
			c0.1,0,0.2,0,0.3,0c0,0,0,0,0,0l0-0.1l1.7,0.2l0,0.1l0.5,0.1c0.3,0,0.5,0,0.8,0.2l0.7,0.1c0.2,0,0.4,0,0.5,0.2
			c0.1,0.1,0.2,0.1,0.3,0.1c0,0,0.1,0,0.1,0l0,0c0.2,0,0.5,0,0.7,0.2l0.1,0c0.3,0,0.6,0.1,0.8,0.2l0.6,0.2c0.3,0,0.6,0.1,0.8,0.4
			l0.6,0.2c0,0,0.1,0,0.1,0.1c0.1,0,0.3,0.1,0.3,0.2c0,0,0,0,0.1,0c0.1,0,0.2,0,0.3,0.1c0.2,0,0.3,0.1,0.3,0.2c0,0,0,0.1,0.1,0.1
			c0.1,0,0.4-0.1,0.5,0.2c0.1,0.1,0.2,0.1,0.3,0.2c0.2,0.1,0.4,0.1,0.6,0.4l0.1,0l0,0c0.2,0,0.4,0.2,0.5,0.3
			c0.1,0.1,0.2,0.2,0.4,0.3c0.3,0,0.5,0.2,0.6,0.4l0.1,0c0.3,0.1,0.4,0.2,0.5,0.4c0.1,0,0.2,0.1,0.2,0.2l0.1,0.1
			c0.3,0.1,0.5,0.3,0.7,0.5c0.1,0.1,0.1,0.2,0.2,0.2c0.1,0.1,0.2,0.1,0.2,0.2c0.2,0,0.4,0.1,0.5,0.3c0,0,0.1,0.1,0.1,0.1
			c0.1,0.2,0.3,0.3,0.5,0.4c0.2,0.1,0.3,0.3,0.3,0.4c0,0,0,0.1,0.1,0.1c0.2,0.1,0.3,0.2,0.4,0.3c0.1,0.1,0.1,0.1,0.2,0.2
			c0.3,0.2,0.5,0.4,0.6,0.8c0.2,0.1,0.3,0.3,0.4,0.5c0.3,0.1,0.5,0.4,0.6,0.6l0,0l0,0.1c0.4,0.4,0.7,0.8,0.9,1.3
			c0.1,0.1,0.1,0.2,0.2,0.3c0.1,0.2,0.2,0.4,0.3,0.6c0.4,0.7,0.8,1.3,1,2.1c0.2,0.1,0.3,0.3,0.3,0.5l0.2,0.6
			c0.1,0.3,0.3,0.6,0.3,0.9c0.2,0.2,0.2,0.4,0.3,0.6l0,0c0,0.2,0.1,0.4,0.2,0.6c0.1,0.2,0.2,0.5,0.2,0.8c0.1,0.1,0.1,0.3,0.1,0.4
			c0,0,0,0.1,0,0.1c0,0.1,0,0.2,0,0.3c0,0.1,0,0.2,0,0.2l0,0c0.2,0.3,0.2,0.7,0.1,1.1c0.2,0.2,0.2,0.4,0.2,0.6l0.1,0.5l0,0.2
			c0.1,0.1,0.1,0.2,0.1,0.4l0,0.5c0.2,0.3,0.1,0.6,0.1,0.9l0,0c0,0.1,0,0.3,0,0.4c0,0.2,0,0.4,0,0.6l0,0l0,0.3
			c0.1,0.2,0.1,0.5,0,0.7l0,0.3c0,0,0,0,0,0l0.1,0l-0.3,2.5l-0.1,0c0,0,0,0,0,0c0,0,0,0,0,0.1c0,0,0,0.1,0,0.1l0,0.2
			c0,0.2,0,0.5-0.2,0.7l-0.1,0.4l0,0c0,0.2,0,0.4-0.2,0.6l-0.1,0.4c0.1,0.3-0.1,0.4-0.3,0.5c0.1,0.5,0,0.8-0.4,1.1
			c0,0.3,0,0.7-0.3,0.9l0,0.1c0,0.2-0.1,0.5-0.3,0.7c0,0.3-0.1,0.5-0.3,0.7l-0.1,0.2c-0.1,0.1-0.1,0.2-0.1,0.3
			c-0.1,0.2-0.1,0.3-0.3,0.5c0,0,0,0.1,0,0.1c0,0.1-0.1,0.2-0.1,0.2c0,0,0,0.1-0.1,0.1l0,0l0,0l-0.3,0.5c0,0.1-0.1,0.3-0.2,0.4
			l-0.3,0.4l30.6,30.6c0,0,0.1,0,0.2-0.1c0.1-0.1,0.2-0.1,0.3-0.2c0.2-0.2,0.5-0.3,0.6-0.7c0-0.1,0-0.3-0.1-0.4
			c0.7-0.2,1-0.8,1.3-1.3c0.2-0.4,0.4-0.7,0.7-0.9l1.1-1.6l0,0c0.1-0.2,0.3-0.4,0.5-0.6c0.3-0.3,0.6-0.6,0.7-1.1l1-1.4
			c0.3-0.2,0.9-1.8,1-2.1c1.2,5.8,6.1,9.3,9.8,9.3h26.2c5.6,0,10.2-4.6,10.2-10.2v-1.5c0-5.6-8.6-10.2-14.2-10.2H489l15-62.9
			c0.3-3.7-1-7.4-3.6-10c-2.6-2.7-6.2-4.1-9.9-3.9l-44.8,2.5l24.7-28.1c3.5-4,4.5-9.3,3.2-14.1c-0.7-3.3-2.7-6.2-5.7-8.1
			c-0.1-0.1-58.9-34.3-58.9-34.3c-4.8-2.8-10.9-2.2-15,1.5l-28.7,25.6c-5.3,4.7-5.8,12.8-1,18.1c4.7,5.3,12.8,5.8,18.1,1L404,146
			l18,10.5l-29.7,33.8c-0.1,0-0.2,0-0.3,0c-0.5,0-1.2,0-1.6,0.6c-0.3,0-0.6,0-0.9,0.1c-0.8,0-1.6,0-2.3,0.5
			c-0.9-0.3-1.7,0.1-2.3,0.5l-1.6,0.4c-0.6-0.2-1.2,0-1.7,0.5c-0.7-0.1-1.1,0.3-1.6,0.6c-0.1,0.1-0.2,0.1-0.3,0.2
			c-0.2-0.1-0.5-0.2-0.8-0.2c-0.2,0-0.4,0.2-0.6,0.4c-1.1,0.2-2,0.7-2.9,1.3c-0.2,0.1-0.3,0.2-0.5,0.3c-1.2,0.1-2.2,0.7-3.1,1.2
			c-0.4,0.2-0.8,0.4-1.2,0.6c-0.4,0.2-0.7,0.4-1.1,0.5c-1.2,0.6-2.5,1.2-3.4,2.4c-0.2,0.1-0.4,0.2-0.7,0.2c-0.5,0.1-1.1,0.1-1.4,0.8
			c-0.7,0-1.1,0.4-1.5,0.8l0,0c-0.7,0.6-1.5,1.2-2.3,1.8c-0.9,0.6-1.8,1.3-2.6,2l30.7,30.7C388.4,236.7,388.4,236.7,388.5,236.7z"/>
		<path class="st3" d="M414.1,278.1l-0.6,0.4c-0.1,0.2-0.3,0.2-0.5,0.3c0,0-0.1,0.1-0.1,0.1c-0.2,0.1-0.4,0.2-0.7,0.3
			c-0.1,0.1-0.2,0.1-0.3,0.1l-0.1,0.1c-0.1,0.2-0.2,0.2-0.4,0.3c-0.1,0-0.1,0-0.2,0.1c-0.2,0.2-0.5,0.2-0.7,0.3c-0.1,0-0.1,0-0.2,0
			c-0.2,0.2-0.4,0.3-0.6,0.4l-0.1,0c-0.1,0-0.2,0.1-0.3,0.1c-0.4,0.2-0.8,0.3-1.3,0.3c0,0-0.1,0-0.1,0c-0.1,0-0.1,0.1-0.2,0.1
			c-0.2,0.1-0.5,0.2-0.8,0.2c0,0,0,0-0.1,0c-0.3,0.2-0.6,0.3-0.9,0.2l-0.1,0c-1.1,0.3-2.2,0.4-3,0.4c-0.2,0.1-0.4,0.1-0.5,0
			c-0.1,0-0.2,0-0.2,0c-0.1,0-0.2,0.1-0.3,0.1c-0.1,0-0.2,0-0.3,0c-0.1,0-0.1,0-0.2,0c-0.2,0.1-0.5,0.1-0.7,0l-0.7,0
			c-0.1,0-0.2,0-0.3,0c-1,0-1.9-0.1-2.8-0.4l-0.3-0.1l-0.7-0.1l-1-0.2l-0.5-0.2c-0.1,0-0.3,0-0.4-0.2l-0.2,0c-0.2,0-0.4-0.1-0.5-0.1
			c0,0-0.1,0-0.1-0.1c-0.2,0-0.3-0.1-0.4-0.1c0,0-0.1-0.1-0.1-0.1l0,0c-0.2-0.1-0.5-0.1-0.7-0.3c-0.5-0.1-0.8-0.3-1.2-0.5
			c-0.1-0.1-0.2-0.1-0.3-0.2c-0.1-0.1-0.3-0.1-0.4-0.2c-0.3-0.1-0.5-0.2-0.8-0.4l-0.7-0.3c-0.1-0.1-0.2-0.1-0.3-0.2
			c-0.2-0.1-0.5-0.3-0.7-0.5c-0.2-0.1-0.4-0.2-0.6-0.4l-0.8-0.6l-0.1,0.1l0.1-0.1c-0.2-0.1-0.3-0.2-0.4-0.3c0-0.1-0.1-0.2-0.2-0.2
			c-0.3,0-0.4-0.2-0.5-0.3c-0.3-0.2-0.5-0.3-0.6-0.6l0,0c0,0,0,0,0,0c-0.1,0-0.2-0.1-0.2-0.2c-0.2-0.1-0.4-0.3-0.5-0.4l-0.2-0.2
			l-0.3-0.4c-0.2-0.1-0.3-0.3-0.4-0.5c0,0,0-0.1,0-0.1l-0.2-0.2c-0.5-0.4-0.8-0.9-1.1-1.4l-1.1-1.6l-0.2-0.4l-0.4-0.6
			c-0.1-0.1-0.1-0.2-0.2-0.3c-0.1-0.2-0.3-0.4-0.3-0.7c0-0.1-0.1-0.3-0.2-0.4c-0.2-0.2-0.3-0.5-0.3-0.8c-0.1-0.1-0.3-0.2-0.3-0.4
			c-0.1-0.2-0.2-0.3-0.1-0.5l-0.3-0.8l-0.2-0.5l0,0c-0.1-0.2-0.2-0.4-0.1-0.6c-0.2-0.2-0.2-0.4-0.2-0.6l0,0l0,0
			c-0.1-0.2-0.3-0.4-0.1-0.7c0,0,0,0,0,0c-0.1-0.1-0.2-0.2-0.2-0.3c0-0.1,0-0.3,0.1-0.5c0,0,0,0,0,0c-0.2-0.2-0.2-0.4-0.1-0.5
			c0-0.1,0-0.1,0-0.2c-0.2-0.1-0.2-0.4-0.2-0.5c0-0.1,0-0.2,0-0.3l0,0l0,0c0.1-0.2,0-0.5,0-0.7c0-0.2-0.1-0.5,0-0.7
			c-0.2-0.1-0.1-0.3-0.1-0.4l0,0l0-0.4c-0.1-0.1-0.1-0.3,0-0.5l0-0.5c-0.1-0.2,0-0.5,0-0.7l0-0.4l0.1-0.8c0-0.7,0.1-1.4,0.3-2.1
			l0-0.3l0.1-0.7l0.2-0.6c0-0.2,0-0.4,0.2-0.5l0.1-0.3l0,0c0.1-0.2,0.2-0.4,0.2-0.7c0-0.2,0.1-0.4,0.2-0.7c0-0.1,0-0.1,0.1-0.2
			c0-0.2,0.1-0.4,0.4-0.5c0.1-1,0.4-1.7,1-2.2c0.2-0.7,0.6-1.3,1-1.8c0.1-0.1,0.1-0.2,0.2-0.3c0-0.1,0.1-0.3,0.2-0.4l-30.5-30.5
			c-1.2,1.1-2.4,2.3-3.2,3.8c-0.5,0.3-0.8,0.7-0.9,1.3c-0.3,0.2-0.5,0.6-0.6,1.1c-0.8,0.1-1,0.9-1.1,1.4c-0.2,0.3-0.4,0.6-0.6,0.9
			c-1.1,1.5-2.2,3.1-2.7,5.1c-1.5,1.5-2.4,3.5-2.7,6.2c-0.8,0.2-0.9,0.9-1,1.4c0,0.2-0.1,0.4-0.2,0.6c-0.3,0.6-0.4,1.2-0.5,1.8
			c-0.1,0.7-0.2,1.3-0.6,1.8l0,0l-0.2,0.9c-0.4,0.4-0.5,1-0.4,1.5l-0.5,1.6l-0.3,2.1l-0.1,0.7c-0.3,1.8-0.7,3.8-0.7,5.7l-0.2,2.3
			l-0.1,1c-0.1,0.6-0.2,1.2,0,1.8l-0.1,1.5c-0.2,0.5-0.1,0.9,0.1,1.3l0,1.1l0,0c-0.1,0.3-0.2,0.9,0.3,1.2c-0.1,0.7,0,1.4,0.1,2
			c0.1,0.7,0.2,1.3,0,1.9l0,0.1l0,0.1c0.1,0.2,0.1,0.4,0.1,0.7c0,0.5,0,1.1,0.6,1.5c0,0.2,0,0.4,0,0.6c-0.1,0.4-0.2,1,0.4,1.5
			c0,0,0,0,0,0c-0.3,0.5-0.4,0.9-0.2,1.3c0.1,0.3,0.3,0.5,0.7,0.7c0,0,0,0,0,0c-0.6,0.7-0.1,1.4,0.2,1.9l0,0l0,0
			c0,0.6,0,1.3,0.6,1.8c-0.2,0.6,0.1,1.2,0.3,1.7l0,0.1l0.4,1.4l0.9,2.1c-0.1,0.5,0,0.9,0.4,1.4c0,0.6,0.4,0.9,0.8,1.2
			c-0.1,0.9,0.4,1.6,0.8,2.3c0.3,0.4,0.6,0.8,0.6,1.2c0.1,0.7,0.5,1.3,0.9,1.9c0.2,0.3,0.4,0.5,0.5,0.8l1.1,1.7l0.6,1.2l2.9,4.5
			c0.7,1.4,1.7,2.6,3,3.8l0.6,0.5c0,0.1,0.1,0.2,0.1,0.2c0.2,0.5,0.5,1,1.1,1.4l0.9,1l0.5,0.5c0.3,0.4,0.6,0.9,1.3,1.1
			c0.1,0.3,0.4,0.4,0.5,0.5c0,0,0.1,0.1,0.1,0l0,0.1c0.3,0.6,0.8,1.1,1.6,1.6c0.3,0.5,0.7,0.9,1.4,0.9c0.2,0.1,0.3,0.3,0.4,0.6
			c0.2,0.4,0.5,0.8,1,1l-0.2,0.4l0.4-0.3l2.2,1.7c0.6,0.6,1.1,0.9,1.7,1.1c0.5,0.6,1.2,1,1.9,1.4c0.3,0.2,0.6,0.4,0.9,0.6l1.9,1
			c0.6,0.6,1.4,0.9,2.1,1.2c0.4,0.2,0.8,0.3,1.1,0.5c0.3,0.2,0.6,0.3,0.8,0.5c1,0.6,2.1,1.2,3.4,1.5c0.6,0.4,1.3,0.6,2,0.8l0,0
			c0.1,0,0.2,0.1,0.4,0.2c0.3,0.2,0.6,0.4,1,0.3c0.1,0,0.2,0.1,0.3,0.2c0.4,0.2,0.8,0.5,1.4,0.4l0.4,0.1c0.4,0.4,0.9,0.4,1.2,0.4
			l1.2,0.5l2.7,0.7l2,0.3l0.9,0.1c2.5,0.7,5.1,1.1,7.8,1.1c0.3,0.1,0.6,0.1,0.8,0l1.9,0.1c0.6,0.1,1.2,0.2,1.9,0
			c0.2,0,0.3,0,0.5,0.1c0.2,0,0.5,0.1,0.8,0.1c0.2,0,0.5,0,0.7-0.2c0.2,0,0.4,0,0.6,0c0.4,0,0.9,0.1,1.4-0.1c2.3,0,5.3-0.2,8.2-1.1
			l0.3,0c1,0.1,1.9-0.2,2.6-0.7c0.1,0,0.1,0,0.2,0c0.8,0.2,1.5-0.1,2.1-0.4c0.2-0.1,0.3-0.2,0.5-0.2c0.1,0,0.2,0,0.3,0
			c1.2,0,2.4-0.5,3.5-0.9c0.3-0.1,0.6-0.2,0.8-0.3l0.2-0.1c0.6-0.2,1.3-0.4,1.7-1c0.2,0,0.3,0,0.5-0.1c0.7-0.1,1.4-0.1,2-0.7
			c0.1-0.1,0.3-0.2,0.5-0.2c0.3-0.1,0.8-0.2,1-0.7l0.2-0.2c0.2,0,0.5,0,0.8-0.2c0.7,0,1.3-0.4,1.8-0.7c0.1,0,0.3-0.1,0.4-0.2
			c0.5-0.2,1-0.3,1.4-0.8l1.6-1.1c1.3-0.5,2.5-1.3,3.6-2.1c0.4-0.3,0.8-0.6,1.2-0.8c0.2-0.1,0.3-0.2,0.5-0.3c1.5-1,3-1.9,4.1-3.5
			c0,0,0.1-0.1,0.1-0.1l-30.5-30.5C414.8,277.7,414.5,278,414.1,278.1z"/>
		<path class="st3" d="M476.7,150c11.9,0,21.5-9.6,21.5-21.5c0-11.9-9.6-21.5-21.5-21.5c-11.9,0-21.5,9.6-21.5,21.5
			C455.2,140.4,464.8,150,476.7,150z"/>
	</g>
</g>
<path class="st3" d="M424,259.1C424,259.1,424,259.1,424,259.1C424,259.1,424,259.1,424,259.1C424,259.1,424,259.1,424,259.1z"/>
</svg>
