<?xml version="1.0" encoding="utf-8"?>
<!-- Generator: Adobe Illustrator 25.4.1, SVG Export Plug-In . SVG Version: 6.00 Build 0)  -->
<svg version="1.1" xmlns="http://www.w3.org/2000/svg" xmlns:xlink="http://www.w3.org/1999/xlink" x="0px" y="0px"
	 viewBox="-25 117 560 560" style="enable-background:new -25 117 560 560;" xml:space="preserve">
<style type="text/css">
	.st0{display:none;}
	.st1{display:inline;fill:#FF2771;stroke:#000000;stroke-width:17;stroke-miterlimit:10;}
	.st2{fill:#DDDDDD;}
	.st3{fill:none;}
	.st4{fill:#E8E8E8;stroke:#AAAAAA;stroke-width:5;stroke-miterlimit:10;}
	.st5{fill:none;stroke:#000000;stroke-width:20;stroke-miterlimit:10;}
</style>
<g id="Layer_2" class="st0">
	<circle class="st1" cx="253" cy="397" r="270"/>
</g>
<g id="Layer_3">
	<g>
		<path class="st2" d="M205.5,427.1c0-29,0-58,0-86.9c0-8.7,0.9-9.6,9.5-9.6c5.1,0,10.3,0,15.4,0c7.7,0,9,1.3,9,8.9
			c0,35.8,0,71.5,0,107.3c0,22.6,0.1,45.3,0.2,67.9c0,8.8-1,9.8-9.9,9.8c-5.1,0-10.3,0-15.4,0c-7.5,0-8.9-1.4-8.9-9
			c0-13.6,0.1-27.2,0.2-40.8C205.5,458.8,205.5,443,205.5,427.1z"/>
		<path class="st2" d="M253.4,257.3c0,15.4,0.1,30.8,0,46.2c-0.1,13.2-7.3,21-20,22.1c-1.3,0.1-2.7,0.1-4.1,0.1c-5,0-10,0-14.9,0
			c-14.8-0.1-23-8-23-22.9c-0.1-25.5-0.1-51,0-76.5c0-6.5-0.2-13,0.6-19.4c1.2-9.8,7.5-16.5,17.2-17.4c8.8-0.8,17.9-0.9,26.7,0.1
			c11,1.3,17.5,9.8,17.6,21.6C253.5,226.5,253.5,241.9,253.4,257.3z M222.3,317.8c10.9,0,19.5-8.5,19.6-19.2
			c0-10.8-8.9-19.8-19.6-19.8c-10.5,0-19.4,9-19.4,19.6C202.9,309.2,211.5,317.8,222.3,317.8z M222.5,197.2
			c-10.9,0-19.6,8.5-19.6,19.3c0,10.5,8.9,19.2,19.8,19.3c10.2,0.1,19.2-9.1,19.1-19.5C241.8,205.8,233.1,197.3,222.5,197.2z
			 M222.2,276.2c10.7,0,18.7-7.5,18.8-17.6c0.1-11.2-7.7-19.4-18.4-19.5c-10.5-0.1-18.6,8-18.8,18.7
			C203.7,268.2,211.6,276.1,222.2,276.2z"/>
		<path class="st2" d="M185.9,239.9c0,10.7,0.1,20.7-0.1,30.6c0,1.3-1.2,3.3-2.3,3.7c-1.1,0.3-3.3-0.6-4.1-1.6
			c-6.4-8.3-12.7-16.8-18.8-25.3c-1-1.5-2-4.3-1.3-5.4c0.8-1.3,3.5-1.7,5.5-1.8C171.8,239.8,178.9,239.9,185.9,239.9z"/>
		<path class="st2" d="M259.1,239.9c7.8,0,15.6-0.1,23.4,0c3.4,0.1,4.7,2.4,2.9,5c-6.7,9.6-13.6,19-20.7,28.3
			c-1.8,2.4-5.4,1.3-5.5-1.7C258.9,261.3,259.1,251,259.1,239.9z"/>
		<path class="st2" d="M185.7,199.2c0,10.8,0,21.1-0.1,31.5c0,0.9-1,2.4-1.8,2.6c-1.1,0.3-3,0-3.6-0.8c-7.1-9.5-14.1-19-21-28.6
			c-1.8-2.5-0.5-4.5,2.4-4.6C169.8,199,177.9,199.2,185.7,199.2z"/>
		<path class="st2" d="M259,199.2c7.9,0,16-0.1,24.1,0.1c3,0.1,4.1,2.2,2.4,4.6c-6.8,9.5-13.7,19-20.7,28.3
			c-0.7,0.9-2.7,1.4-3.9,1.1c-0.8-0.2-1.7-2-1.8-3.1C258.9,220,259,210,259,199.2z"/>
		<path class="st2" d="M258.3,295.8c0-3.8,0.1-7.6,0-11.3c-0.1-2.3,0.7-3.3,3.1-3.3c6.9,0,13.9-0.3,20.8-0.2c3.8,0,5.2,2.5,3,5.6
			c-6.5,9.2-13.2,18.3-20,27.3c-0.7,1-2.7,1.9-3.7,1.5c-1-0.3-2.1-2.1-2.2-3.4c-0.6-5.4-0.8-10.8-1.1-16.2
			C258.1,295.9,258.2,295.8,258.3,295.8z"/>
		<path class="st2" d="M185.7,281c0,11.1,0.2,21.4-0.1,31.8c-0.1,3.1-3.6,4.1-5.5,1.5c-7.1-9.3-13.9-18.8-20.7-28.4
			c-2.1-3-0.1-4.8,2.7-4.8C170,280.9,178,281,185.7,281z"/>
		<path class="st3" d="M222.3,317.8c-10.8,0-19.4-8.6-19.4-19.4c0-10.6,8.8-19.5,19.4-19.6c10.7,0,19.6,8.9,19.6,19.8
			C241.8,309.4,233.2,317.9,222.3,317.8z"/>
		<path class="st3" d="M222.5,197.2c10.6,0,19.3,8.5,19.3,19.1c0.1,10.4-9,19.5-19.1,19.5c-10.8-0.1-19.8-8.8-19.8-19.3
			C202.9,205.8,211.6,197.2,222.5,197.2z"/>
		<path class="st3" d="M222.2,276.2c-10.6,0-18.5-7.9-18.4-18.5c0.1-10.7,8.2-18.8,18.8-18.7c10.7,0.1,18.5,8.3,18.4,19.5
			C240.9,268.6,232.9,276.2,222.2,276.2z"/>
		<g id="WFA5wE.tif_13_">
			<g>
				<g>
					<path class="st3" d="M30.2,443.9c0-47,0-94,0-141.2c20.8,0,41.7,0,62.5,0c-0.1,0.1-0.2,0.2-0.3,0.2c-6.9,1.1-11.8,5-15.5,10.8
						c-2.5,3.8-2.5,13.3,0.1,17.2c0.4,0.6,0.8,1.4,0.8,2.1c0.5,6.2,1,12.5,1.4,18.7c1.6,23.2,3.3,46.4,4.9,69.6
						c0.2,2.5,0.4,5.1,0.6,7.8c1,0,1.9,0,2.7,0c23.1,0,46.3,0,69.4,0c0.5,0,1.1-0.1,1.6,0c0.6,0.2,1.3,0.6,1.6,1.1
						c1.4,2.7,2.7,5.5,4,8.3c2.9,6.3,5.7,12.7,8.5,19c2.8,6.3,5.7,12.7,8.5,19c2.4,5.4,4.6,10.9,7,16.3c0.7,1.6,1.7,3.2,2.6,4.8
						c13.3-5,26.5-9.9,39.9-14.9c-2-4.8-4-9.5-6-14.2c-7.6,2.6-15.1,5.2-22.5,7.7c-1.9-4-3.8-7.8-5.6-11.6
						c-2.8-5.9-5.4-11.9-8.1-17.9c-3.1-6.8-6.2-13.6-9.2-20.4c-2-4.6-4-9.2-5.9-13.8c-0.5-1.2-1.1-1.7-2.5-1.7
						c-19.4,0.2-38.7,0.3-58.1,0.4c-3.3,0-6.6,0-10,0c-0.3-4.1-0.6-8.1-0.9-12.3c16.9,0,33.6,0,50.3,0c0-6.2,0-12.1,0-18.2
						c-17.4,0-34.7,0-52.1,0c-0.7-13.2-1.5-26.1-2.2-39c1-0.2,1.7-0.4,2.5-0.5c5.5-1,9.8-4.1,12.7-8.6c6.6-10.4,2.5-22.7-8.8-28
						c-1.8-0.8-3.7-1.2-5.6-1.7c44.2,0,88.3,0,132.5,0c0,72.6,0,145.3,0,217.9c-39.3,0-78.6,0-117.8,0c0.4-0.1,0.9-0.3,1.3-0.4
						c15.5-1.8,29.3-7.8,41.2-17.8c5.9-4.9,11.1-10.6,14.9-17.5c0.5-0.9,1.4-1.6,1.7-2.6c0.3-0.7,0.2-1.7,0-2.5
						c-0.3-0.9-1.1-1.6-1.5-2.5c-3.6-6.9-7.1-13.9-10.6-20.9c-0.1-0.3-0.4-0.5-0.5-0.7c-0.7,3-1.2,5.9-2.2,8.7
						c-1,2.8-2.3,5.5-3.7,8.2c-2.2,4.2-4.9,8-8.3,11.4c-7.4,7.6-16.1,12.6-26.3,15.2c-15.1,3.8-29.4,1.5-42.8-6.2
						c-6.7-3.9-12.1-9.2-16.6-15.5c-4.5-6.2-6.8-13.5-8.3-20.9c-1.3-6.3-0.9-12.7,1-19.1c2-6.8,4.4-13.2,8.8-18.9
						c3.9-5,8.3-9.2,13.5-12.6c0.9-0.6,1.3-1.3,1.2-2.4c-0.3-3.3-0.5-6.7-0.8-10c-0.3-3.1-0.5-6.2-0.8-9.4
						c-5.8,2.1-10.6,5.3-15.3,8.8c-6.3,4.7-11.7,10.4-16.2,16.8c-4.7,6.9-8.2,14.5-10.3,22.6C31.2,436.3,30.8,440.1,30.2,443.9z"/>
					<path d="M98.2,302.7c1.9,0.6,3.9,0.9,5.6,1.7c11.3,5.3,15.4,17.6,8.8,28c-2.9,4.5-7.2,7.7-12.7,8.6c-0.8,0.1-1.5,0.3-2.5,0.5
						c0.7,12.9,1.5,25.9,2.2,39c17.4,0,34.7,0,52.1,0c0,6.1,0,12,0,18.2c-16.7,0-33.4,0-50.3,0c0.3,4.2,0.6,8.2,0.9,12.3
						c3.5,0,6.7,0,10,0c19.4-0.1,38.7-0.2,58.1-0.4c1.4,0,2,0.5,2.5,1.7c1.9,4.6,3.9,9.2,5.9,13.8c3,6.8,6.1,13.6,9.2,20.4
						c2.7,6,5.4,11.9,8.1,17.9c1.8,3.8,3.7,7.6,5.6,11.6c7.4-2.5,14.9-5.1,22.5-7.7c2,4.8,4,9.4,6,14.2c-13.3,5-26.6,9.9-39.9,14.9
						c-0.9-1.6-1.8-3.1-2.6-4.8c-2.4-5.4-4.6-10.9-7-16.3c-2.8-6.4-5.6-12.7-8.5-19c-2.8-6.3-5.7-12.7-8.5-19
						c-1.3-2.8-2.6-5.6-4-8.3c-0.3-0.5-1-0.8-1.6-1.1c-0.5-0.2-1,0-1.6,0c-23.1,0-46.3,0-69.4,0c-0.8,0-1.7,0-2.7,0
						c-0.2-2.8-0.5-5.3-0.6-7.8c-1.6-23.2-3.3-46.4-4.9-69.6c-0.4-6.2-0.9-12.5-1.4-18.7c-0.1-0.7-0.4-1.5-0.8-2.1
						c-2.6-3.8-2.6-13.3-0.1-17.2c3.7-5.8,8.6-9.7,15.5-10.8c0.1,0,0.2-0.1,0.3-0.2C94.5,302.7,96.3,302.7,98.2,302.7z"/>
					<path d="M30.2,443.9c0.7-3.8,1.1-7.6,2-11.2c2.1-8.1,5.6-15.7,10.3-22.6c4.4-6.5,9.9-12.1,16.2-16.8c4.7-3.5,9.6-6.7,15.3-8.8
						c0.3,3.2,0.5,6.3,0.8,9.4c0.3,3.4,0.5,6.7,0.8,10c0.1,1.1-0.3,1.8-1.2,2.4c-5.2,3.4-9.6,7.6-13.5,12.6
						c-4.4,5.7-6.8,12.1-8.8,18.9c-1.9,6.4-2.2,12.7-1,19.1c1.5,7.4,3.8,14.7,8.3,20.9c4.5,6.2,9.9,11.6,16.6,15.5
						c13.4,7.8,27.7,10.1,42.8,6.2c10.2-2.6,18.9-7.6,26.3-15.2c3.3-3.5,6-7.3,8.3-11.4c1.4-2.6,2.7-5.4,3.7-8.2
						c1-2.8,1.5-5.7,2.2-8.7c0.1,0.2,0.4,0.4,0.5,0.7c3.5,7,7.1,13.9,10.6,20.9c0.4,0.9,1.2,1.6,1.5,2.5c0.3,0.8,0.3,1.8,0,2.5
						c-0.4,0.9-1.2,1.7-1.7,2.6c-3.8,6.8-9,12.5-14.9,17.5c-12,9.9-25.7,16-41.2,17.8c-0.4,0.1-0.9,0.2-1.3,0.4c-5,0-10,0-15,0
						c-0.7-0.1-1.4-0.3-2.1-0.4c-14-1.7-26.6-6.9-37.8-15.5c-5.9-4.5-11.1-9.9-15.3-16c-4.8-6.9-8.4-14.6-10.4-22.8
						c-0.9-3.8-1.4-7.8-2-11.6C30.2,450.7,30.2,447.3,30.2,443.9z"/>
					<path class="st3" d="M30.2,454.1c0.7,3.9,1.1,7.8,2,11.6c2,8.2,5.6,15.9,10.4,22.8c4.2,6.1,9.4,11.5,15.3,16
						c11.2,8.6,23.8,13.8,37.8,15.5c0.7,0.1,1.4,0.3,2.1,0.4c-22.5,0-45.1,0-67.6,0C30.2,498.4,30.2,476.3,30.2,454.1z"/>
				</g>
			</g>
		</g>
		<polygon class="st4" points="269.5,596.5 269.5,523.5 -36.5,523.5 -36.5,596.5 -36.5,601.5 -36.5,633.5 547.5,633.5 547.5,596.5 
					"/>
		<polyline class="st5" points="206,533 261,533 261,597 		"/>
		<g id="_x32_D_Ramp">
			<g>
				<g>
					<line class="st5" x1="390" y1="398" x2="313.8" y2="487.5"/>
					<g>
						<polygon points="307.8,460.3 318.6,481.9 341.6,489.1 290.5,514.8 						"/>
					</g>
				</g>
			</g>
		</g>
		<circle class="st3" cx="253" cy="398" r="260.2"/>
	</g>
</g>
</svg>
