<?xml version="1.0" encoding="utf-8"?>
<!-- Generator: Adobe Illustrator 25.4.1, SVG Export Plug-In . SVG Version: 6.00 Build 0)  -->
<svg version="1.1" xmlns="http://www.w3.org/2000/svg" xmlns:xlink="http://www.w3.org/1999/xlink" x="0px" y="0px"
	 viewBox="-25 117 560 560" style="enable-background:new -25 117 560 560;" xml:space="preserve">
<style type="text/css">
	.st0{fill-rule:evenodd;clip-rule:evenodd;stroke:#000000;stroke-miterlimit:8;}
	.st1{opacity:0.8;fill-rule:evenodd;clip-rule:evenodd;fill:#FF0000;stroke:#FFFFFF;stroke-width:7;stroke-miterlimit:8;}
</style>
<g id="sidewalk">
	<polygon class="st0" points="-13.4,512.5 268.9,512.5 268.9,567.6 -13.4,567.6 -13.4,512.5 	"/>
</g>
<g id="person">
	<g>
		<path d="M62.9,339.1c-1.8,0-3.3,0-5.1,0c0,0.6,0,1.3,0,1.9c0,18.1,0,36.1,0,54.2c0,2.6,0,5.2,0,7.8c-0.1,5.3-3.8,9.5-9,10.1
			c-5.4,0.6-10.4-3.6-10.8-8.9c0-0.5,0-1.1,0-1.6c0-23.3,0-46.6,0-69.9c0-7.4,2.4-13.9,7.1-19.6c4.2-5,9.6-8.2,15.9-9.5
			c2.2-0.5,4.5-0.7,6.7-0.7c16.6-0.1,33.1,0,49.7,0c8.3,0,15.5,2.8,21.3,8.8c5.3,5.5,8.3,12.1,8.4,19.8c0.1,10.3,0,20.6,0,30.9
			c0,13.3,0,26.6,0,39.9c0,1,0,2-0.2,3c-1,4.9-5.4,8.3-10.2,7.9c-5.2-0.4-9.2-4.4-9.4-9.6c0-0.6,0-1.2,0-1.8c0-20.2,0-40.3,0-60.5
			c0-0.6,0-1.3,0-2.1c-1.7-0.1-3.3,0-5.1,0c0,0.7,0,1.3,0,1.8c0,9.3,0,18.6,0,27.9c0,49.2,0,98.3,0,147.5c0,1.5-0.1,3-0.4,4.5
			c-1.5,6.1-7.3,10.3-13.5,10c-6.3-0.3-11.7-4.9-12.7-11.2c-0.2-1.1-0.2-2.3-0.2-3.4c0-33.4,0-66.8,0-100.2c0-0.6,0-1.3,0-2
			c-1.9,0-3.6,0-5.5,0c0,0.7,0,1.3,0,2c0,33.4,0,66.8,0,100.2c0,1.4,0,2.8-0.3,4.2C88,526.6,82.4,531,76,530.8
			c-6.5-0.2-11.8-5-12.8-11.4c-0.2-1-0.2-2.1-0.2-3.1c0-58.2-0.1-116.4-0.1-174.7C62.9,340.8,62.9,340,62.9,339.1z"/>
		<path d="M115.3,273.8c0,12.7-10.1,22.9-22.8,22.9c-12.7,0-22.8-10.2-22.8-22.9c0-12.6,10.2-22.8,22.8-22.8
			C105.2,251.1,115.3,261.2,115.3,273.8z"/>
	</g>
</g>
<g id="car">
	<g>
		<path d="M524,462.2c0,22.5,0,45,0,67.5c-6.4,0-12.7,0-19.5,0c0,6.4,0.1,12.3,0,18.2c-0.2,11.7-7.1,19.3-17.4,19.1
			c-10.2-0.2-16.8-7.6-17-19c-0.1-6,0-12.1,0-18.3c-41.9,0-83.1,0-124.7,0c0,6.3,0,12.2,0,18.1c-0.1,13.2-7.3,18.7-18.7,19
			c-10.1,0.3-16.6-7.4-16.8-19c-0.1-6,0-12.1,0-18.2c-6.6,0-12.4,0-18.3,0c0-22.5,0-45,0-67.5c3.3-9.9,8.8-17.6,19.3-20.8
			c1.3-0.4,2.3-2.8,2.9-4.5c5.4-13.6,11-27.2,15.8-41c4.7-13.6,17.5-20.4,29.8-20.3c32.2,0.2,64.4,0,96.7,0.1
			c14.7,0,22.5,5.5,27.8,19.2c5.4,14,10.8,28.1,16.3,42c0.7,1.8,2,4.1,3.5,4.7C514,445.2,520.9,451.8,524,462.2z M332.3,440.4
			c50.3,0,99.9,0,150.2,0c-4.8-13-9.4-25.5-14-37.9c-2.8-7.5-5.1-9-13.2-9c-29.1,0-58.3,0-87.4,0c-17.3,0-16.8-1.4-23.2,16
			C340.8,419.6,336.6,429.7,332.3,440.4z M344.5,476.2c0.2-9.7-6.5-16.4-16.4-16.6c-9-0.2-15.9,6.5-16.1,15.7
			c-0.2,9.2,6.4,16.4,15.2,16.7C337,492.3,344.4,485.6,344.5,476.2z M502.6,475.7c0-9.1-6.9-16.1-15.7-16.1c-9.1,0-16,7.2-15.8,16.6
			c0.2,9,7.2,16,16,15.9C495.8,491.9,502.6,484.7,502.6,475.7z"/>
	</g>
</g>
<g id="cross">
	<polygon class="st1" points="58.4,442.3 89.3,411.1 162.9,483.9 236.6,411.1 267.5,442.3 194.2,514.7 267.5,587.1 236.6,618.4 
		162.9,545.6 89.3,618.4 58.4,587.1 131.7,514.7 58.4,442.3 	"/>
</g>
</svg>
