<svg xmlns="http://www.w3.org/2000/svg" viewBox="0 0 150 150"><defs><style>.cls-1,.cls-2{fill:#f6f5fa;}.cls-1{opacity:0.5;}.cls-3{fill:#d9d8e0;}.cls-4{fill:#78768c;}.cls-5{fill:#605e6e;}.cls-6{fill:#2d2a3f;}</style></defs><g id="图层_2" data-name="图层 2"><g id="图层_1-2" data-name="图层 1"><path class="cls-1" d="M31.71,95.24a4.08,4.08,0,0,0,2.55-.89l-.48.41a2,2,0,0,1-1.29.48Z"/><path class="cls-1" d="M69.44,64.34h0l4.27-3.65Zm-35.18,30,.12-.09L44.65,85.5h0ZM61.13,71.43v0l2.8-2.4ZM123.76,18,85,51.08,123.77,18Z"/><path class="cls-2" d="M150,75A75,75,0,0,1,6.66,106H31.71a4.1,4.1,0,0,0,2.66-1l16-13.63a36.7,36.7,0,0,0,3.17,2.36A38.69,38.69,0,0,0,87.81,98l-9.22-9.14a13.7,13.7,0,0,1-3.6.54,14.35,14.35,0,0,1-12.91-8.05l5.86-5a7.16,7.16,0,0,0,7,5.84A7.06,7.06,0,0,0,76.84,82l28,28a3.59,3.59,0,0,0,2.55,1h0a3.6,3.6,0,0,0,2.52-6.15l-28-28A7.36,7.36,0,0,0,82.19,75a7.16,7.16,0,0,0-4.74-6.75l5.86-5a14.58,14.58,0,0,1,1.86,1.57A14.37,14.37,0,0,1,89.39,75a13.7,13.7,0,0,1-.54,3.6l11.8,11.81a38.46,38.46,0,0,0,10-14.11,3.35,3.35,0,0,0,0-2.74,38.51,38.51,0,0,0-17.13-19l36.15-30.81A74.7,74.7,0,0,1,150,75Z"/><path class="cls-3" d="M31.71,95.24a4.08,4.08,0,0,0,2.55-.89l-.48.41a2,2,0,0,1-1.29.48Z"/><path class="cls-3" d="M120.46,15.35,79.6,50.05A38.64,38.64,0,0,0,62.18,52l7,7-2.78,2.36L45.16,40.06a3.61,3.61,0,0,0-5.11,5.11L60.85,66l-2.77,2.35-8.75-8.79a38.49,38.49,0,0,0-10,14.11,3.41,3.41,0,0,0,0,2.73,37.19,37.19,0,0,0,2.83,5.51L31.65,90.77a2,2,0,0,1-1.29.48H1.77a75,75,0,0,1,118.69-75.9Z"/><path class="cls-3" d="M34.26,94.35l10.39-8.86h0L34.38,94.26Z"/><path class="cls-3" d="M63.93,69.05l-2.8,2.4v0Z"/><polygon class="cls-3" points="73.72 60.7 69.45 64.35 69.44 64.34 73.72 60.7"/><path class="cls-4" d="M44.65,85.49,34.26,94.35a4.08,4.08,0,0,1-2.55.89H2.76q-.55-2-1-4H30.36a2,2,0,0,0,1.29-.48l10.47-8.89A34.87,34.87,0,0,0,44.65,85.49Z"/><path class="cls-4" d="M31.71,95.24a4.08,4.08,0,0,0,2.55-.89l-.48.41a2,2,0,0,1-1.29.48Z"/><path class="cls-4" d="M61.13,71.43s0,0,0,0l-3.06-3.08L60.85,66l3.08,3.08Z"/><path class="cls-4" d="M73.72,60.7l-4.28,3.64-3.06-3.06,2.78-2.36,2.24,2.23A13.21,13.21,0,0,1,73.72,60.7Z"/><path class="cls-4" d="M123.76,18,85,51.08h0a36.61,36.61,0,0,0-5.39-1l40.86-34.7C121.59,16.2,122.69,17.09,123.76,18Z"/><path class="cls-5" d="M50.36,91.34,34.37,105a4.1,4.1,0,0,1-2.66,1h-25c-.68-1.49-1.31-3-1.89-4.57-.75-2-1.42-4-2-6.14H32.49a2,2,0,0,0,1.29-.48l.48-.41.12-.09L44.65,85.5a35.7,35.7,0,0,0,2.76,3.13A37.88,37.88,0,0,0,50.36,91.34Z"/><path class="cls-5" d="M34.26,94.35l-.48.41a2,2,0,0,1-1.29.48h-.78A4.08,4.08,0,0,0,34.26,94.35Z"/><path class="cls-5" d="M67.8,75a6.09,6.09,0,0,0,.14,1.36l-5.86,5a14,14,0,0,1-1.3-4.12A13.79,13.79,0,0,1,60.6,75a13.32,13.32,0,0,1,.53-3.55l2.8-2.4,3,3L68,73.16A7.49,7.49,0,0,0,67.8,75Z"/><path class="cls-5" d="M83.31,63.26l-5.86,5A7,7,0,0,0,75,67.81a7.49,7.49,0,0,0-1.84.24l-3.7-3.7,4.27-3.65h0A10.67,10.67,0,0,1,75,60.61a14.54,14.54,0,0,1,8.32,2.65Z"/><path class="cls-5" d="M129.71,23.71,93.56,54.52c-.92-.52-1.86-1-2.82-1.41-.37-.17-.75-.33-1.13-.47A36.77,36.77,0,0,0,85,51.08L123.77,18c1.07.91,2.11,1.86,3.12,2.83S128.81,22.73,129.71,23.71Z"/><path class="cls-6" d="M110.69,76.3a38.46,38.46,0,0,1-10,14.11L88.85,78.6a13.7,13.7,0,0,0,.54-3.6,14.37,14.37,0,0,0-4.22-10.17,14.58,14.58,0,0,0-1.86-1.57A14.54,14.54,0,0,0,75,60.61a10.67,10.67,0,0,0-1.26.09h0a13.21,13.21,0,0,0-2.32.45l-2.24-2.23-7-7A38.64,38.64,0,0,1,79.6,50.05a36.61,36.61,0,0,1,5.39,1h0a36.77,36.77,0,0,1,4.61,1.56c.38.14.76.3,1.13.47,1,.43,1.9.89,2.82,1.41a38.51,38.51,0,0,1,17.13,19A3.35,3.35,0,0,1,110.69,76.3Z"/><path class="cls-6" d="M87.81,98a38.69,38.69,0,0,1-34.28-4.3,36.7,36.7,0,0,1-3.17-2.36,37.88,37.88,0,0,1-3-2.71,35.7,35.7,0,0,1-2.76-3.13h0a34.87,34.87,0,0,1-2.53-3.61,37.19,37.19,0,0,1-2.83-5.51,3.41,3.41,0,0,1,0-2.73,38.49,38.49,0,0,1,10-14.11l8.75,8.79,3.06,3.08s0,0,0,0v0A13.32,13.32,0,0,0,60.6,75a13.79,13.79,0,0,0,.18,2.23,14,14,0,0,0,1.3,4.12A14.35,14.35,0,0,0,75,89.4a13.7,13.7,0,0,0,3.6-.54Z"/><path class="cls-6" d="M111,107.39a3.58,3.58,0,0,1-3.58,3.6h0a3.59,3.59,0,0,1-2.55-1l-28-28A7.06,7.06,0,0,1,75,82.2a7.16,7.16,0,0,1-7-5.84A6.09,6.09,0,0,1,67.8,75,7.49,7.49,0,0,1,68,73.16L66.89,72l-3-3L40.05,45.17a3.61,3.61,0,0,1,5.11-5.11l28,28A7.49,7.49,0,0,1,75,67.81a7,7,0,0,1,2.46.44A7.16,7.16,0,0,1,82.19,75,7.36,7.36,0,0,1,82,76.84l28,28A3.58,3.58,0,0,1,111,107.39Z"/></g></g></svg>