<?xml version="1.0" encoding="UTF-8"?>
<svg id="Layer_2" data-name="Layer 2" xmlns="http://www.w3.org/2000/svg" viewBox="0 0 163 163">
  <defs>
    <style>
      .cls-1 {
        fill: #fff;
      }

      .cls-2 {
        fill: #2d2a3f;
      }

      .cls-3 {
        fill: #d9d8e0;
      }

      .cls-4 {
        fill: none;
        stroke: #fabf1c;
        stroke-miterlimit: 10;
        stroke-width: 13px;
      }
    </style>
  </defs>
  <g id="_图层_1" data-name="图层 1">
    <g>
      <path class="cls-3" d="M6.5,81.5h0c0,41.421,33.579,75,75,75h0c41.421,0,75-33.579,75-75h0c0-1.598-.067-3.18-.166-4.753H6.666c-.099,1.573-.166,3.155-.166,4.753Z"/>
      <path class="cls-1" d="M14.103,91.085l-5.88,6.46c-.46-2.12-.84-4.27-1.12-6.46h7Z"/>
      <path class="cls-1" d="M46.463,91.085l-28.11,30.9c-2.53-3.93-4.7-8.12-6.46-12.52l16.71-18.38h17.86Z"/>
      <path class="cls-1" d="M78.813,91.085l-41.3,45.41h-7c-1.97-1.82-3.84-3.75-5.6-5.77l36.04-39.64h17.86Z"/>
      <polygon class="cls-1" points="111.163 91.085 69.873 136.495 52.013 136.495 93.313 91.085 111.163 91.085"/>
      <path class="cls-1" d="M155.483,93.875c-2.61,15.76-10.13,29.85-20.95,40.66-.67.67-1.35,1.32-2.04,1.96h-15.77l38.76-42.62Z"/>
      <polygon class="cls-1" points="143.523 91.085 102.223 136.495 84.363 136.495 125.663 91.085 143.523 91.085"/>
      <path class="cls-2" d="M104.97,55.38c4.385,0,7.939-3.555,7.939-7.94s-3.554-7.94-7.939-7.94-7.94,3.555-7.94,7.94,3.554,7.94,7.94,7.94Z"/>
      <path class="cls-2" d="M93.602,113.785c-.477.413-.964.805-1.462,1.176-1.514,1.133-3.167,2.097-4.925,2.859-3.05,1.345-6.429,2.076-9.976,2.076-1.281,0-2.521-.085-3.749-.275-1.62-.244-3.188-.635-4.692-1.186-1.737-.625-3.4-1.44-4.935-2.425-1.514-.953-2.902-2.065-4.162-3.315-1.896-1.864-3.484-4.035-4.702-6.429-.922-1.8-1.631-3.717-2.087-5.74-.413-1.79-.625-3.654-.625-5.571,0-6.259,2.309-11.978,6.121-16.363l5.984,5.984c-1.61,1.991-2.764,4.353-3.304,6.958-.244,1.091-.36,2.224-.36,3.4,0,.974.085,1.928.254,2.859.583,3.336,2.161,6.323,4.416,8.631.953.996,2.044,1.853,3.22,2.584,1.981,1.228,4.236,2.033,6.651,2.309.646.085,1.313.127,1.98.127.625,0,1.25-.032,1.864-.106,3.198-.349,6.111-1.631,8.494-3.548l4.575,4.565,1.027,1.027.392.402Z"/>
      <path class="cls-2" d="M115.853,106.371v.54c0,2.065-1.695,3.77-3.77,3.77h-9.69c-1.303,0-3.05-1.228-3.548-3.241-.784,1.334-1.673,2.584-2.669,3.749l-5.994-5.994c1.97-2.489,3.251-5.56,3.527-8.907.032-.445.053-.9.053-1.356,0-1.207-.127-2.394-.381-3.527-1.61-7.424-8.218-12.984-16.13-12.984-3.887,0-7.445,1.334-10.262,3.58l-5.984-5.984c3.558-3.061,7.996-5.136,12.878-5.793l10.93-12.455-6.651-3.855-8.038,7.17c-.911.805-2.033,1.207-3.156,1.207-1.303,0-2.605-.54-3.548-1.589-1.748-1.959-1.567-4.956.381-6.704l10.612-9.457c.89-.794,2.023-1.207,3.167-1.207.816,0,1.631.212,2.373.646,0,0,21.721,12.613,21.753,12.645,1.123.688,1.864,1.79,2.118,2.997.508,1.758.127,3.728-1.165,5.2l-9.108,10.368,16.543-.921c.095-.011.18-.011.265-.011,1.271,0,2.51.519,3.4,1.44.953.974,1.44,2.33,1.324,3.696l-5.549,23.204h1.059c.55,0,1.175.117,1.811.339.635.222,1.271.53,1.822.921.943.667,1.631,1.546,1.631,2.51Z"/>
      <rect class="cls-4" x="6.5" y="6.5" width="150" height="150" rx="75" ry="75"/>
    </g>
  </g>
</svg>