<svg xmlns="http://www.w3.org/2000/svg" viewBox="0 0 150 150"><defs><style>.cls-1{fill:#f6f5fa;}.cls-2{fill:#d9d8e0;}.cls-3{fill:#fff;}.cls-4{fill:#2d2a3f;}</style></defs><g id="图层_2" data-name="图层 2"><g id="图层_1-2" data-name="图层 1"><rect class="cls-1" width="150" height="150" rx="75"/><path class="cls-2" d="M0,75H0a75,75,0,0,0,75,75h0a75,75,0,0,0,75-75h0c0-1.6-.07-3.18-.17-4.75H.17C.07,71.82,0,73.4,0,75Z"/><path class="cls-3" d="M7.6,84.58,1.72,91C1.26,88.93.88,86.77.6,84.58Z"/><path class="cls-3" d="M40,84.58l-28.11,30.9A73.7,73.7,0,0,1,5.39,103L22.1,84.58Z"/><path class="cls-3" d="M72.31,84.58,31,130H24a74.37,74.37,0,0,1-5.6-5.77l36-39.65Z"/><polygon class="cls-3" points="104.66 84.58 63.37 130 45.51 130 86.81 84.58 104.66 84.58"/><path class="cls-3" d="M149,87.38A74.63,74.63,0,0,1,128,128c-.67.68-1.35,1.32-2,2H110.22Z"/><polygon class="cls-3" points="137.02 84.58 95.72 130 77.86 130 119.16 84.58 137.02 84.58"/><path class="cls-4" d="M98.47,48.88a7.94,7.94,0,1,0-7.94-7.94A7.94,7.94,0,0,0,98.47,48.88Z"/><path class="cls-4" d="M87.1,107.28c-.47.42-1,.81-1.46,1.18A25,25,0,0,1,67,113.12a23.71,23.71,0,0,1-4.69-1.19,24.6,24.6,0,0,1-4.94-2.42,24.26,24.26,0,0,1-4.16-3.32,24.93,24.93,0,0,1-1.29-34.1l6,6a16.29,16.29,0,0,0-3.3,7,15.21,15.21,0,0,0-.36,3.4,15.85,15.85,0,0,0,.25,2.86,16.64,16.64,0,0,0,7.64,11.22,16.58,16.58,0,0,0,8.63,2.43,16.38,16.38,0,0,0,10.36-3.65l4.57,4.56,1,1Z"/><path class="cls-4" d="M109.35,99.87v.54a3.78,3.78,0,0,1-3.77,3.77H95.89a4.14,4.14,0,0,1-3.55-3.24,26.18,26.18,0,0,1-2.66,3.75l-6-6a16.57,16.57,0,0,0,3.53-8.91c0-.45.05-.9.05-1.36A16.51,16.51,0,0,0,60.49,75.5l-6-6a24.78,24.78,0,0,1,12.88-5.79L78.31,51.27l-6.65-3.85-8,7.17A4.75,4.75,0,0,1,57.3,47.5L67.91,38a4.76,4.76,0,0,1,3.17-1.2,4.72,4.72,0,0,1,2.37.64S95.17,50.09,95.2,50.13a4.61,4.61,0,0,1,2.12,3,5.54,5.54,0,0,1-1.16,5.2L87.05,68.69l16.54-.92h.27a4.74,4.74,0,0,1,4.72,5.14L103,96.1h1.06a5.69,5.69,0,0,1,1.81.34,7.24,7.24,0,0,1,1.82.92A3.32,3.32,0,0,1,109.35,99.87Z"/></g></g></svg>