<svg xmlns="http://www.w3.org/2000/svg" viewBox="0 0 150 150"><defs><style>.cls-1{fill:#f6f5fa;}.cls-2{fill:#d9d8e0;}.cls-3{fill:#605e6e;}.cls-4{fill:#78768c;}.cls-5{fill:#2d2a3f;}.cls-6,.cls-7{fill:none;}.cls-6{stroke:#2d2a3f;stroke-linecap:round;stroke-miterlimit:10;stroke-width:2px;}</style></defs><g id="图层_2" data-name="图层 2"><g id="图层_1-2" data-name="图层 1"><path class="cls-1" d="M150,75q0,2.85-.21,5.64a73.31,73.31,0,0,1-1.19,8.85,74.78,74.78,0,0,1-67.07,60.22c-2.15.2-4.33.29-6.53.29a74.94,74.94,0,0,1-63.37-34.87,74.15,74.15,0,0,1-5-9.29q-1.37-3-2.46-6.19s0,0,0,0A75,75,0,0,1,139.7,37.06a3.38,3.38,0,0,1,.24.41q1.51,2.6,2.81,5.32a73.9,73.9,0,0,1,3.78,9.6A74.72,74.72,0,0,1,150,75Z"/><path class="cls-2" d="M91.59,148.16a74.18,74.18,0,0,1-10.06,1.55L50.1,112.8l-7.44-8.75-4.5-5.28-.07-.08-4.18-4.91,8-3.2,5.68,6.58.1.13,4.35,5,7.36,8.54Z"/><path class="cls-2" d="M149.79,80.64a73.31,73.31,0,0,1-1.19,8.85L122.39,77.28l-7.23-3.37-2.46-1.15L106.79,70l-.47-.22-6-2.78-6.33-3,6-6.24L113.49,64l.49.23,5.65,2.59,9.4,4.3Z"/><path class="cls-3" d="M146.53,52.39,135.08,65.13c-1.72,1.72-3.73,3.75-6.05,6-2,1.92-4.19,4-6.64,6.16-2.87,2.54-6,5.2-9.58,7.89a145.16,145.16,0,0,1-38.32,21.12,138.74,138.74,0,0,1-15.07,4.57Q54.9,112,50.1,112.8a155.64,155.64,0,0,1-26.93,2.29l-11.54,0a74.15,74.15,0,0,1-5-9.29q-1.37-3-2.46-6.19s0,0,0,0a75,75,0,0,1,26.35-85h89a75.24,75.24,0,0,1,20.2,22.43,3.38,3.38,0,0,1,.24.41q1.51,2.6,2.81,5.32A73.9,73.9,0,0,1,146.53,52.39Z"/><path class="cls-4" d="M142.75,42.79,131,55.83c-2.92,2.92-6.7,6.75-11.4,11-2.12,1.91-4.42,3.9-6.93,5.94a144.89,144.89,0,0,1-51.79,27.33c-2.86.82-5.81,1.57-8.85,2.23s-6.17,1.25-9.4,1.73a156.27,156.27,0,0,1-23.54,1.74l-12.51,0q-1.37-3-2.46-6.19s0,0,0,0l19.16-.06a122.38,122.38,0,0,0,14.78-.89c3.25-.39,6.42-.91,9.52-1.53,24.54-4.91,44.49-16.53,58.71-27.37,2.58-2,5-3.91,7.17-5.79,3.93-3.33,7.23-6.45,9.87-9.09L139.7,37.06a3.38,3.38,0,0,1,.24.41Q141.45,40.07,142.75,42.79Z"/><path class="cls-2" d="M139.94,37.47,124.11,54.91c-2.7,2.7-6.09,5.89-10.13,9.32-2.21,1.87-4.61,3.81-7.19,5.78C92.46,80.88,72.38,92.48,47.71,97.29c-3.11.61-6.29,1.11-9.55,1.48a122,122,0,0,1-14.1.81h-.75l-19.16.07s0,0,0,0A75,75,0,0,1,139.7,37.06,3.38,3.38,0,0,1,139.94,37.47Z"/><path class="cls-5" d="M57.78,68.44c-1.09.55-.32,2.33,1.44,2.65L80.71,75c.82.15,1.45-.17,1.54-.78l2.19-15.84c.18-1.29-1.89-2.41-3-1.86l-7.19,3.63L57.17,42.65a3.79,3.79,0,0,0-4.1-1L48,44.24c-1.13.57-1.26,1.93-.11,3.11L65,64.81Z"/><line class="cls-6" x1="71.75" y1="85.8" x2="63.95" y2="84.38"/><line class="cls-6" x1="66.61" y1="97.34" x2="60.09" y2="100.49"/><line class="cls-6" x1="76.45" y1="102.93" x2="72.73" y2="109.32"/><line class="cls-6" x1="90.85" y1="102.63" x2="92.76" y2="109.32"/><line class="cls-6" x1="104.2" y1="94.73" x2="108.99" y2="100.39"/><line class="cls-6" x1="112.46" y1="85.09" x2="120.26" y2="86.87"/><line class="cls-6" x1="110.27" y1="76.72" x2="116.83" y2="72.95"/><line class="cls-6" x1="98.38" y1="72.44" x2="101.04" y2="65.16"/><path class="cls-7" d="M150,75q0,2.85-.21,5.64a73.31,73.31,0,0,1-1.19,8.85,74.78,74.78,0,0,1-67.07,60.22c-2.15.2-4.33.29-6.53.29a74.94,74.94,0,0,1-63.37-34.87,74.15,74.15,0,0,1-5-9.29q-1.37-3-2.46-6.19s0,0,0,0A75,75,0,0,1,139.7,37.06a3.38,3.38,0,0,1,.24.41q1.51,2.6,2.81,5.32a73.9,73.9,0,0,1,3.78,9.6A74.72,74.72,0,0,1,150,75Z"/></g></g></svg>