<?xml version="1.0" encoding="UTF-8"?>
<svg id="Layer_2" data-name="Layer 2" xmlns="http://www.w3.org/2000/svg" viewBox="0 0 158 158">
  <defs>
    <style>
      .cls-1 {
        fill: #c5c4d1;
      }

      .cls-2 {
        fill: #605e6e;
      }

      .cls-3 {
        fill: #78768c;
      }

      .cls-4 {
        fill: none;
        stroke: #90c31f;
        stroke-miterlimit: 10;
        stroke-width: 8px;
      }

      .cls-5 {
        fill: #adabba;
      }

      .cls-6 {
        fill: #2d2a3f;
      }

      .cls-7 {
        fill: #d9d8e0;
      }

      .cls-8 {
        fill: #f6f5fa;
      }
    </style>
  </defs>
  <g id="_图层_1" data-name="图层 1">
    <g>
      <path class="cls-8" d="M154,79c0,1.9-.07,3.78-.21,5.64-.22,3.01-.62,5.96-1.19,8.85-2.91,14.9-10.24,28.22-20.57,38.55-9.83,9.83-22.39,16.95-36.44,20.12-3.28.74-6.64,1.26-10.06,1.55-2.15.2-4.33.29-6.53.29-27,0-50.66-14.26-63.87-35.67-1.52-2.45-2.89-4.99-4.12-7.62-.05-.1-.09-.2-.14-.3-.02-.05-.05-.11-.07-.16-.89-1.94-1.7-3.92-2.42-5.94-2.84-7.9-4.38-16.42-4.38-25.31,0-20.71,8.39-39.46,21.97-53.03C39.54,12.4,58.29,4,79,4s39.46,8.4,53.03,21.97c4.55,4.55,8.52,9.68,11.78,15.28,1.09,1.85,2.1,3.76,3.02,5.71.04.08.08.16.11.24,1.25,2.66,2.34,5.4,3.27,8.21,2.46,7.42,3.79,15.35,3.79,23.59Z"/>
      <path class="cls-7" d="M95.59,152.16c-3.28.74-6.64,1.26-10.06,1.55l-33.27-39.08-4.3-5.04-.01-.01-2-2.36-2.4-2.82-.13-.15-5.51-6.47,8.02-3.2,7.91,9.18.24.27,1.11,1.29,3.11,3.6.01.02,3.16,3.65,34.12,39.57Z"/>
      <path class="cls-7" d="M153.79,84.64c-.22,3.01-.62,5.96-1.19,8.85l-25.65-11.95-1.23-.58-.06-.03-7.21-3.35-.05-.03h-.01l-20.36-9.49,5.97-6.24,18.76,8.6h.01l2.28,1.05,4.68,2.14.05.02,3.25,1.49,20.76,9.52Z"/>
      <g>
        <path class="cls-7" d="M146.94,47.2c-2.95,3.29-5.89,6.58-8.82,9.88l-.14.16c-2.04,2.29-4.07,4.58-6.09,6.88-2.22,2.52-4.49,4.99-6.84,7.35-2.12,2.13-4.31,4.17-6.6,6.11-.05.04-.1.08-.15.12q-.01.01-.02.02c-1.61,1.36-3.27,2.65-4.99,3.88-1.75,1.25-3.55,2.42-5.44,3.52-12.49,7.25-25.6,12.68-39.19,16.69-1.33.4-2.66.78-4,1.14-.19.06-.39.11-.59.16-2.94.8-5.9,1.53-8.88,2.21-3.06.69-6.14,1.33-9.24,1.9-1.65.31-3.31.6-4.98.88-.83.14-1.65.27-2.48.39-2.83.42-5.67.78-8.51,1.07-2.51.27-5.03.49-7.56.66-.79.05-1.59.1-2.38.14-3.01.18-6.02.29-9.03.35-.05-.1-.09-.2-.14-.3-.02-.05-.05-.11-.07-.16-.89-1.94-1.7-3.92-2.42-5.94-2.84-7.9-4.38-16.42-4.38-25.31,0-20.71,8.39-39.46,21.97-53.03C39.54,12.4,58.29,4,79,4s39.46,8.4,53.03,21.97c4.55,4.55,8.52,9.68,11.78,15.28,1.09,1.85,2.1,3.76,3.02,5.71.04.08.08.16.11.24Z"/>
        <path class="cls-2" d="M123.36,85h.01l-.02.02s0-.01.01-.02Z"/>
        <path class="cls-2" d="M150.21,55.41c-2.81,3.17-5.26,5.97-6.9,7.93-4,4.78-7.44,8.68-10.28,11.78-2.5,2.74-4.54,4.86-6.08,6.42-2.2,2.22-3.41,3.31-3.58,3.46v-.01c.02-.04.07-.12.14-.24.32-.57,1.13-2.01,2.15-3.82,1.22-2.18,2.75-4.91,4.07-7.32.52-.92,1-1.79,1.43-2.57.15-.27.29-.55.44-.83.05-.09.1-.18.15-.27.16-.3.32-.59.45-.84.28-.53.65-1.26,1.07-2.11.16-.33.33-.65.48-.96,1.65-3.37,3.75-7.79,4.16-8.64.05-.1.07-.15.07-.15l.14-.16,8.71-10.12c.04.08.08.16.11.24,1.25,2.66,2.34,5.4,3.27,8.21Z"/>
        <path class="cls-3" d="M146.83,46.96l-8.71,10.12-.14.16h-8.55l14.38-15.99c1.09,1.85,2.1,3.76,3.02,5.71Z"/>
        <path class="cls-3" d="M30.95,104.23l-.97,5.33-.11.64-.02.11-9.81.05-9.17.05c-.02-.05-.05-.11-.07-.16-.89-1.94-1.7-3.92-2.42-5.94l22.57-.08Z"/>
        <path class="cls-1" d="M81.598,59.155l-33.014,16.312,20.602,27.04,1.133.787c15.409-4.993,30.968-11.695,44.634-20.513l-33.355-23.627Z"/>
        <path class="cls-1" d="M114.953,82.782h0c-14.284,8.159-25.978,12.794-45.767,19.726l7.316,5.08s10.934-3.863,23.806-10.064c12.894-6.211,23.047-12.507,23.047-12.507l-8.402-2.236Z"/>
        <path class="cls-3" d="M114.953,82.782s4.705-6.886,8.103-12.861c3.398-5.975,6.377-12.678,6.377-12.678h8.544s-2.635,5.871-6.374,12.966c-4.725,8.968-8.249,14.809-8.249,14.809l-8.402-2.236Z"/>
        <path class="cls-5" d="M129.434,57.243l-47.836,1.912,33.355,23.627s4.381-6.38,8.402-13.379c3.775-6.572,6.079-12.159,6.079-12.159Z"/>
        <path class="cls-5" d="M30.953,104.233l17.631-28.766,20.602,27.04s-10.541,1.381-19.004,1.741c-8.715.37-19.229-.015-19.229-.015Z"/>
        <path class="cls-3" d="M76.502,107.588l-7.316-5.08s-5.028.603-17.475,1.379c-11.736.731-20.758.347-20.758.347l-1.101,6.073s11.671-.255,23.339-1.041c11.668-.787,23.31-1.678,23.31-1.678Z"/>
        <path class="cls-2" d="M76.5,107.59s-4.94,2.45-15.03,5c-2.7.69-5.77,1.39-9.21,2.04-8.76,1.68-19.93,3.12-33.58,3.59-1.11.04-2.3.08-3.55.11-1.52-2.45-2.89-4.99-4.12-7.62-.05-.1-.09-.2-.14-.3-.02-.05-.05-.11-.07-.16,4.19-.02,8.09-.03,11.62-.03,2.72-.02,5.22-.02,7.45-.02h.79c2.44,0,5.39-.08,8.61-.2.59-.03,1.18-.05,1.78-.08,1.17-.05,2.36-.11,3.57-.16.04-.01.08-.01.12-.01,1.06-.06,2.13-.11,3.21-.17,1.14-.07,2.3-.13,3.45-.2,1.03-.07,2.06-.13,3.08-.19,1.3-.08,2.58-.17,3.83-.25,7.37-.5,13.8-1,16.64-1.23.14-.01.28-.02.4-.03.12-.01.24-.02.34-.03h.02c.17-.01.31-.02.43-.03.1-.01.17-.01.23-.02.09-.01.13-.01.13-.01Z"/>
        <g>
          <path class="cls-6" d="M65.365,88.907c-.651.287-.986.759-.748,1.055.24.298.969.306,1.627.015s.99-.767.743-1.062c-.246-.293-.971-.296-1.622-.009Z"/>
          <path class="cls-6" d="M69.971,86.873c-.651.287-.974.754-.722,1.044.254.292.996.294,1.654.003s.978-.762.716-1.05c-.26-.286-.998-.284-1.648.003Z"/>
          <path class="cls-6" d="M74.576,84.839c-.651.287-.962.749-.695,1.032.269.285,1.022.282,1.681-.009s.966-.756.689-1.038c-.275-.28-1.024-.272-1.675.015Z"/>
          <path class="cls-6" d="M79.181,82.805c-.651.287-.951.744-.668,1.02.284.279,1.049.27,1.708-.021.658-.291.954-.751.662-1.026-.29-.273-1.051-.261-1.702.027Z"/>
          <path class="cls-6" d="M83.787,80.77c-.651.287-.939.738-.642,1.008.299.272,1.076.258,1.735-.033.658-.291.942-.746.635-1.014-.304-.267-1.077-.249-1.728.038Z"/>
          <path class="cls-6" d="M88.392,78.736c-.651.287-.927.733-.615.997.314.265,1.103.246,1.762-.045s.93-.74.608-1.002c-.319-.26-1.104-.237-1.755.05Z"/>
          <path class="cls-6" d="M92.997,76.702c-.651.287-.915.728-.588.985.329.259,1.13.234,1.788-.056s.918-.735.581-.99c-.334-.254-1.131-.225-1.781.062Z"/>
          <path class="cls-6" d="M98.856,75.572c.658-.291.906-.729.554-.978-.349-.247-1.158-.214-1.808.074s-.903.723-.562.973c.343.252,1.157.222,1.816-.068Z"/>
          <path class="cls-6" d="M67.085,91.002c-.666.294-1.004.782-.755,1.092.251.312,1.001.325,1.674.028s1.008-.79.75-1.099c-.257-.306-1.004-.315-1.669-.021Z"/>
          <path class="cls-6" d="M71.795,88.922c-.665.294-.992.777-.727,1.08.266.305,1.029.313,1.703.015s.996-.785.722-1.086c-.272-.3-1.031-.303-1.697-.009Z"/>
          <path class="cls-6" d="M76.505,86.841c-.666.294-.979.771-.699,1.067.282.298,1.057.3,1.731.003s.983-.779.693-1.074c-.288-.293-1.059-.291-1.725.003Z"/>
          <path class="cls-6" d="M81.215,84.76c-.665.294-.967.766-.672,1.055.297.291,1.086.288,1.759-.01s.97-.773.665-1.061c-.303-.286-1.087-.278-1.753.016Z"/>
          <path class="cls-6" d="M85.925,82.68c-.666.294-.954.76-.644,1.043.313.285,1.114.276,1.787-.022s.958-.768.637-1.049c-.319-.279-1.115-.266-1.78.028Z"/>
          <path class="cls-6" d="M90.636,80.599c-.665.294-.942.755-.616,1.03.328.278,1.142.263,1.815-.034s.945-.762.609-1.036c-.334-.272-1.143-.254-1.808.04Z"/>
          <path class="cls-6" d="M95.346,78.518c-.665.294-.93.749-.588,1.018.344.271,1.17.251,1.844-.047s.932-.757.581-1.024c-.349-.266-1.171-.241-1.836.053Z"/>
          <path class="cls-6" d="M100.056,76.438c-.666.294-.917.744-.56,1.006.359.264,1.198.238,1.872-.059s.92-.751.552-1.011c-.365-.259-1.199-.229-1.864.065Z"/>
          <path class="cls-6" d="M68.884,93.195c-.681.301-1.023.806-.762,1.131.263.327,1.035.347,1.725.042.689-.304,1.027-.815.756-1.138-.269-.321-1.038-.336-1.719-.035Z"/>
          <path class="cls-6" d="M73.704,91.066c-.681.301-1.01.8-.733,1.118.279.32,1.065.333,1.754.029s1.014-.809.727-1.125c-.285-.314-1.067-.323-1.748-.022Z"/>
          <path class="cls-6" d="M78.524,88.936c-.681.301-.997.795-.704,1.105.295.312,1.095.32,1.784.016s1.001-.803.697-1.112c-.301-.307-1.096-.31-1.777-.009Z"/>
          <path class="cls-6" d="M83.344,86.807c-.681.301-.984.789-.674,1.092.311.305,1.124.307,1.813.003s.987-.797.668-1.099c-.318-.3-1.126-.297-1.807.004Z"/>
          <path class="cls-6" d="M88.164,84.678c-.681.301-.971.783-.645,1.079.328.298,1.154.294,1.843-.01s.974-.791.638-1.086c-.334-.292-1.155-.284-1.836.017Z"/>
          <path class="cls-6" d="M92.984,82.549c-.681.301-.958.777-.616,1.066.344.291,1.183.281,1.872-.023s.961-.786.608-1.073c-.35-.285-1.184-.271-1.865.029Z"/>
          <path class="cls-6" d="M97.804,80.42c-.681.301-.945.772-.587,1.054.36.284,1.213.268,1.902-.036s.948-.78.579-1.06c-.366-.278-1.213-.258-1.894.042Z"/>
          <path class="cls-6" d="M102.624,78.291c-.681.301-.932.766-.558,1.041.377.277,1.242.255,1.932-.049s.934-.774.549-1.047c-.382-.271-1.242-.245-1.923.055Z"/>
          <path class="cls-6" d="M70.77,95.491c-.697.308-1.042.832-.769,1.172.275.343,1.072.37,1.778.058s1.046-.841.762-1.18c-.282-.336-1.075-.358-1.772-.05Z"/>
          <path class="cls-6" d="M75.704,93.312c-.697.308-1.028.826-.738,1.159.292.335,1.103.356,1.809.044s1.033-.835.731-1.166c-.299-.329-1.105-.345-1.802-.037Z"/>
          <path class="cls-6" d="M80.639,91.132c-.697.308-1.015.82-.707,1.145.31.328,1.134.342,1.84.03s1.019-.829.7-1.153c-.316-.322-1.136-.331-1.833-.023Z"/>
          <path class="cls-6" d="M85.574,88.952c-.697.308-1.001.814-.677,1.132.327.32,1.165.328,1.871.017s1.005-.823.669-1.139c-.333-.314-1.167-.317-1.864-.01Z"/>
          <path class="cls-6" d="M90.509,86.772c-.697.308-.987.808-.646,1.118.344.313,1.196.315,1.902.003s.991-.816.638-1.125c-.35-.307-1.197-.304-1.894.004Z"/>
          <path class="cls-6" d="M95.444,84.592c-.697.308-.974.802-.616,1.105.361.305,1.227.301,1.933-.011s.977-.81.607-1.111c-.367-.299-1.228-.29-1.925.018Z"/>
          <path class="cls-6" d="M100.379,82.412c-.697.308-.96.796-.585,1.091.378.298,1.258.287,1.964-.024s.963-.804.576-1.098c-.384-.292-1.258-.277-1.955.031Z"/>
          <path class="cls-6" d="M105.314,80.232c-.697.308-.947.79-.555,1.078.395.29,1.289.274,1.995-.038s.949-.798.546-1.084c-.401-.284-1.289-.263-1.986.045Z"/>
          <path class="cls-6" d="M72.747,97.901c-.714.316-1.062.859-.775,1.216.289.36,1.111.394,1.835.075s1.066-.869.768-1.225c-.296-.353-1.114-.382-1.828-.067Z"/>
          <path class="cls-6" d="M77.803,95.667c-.714.315-1.048.853-.743,1.202.307.352,1.144.38,1.867.06s1.052-.862.736-1.21c-.314-.345-1.146-.368-1.86-.052Z"/>
          <path class="cls-6" d="M82.858,93.434c-.714.316-1.033.846-.711,1.188.325.344,1.176.366,1.9.046.723-.32,1.037-.856.703-1.196-.332-.338-1.178-.354-1.892-.038Z"/>
          <path class="cls-6" d="M87.914,91.201c-.714.315-1.019.84-.679,1.174.343.336,1.209.351,1.932.032.723-.32,1.023-.85.671-1.182-.35-.33-1.21-.34-1.924-.024Z"/>
          <path class="cls-6" d="M92.969,88.968c-.714.316-1.005.834-.646,1.16.361.328,1.241.337,1.965.017s1.008-.843.638-1.167c-.367-.322-1.242-.325-1.956-.01Z"/>
          <path class="cls-6" d="M98.024,86.735c-.714.315-.99.827-.614,1.145.379.32,1.274.322,1.997.003s.993-.837.606-1.153c-.385-.314-1.274-.311-1.989.004Z"/>
          <path class="cls-6" d="M103.08,84.502c-.714.315-.976.821-.582,1.131.396.312,1.307.308,2.03-.011.723-.32.979-.83.573-1.138-.403-.306-1.306-.297-2.021.019Z"/>
          <path class="cls-6" d="M108.135,82.268c-.714.316-.962.815-.55,1.117.414.304,1.339.294,2.063-.026s.964-.824.541-1.124c-.421-.298-1.339-.283-2.053.033Z"/>
        </g>
      </g>
      <path class="cls-4" d="M154,79c0,1.9-.07,3.78-.21,5.64-.22,3.01-.62,5.96-1.19,8.85-2.91,14.9-10.24,28.22-20.57,38.55-9.83,9.83-22.39,16.95-36.44,20.12-3.28.74-6.64,1.26-10.06,1.55-2.15.2-4.33.29-6.53.29-27,0-50.66-14.26-63.87-35.67-1.52-2.45-2.89-4.99-4.12-7.62-.05-.1-.09-.2-.14-.3-.02-.05-.05-.11-.07-.16-.89-1.94-1.7-3.92-2.42-5.94-2.84-7.9-4.38-16.42-4.38-25.31,0-20.71,8.39-39.46,21.97-53.03C39.54,12.4,58.29,4,79,4s39.46,8.4,53.03,21.97c4.55,4.55,8.52,9.68,11.78,15.28,1.09,1.85,2.1,3.76,3.02,5.71.04.08.08.16.11.24,1.25,2.66,2.34,5.4,3.27,8.21,2.46,7.42,3.79,15.35,3.79,23.59Z"/>
    </g>
  </g>
</svg>