<svg xmlns="http://www.w3.org/2000/svg" viewBox="0 0 150 150"><defs><style>.cls-1{fill:#f6f5fa;}.cls-2{fill:#d9d8e0;}.cls-3{fill:#605e6e;}.cls-4{fill:#78768c;}.cls-5{fill:#c5c4d1;}.cls-6{fill:#adabba;}.cls-7{fill:#2d2a3f;}.cls-8{fill:none;}</style></defs><g id="图层_2" data-name="图层 2"><g id="图层_1-2" data-name="图层 1"><path class="cls-1" d="M150,75q0,2.85-.21,5.64a73.31,73.31,0,0,1-1.19,8.85,74.78,74.78,0,0,1-67.07,60.22c-2.15.2-4.33.29-6.53.29a74.94,74.94,0,0,1-63.87-35.67A73.48,73.48,0,0,1,7,106.71l-.14-.3-.07-.16q-1.33-2.91-2.42-5.94A75,75,0,0,1,139.81,37.25c1.09,1.85,2.1,3.76,3,5.71a2.56,2.56,0,0,1,.11.24,73.86,73.86,0,0,1,3.27,8.21A74.83,74.83,0,0,1,150,75Z"/><path class="cls-2" d="M91.59,148.16a74.18,74.18,0,0,1-10.06,1.55L48.26,110.63l-4.3-5h0l-2-2.36-2.4-2.82-.13-.15-5.51-6.47,8-3.2,7.91,9.18.24.27,1.11,1.29,3.11,3.6v0l3.16,3.65Z"/><path class="cls-2" d="M149.79,80.64a73.31,73.31,0,0,1-1.19,8.85L123,77.54,121.72,77l-.06,0-7.21-3.35,0,0h0L94,64.06l6-6.24,18.76,8.6h0l2.28,1,4.68,2.14,0,0L129,71.12Z"/><path class="cls-2" d="M142.94,43.2q-4.42,4.94-8.82,9.88l-.14.16q-3.06,3.43-6.09,6.88c-2.22,2.52-4.49,5-6.84,7.35-2.12,2.13-4.31,4.17-6.6,6.11l-.15.12,0,0q-2.41,2-5,3.88c-1.75,1.25-3.55,2.42-5.44,3.52A177.9,177.9,0,0,1,64.66,97.81c-1.33.4-2.66.78-4,1.14l-.59.16c-2.94.8-5.9,1.53-8.88,2.21s-6.14,1.33-9.24,1.9c-1.65.31-3.31.6-5,.88-.83.14-1.65.27-2.48.39q-4.25.63-8.51,1.07-3.77.41-7.56.66l-2.38.14c-3,.18-6,.29-9,.35l-.14-.3-.07-.16q-1.33-2.91-2.42-5.94A75,75,0,0,1,139.81,37.25c1.09,1.85,2.1,3.76,3,5.71A2.56,2.56,0,0,1,142.94,43.2Z"/><path class="cls-3" d="M119.36,81h0l0,0Z"/><path class="cls-3" d="M146.21,51.41c-2.81,3.17-5.26,6-6.9,7.93-4,4.78-7.44,8.68-10.28,11.78-2.5,2.74-4.54,4.86-6.08,6.42-2.2,2.22-3.41,3.31-3.58,3.46h0l.14-.24,2.15-3.82c1.22-2.18,2.75-4.91,4.07-7.32.52-.92,1-1.79,1.43-2.57.15-.27.29-.55.44-.83l.15-.27.45-.84c.28-.53.65-1.26,1.07-2.11.16-.33.33-.65.48-1,1.65-3.37,3.75-7.79,4.16-8.64l.07-.15.14-.16L142.83,43a2.56,2.56,0,0,1,.11.24A73.86,73.86,0,0,1,146.21,51.41Z"/><path class="cls-4" d="M142.83,43l-8.71,10.12-.14.16h-8.55l14.38-16C140.9,39.1,141.91,41,142.83,43Z"/><path class="cls-4" d="M27,100.23l-1,5.33-.11.64,0,.11-9.81,0-9.17,0-.07-.16q-1.33-2.91-2.42-5.94Z"/><path class="cls-5" d="M77.6,55.15l-33,16.32,20.61,27,1.13.78c15.41-5,31-11.69,44.63-20.51Z"/><path class="cls-5" d="M111,78.78h0c-14.28,8.16-26,12.8-45.76,19.73l7.31,5.08s10.94-3.87,23.81-10.07,23-12.5,23-12.5Z"/><path class="cls-4" d="M111,78.78s4.71-6.88,8.11-12.86,6.37-12.68,6.37-12.68H134s-2.64,5.87-6.38,13c-4.72,9-8.25,14.81-8.25,14.81Z"/><path class="cls-6" d="M125.43,53.24,77.6,55.16,111,78.78s4.38-6.38,8.4-13.38A115,115,0,0,0,125.43,53.24Z"/><path class="cls-6" d="M27,100.23,44.58,71.47l20.61,27s-10.54,1.38-19,1.74C37.47,100.62,27,100.23,27,100.23Z"/><path class="cls-4" d="M72.5,103.59l-7.31-5.08s-5,.6-17.48,1.38c-11.73.73-20.76.34-20.76.34l-1.1,6.08s11.67-.26,23.34-1S72.5,103.59,72.5,103.59Z"/><path class="cls-3" d="M72.5,103.59s-4.94,2.45-15,5c-2.7.69-5.77,1.39-9.21,2a218.54,218.54,0,0,1-33.58,3.59l-3.55.11A73.48,73.48,0,0,1,7,106.71l-.14-.3-.07-.16,11.62,0c2.72,0,5.22,0,7.45,0h.79c2.44,0,5.39-.08,8.61-.2l1.78-.08,3.57-.16h.12l3.21-.17,3.45-.2,3.08-.19,3.83-.25c7.37-.5,13.8-1,16.64-1.23l.4,0,.34,0h0l.43,0,.23,0Z"/><path class="cls-7" d="M61.37,84.91c-.66.28-1,.76-.75,1s1,.31,1.62,0,1-.77.75-1.06S62,84.62,61.37,84.91Z"/><path class="cls-7" d="M66,82.87c-.65.29-1,.76-.72,1s1,.29,1.65,0,1-.76.72-1S66.62,82.59,66,82.87Z"/><path class="cls-7" d="M70.58,80.84c-.65.29-1,.75-.7,1s1,.28,1.68,0,1-.75.69-1A1.71,1.71,0,0,0,70.58,80.84Z"/><path class="cls-7" d="M75.18,78.8c-.65.29-1,.75-.67,1a1.79,1.79,0,0,0,1.71,0c.66-.29,1-.75.66-1A1.8,1.8,0,0,0,75.18,78.8Z"/><path class="cls-7" d="M79.79,76.77c-.65.29-.94.74-.65,1a1.89,1.89,0,0,0,1.74,0c.66-.29.94-.75.63-1A1.85,1.85,0,0,0,79.79,76.77Z"/><path class="cls-7" d="M84.39,74.74c-.65.28-.92.73-.61,1a1.94,1.94,0,0,0,1.76,0c.66-.29.93-.74.61-1A2,2,0,0,0,84.39,74.74Z"/><path class="cls-7" d="M89,72.7c-.65.29-.92.73-.59,1a2,2,0,0,0,1.79-.06c.66-.29.91-.73.58-1A2.06,2.06,0,0,0,89,72.7Z"/><path class="cls-7" d="M94.86,71.57c.65-.29.9-.73.55-1a2.18,2.18,0,0,0-1.81.08c-.65.28-.9.72-.56,1A2.16,2.16,0,0,0,94.86,71.57Z"/><path class="cls-7" d="M63.08,87c-.66.3-1,.78-.75,1.09s1,.33,1.67,0,1-.79.75-1.1S63.75,86.71,63.08,87Z"/><path class="cls-7" d="M67.79,84.92c-.66.3-1,.78-.72,1.08s1,.31,1.7,0,1-.79.72-1.09S68.46,84.63,67.79,84.92Z"/><path class="cls-7" d="M72.51,82.84c-.67.29-1,.77-.7,1.07a1.73,1.73,0,0,0,1.73,0c.67-.3,1-.78.69-1.07A1.74,1.74,0,0,0,72.51,82.84Z"/><path class="cls-7" d="M77.22,80.76c-.67.29-1,.77-.68,1.06a1.86,1.86,0,0,0,1.76,0c.68-.3,1-.78.67-1.07A1.87,1.87,0,0,0,77.22,80.76Z"/><path class="cls-7" d="M81.93,78.68c-.67.29-1,.76-.65,1a1.89,1.89,0,0,0,1.79,0c.67-.3,1-.77.64-1A1.94,1.94,0,0,0,81.93,78.68Z"/><path class="cls-7" d="M86.64,76.6c-.67.29-1,.75-.62,1a2,2,0,0,0,1.82,0c.67-.3.94-.77.6-1A2,2,0,0,0,86.64,76.6Z"/><path class="cls-7" d="M91.35,74.52c-.67.29-.93.75-.59,1a2.08,2.08,0,0,0,1.84-.05c.67-.3.93-.76.58-1A2.06,2.06,0,0,0,91.35,74.52Z"/><path class="cls-7" d="M96.06,72.44c-.67.29-.92.74-.56,1a2.16,2.16,0,0,0,1.87-.06c.67-.29.92-.75.55-1A2.18,2.18,0,0,0,96.06,72.44Z"/><path class="cls-7" d="M64.88,89.19c-.68.31-1,.81-.76,1.14s1,.34,1.73,0,1-.82.75-1.14S65.57,88.89,64.88,89.19Z"/><path class="cls-7" d="M69.7,87.07c-.68.3-1,.8-.73,1.11a1.7,1.7,0,0,0,1.76,0c.69-.3,1-.81.72-1.12A1.69,1.69,0,0,0,69.7,87.07Z"/><path class="cls-7" d="M74.52,84.94c-.68.3-1,.79-.7,1.1a1.8,1.8,0,0,0,1.78,0c.69-.31,1-.81.7-1.11A1.8,1.8,0,0,0,74.52,84.94Z"/><path class="cls-7" d="M79.34,82.81c-.68.3-1,.79-.67,1.09a1.87,1.87,0,0,0,1.81,0c.69-.3,1-.79.67-1.1A1.9,1.9,0,0,0,79.34,82.81Z"/><path class="cls-7" d="M84.16,80.68c-.68.3-1,.78-.64,1.08a2,2,0,0,0,1.84,0c.69-.31,1-.79.64-1.09A2,2,0,0,0,84.16,80.68Z"/><path class="cls-7" d="M89,78.55c-.68.3-1,.78-.61,1.07a2,2,0,0,0,1.87,0c.69-.3,1-.78.61-1.07A2.07,2.07,0,0,0,89,78.55Z"/><path class="cls-7" d="M93.8,76.42c-.68.3-.94.77-.58,1a2.14,2.14,0,0,0,1.9,0c.69-.31.95-.78.58-1.06A2.18,2.18,0,0,0,93.8,76.42Z"/><path class="cls-7" d="M98.62,74.29c-.68.3-.93.77-.55,1a2.21,2.21,0,0,0,1.93,0c.69-.3.93-.77.55-1A2.25,2.25,0,0,0,98.62,74.29Z"/><path class="cls-7" d="M66.77,91.49c-.7.31-1,.83-.77,1.17s1.07.37,1.78.06,1-.84.76-1.18S67.47,91.18,66.77,91.49Z"/><path class="cls-7" d="M71.7,89.31c-.69.31-1,.83-.73,1.16a1.72,1.72,0,0,0,1.81,0c.7-.31,1-.83.73-1.16A1.77,1.77,0,0,0,71.7,89.31Z"/><path class="cls-7" d="M76.64,87.13c-.7.31-1,.82-.71,1.15a1.86,1.86,0,0,0,1.84,0c.71-.31,1-.83.7-1.16A1.84,1.84,0,0,0,76.64,87.13Z"/><path class="cls-7" d="M81.57,85c-.69.31-1,.82-.67,1.13a1.92,1.92,0,0,0,1.87,0c.7-.31,1-.82.67-1.14A2,2,0,0,0,81.57,85Z"/><path class="cls-7" d="M86.51,82.77c-.7.31-1,.81-.65,1.12a2,2,0,0,0,1.9,0c.71-.31,1-.81.64-1.12A2,2,0,0,0,86.51,82.77Z"/><path class="cls-7" d="M91.44,80.59c-.69.31-1,.8-.61,1.11a2.12,2.12,0,0,0,1.93,0c.71-.32,1-.81.61-1.12A2.16,2.16,0,0,0,91.44,80.59Z"/><path class="cls-7" d="M96.38,78.41c-.7.31-1,.8-.59,1.09a2.22,2.22,0,0,0,2,0c.7-.31,1-.81.57-1.1A2.21,2.21,0,0,0,96.38,78.41Z"/><path class="cls-7" d="M101.31,76.23c-.69.31-.94.79-.55,1.08a2.31,2.31,0,0,0,2,0c.71-.31,1-.8.55-1.08A2.31,2.31,0,0,0,101.31,76.23Z"/><path class="cls-7" d="M68.75,93.9c-.72.32-1.06.86-.78,1.22s1.11.39,1.84.07,1.06-.87.77-1.22A1.73,1.73,0,0,0,68.75,93.9Z"/><path class="cls-7" d="M73.8,91.67c-.71.31-1,.85-.74,1.2a1.8,1.8,0,0,0,1.87.06c.72-.32,1-.86.73-1.21A1.79,1.79,0,0,0,73.8,91.67Z"/><path class="cls-7" d="M78.86,89.43c-.72.32-1,.85-.71,1.19a1.86,1.86,0,0,0,1.9,0c.72-.32,1-.86.7-1.2A1.9,1.9,0,0,0,78.86,89.43Z"/><path class="cls-7" d="M83.91,87.2c-.71.32-1,.84-.68,1.17a2,2,0,0,0,1.94,0c.72-.32,1-.85.67-1.18A2,2,0,0,0,83.91,87.2Z"/><path class="cls-7" d="M89,85c-.72.31-1,.83-.65,1.16a2.07,2.07,0,0,0,2,0c.72-.31,1-.84.64-1.16A2.09,2.09,0,0,0,89,85Z"/><path class="cls-7" d="M94,82.73c-.71.32-1,.83-.61,1.15a2.17,2.17,0,0,0,2,0c.72-.32,1-.83.6-1.15A2.21,2.21,0,0,0,94,82.73Z"/><path class="cls-7" d="M99.08,80.5c-.71.32-1,.82-.58,1.13a2.24,2.24,0,0,0,2,0c.72-.32,1-.83.57-1.14A2.33,2.33,0,0,0,99.08,80.5Z"/><path class="cls-7" d="M104.14,78.27c-.72.31-1,.81-.55,1.12a2.39,2.39,0,0,0,2.06,0c.72-.32,1-.82.54-1.12A2.37,2.37,0,0,0,104.14,78.27Z"/><path class="cls-8" d="M150,75q0,2.85-.21,5.64a73.31,73.31,0,0,1-1.19,8.85,74.78,74.78,0,0,1-67.07,60.22c-2.15.2-4.33.29-6.53.29a74.94,74.94,0,0,1-63.87-35.67A73.48,73.48,0,0,1,7,106.71l-.14-.3-.07-.16q-1.33-2.91-2.42-5.94A75,75,0,0,1,139.81,37.25c1.09,1.85,2.1,3.76,3,5.71a2.56,2.56,0,0,1,.11.24,73.86,73.86,0,0,1,3.27,8.21A74.83,74.83,0,0,1,150,75Z"/></g></g></svg>