<?xml version="1.0" encoding="UTF-8"?>
<svg id="Layer_2" data-name="Layer 2" xmlns="http://www.w3.org/2000/svg" viewBox="0 0 163 163">
  <defs>
    <style>
      .cls-1 {
        fill: #605e6e;
      }

      .cls-2 {
        fill: #78768c;
      }

      .cls-3 {
        fill: #2d2a3f;
      }

      .cls-4 {
        stroke: #2d2a3f;
        stroke-linecap: round;
        stroke-width: 2px;
      }

      .cls-4, .cls-5 {
        fill: none;
        stroke-miterlimit: 10;
      }

      .cls-6 {
        fill: #d9d8e0;
      }

      .cls-7 {
        fill: #f6f5fa;
      }

      .cls-5 {
        stroke: #e679b6;
        stroke-width: 13px;
      }
    </style>
  </defs>
  <g id="_图层_1" data-name="图层 1">
    <g>
      <path class="cls-7" d="M156.5,81.5c0,1.9-.07,3.78-.21,5.64-.22,3.01-.62,5.96-1.19,8.85-2.91,14.9-10.24,28.22-20.57,38.55-9.83,9.83-22.39,16.95-36.44,20.12-3.28.74-6.64,1.26-10.06,1.55-2.15.2-4.33.29-6.53.29-26.66,0-50.07-13.91-63.37-34.87-1.89-2.96-3.56-6.07-5.02-9.29-.91-2.02-1.73-4.08-2.46-6.19,0,0-.01,0,0-.01-2.69-7.71-4.15-16.01-4.15-24.64,0-20.71,8.39-39.46,21.97-53.03,2.65-2.65,5.5-5.11,8.53-7.34,12.45-9.19,27.84-14.63,44.5-14.63s32.05,5.44,44.5,14.63c3.03,2.23,5.88,4.69,8.53,7.34,4.5,4.5,8.43,9.57,11.67,15.09.09.13.17.27.24.41,1.01,1.73,1.95,3.5,2.81,5.32,1.47,3.09,2.74,6.29,3.78,9.6,2.26,7.13,3.47,14.73,3.47,22.61Z"/>
      <path class="cls-6" d="M98.09,154.66c-3.28.74-6.64,1.26-10.06,1.55l-31.43-36.91-7.44-8.75-4.5-5.28-.07-.08-4.18-4.91,8.02-3.2,5.68,6.58.1.13,4.35,5.03,7.36,8.54,32.17,37.3Z"/>
      <path class="cls-6" d="M156.29,87.14c-.22,3.01-.62,5.96-1.19,8.85l-26.21-12.21-7.23-3.37-2.46-1.15-5.91-2.75-.47-.22-5.96-2.78-6.33-2.95,5.97-6.24,13.49,6.18.49.23,5.65,2.59,9.4,4.3,20.76,9.52Z"/>
      <path class="cls-1" d="M153.03,58.89l-11.45,12.74c-1.72,1.72-3.73,3.75-6.05,5.99-1.98,1.92-4.19,3.99-6.64,6.16-2.87,2.54-6.05,5.2-9.58,7.89-9.96,7.59-22.62,15.39-38.32,21.12-4.74,1.74-9.76,3.28-15.07,4.57-3.01.73-6.12,1.38-9.32,1.94-8.33,1.46-17.29,2.29-26.93,2.29l-11.54.04c-1.89-2.96-3.56-6.07-5.02-9.29-.91-2.02-1.73-4.08-2.46-6.19,0,0-.01,0,0-.01-2.69-7.71-4.15-16.01-4.15-24.64,0-20.71,8.39-39.46,21.97-53.03,2.65-2.65,5.5-5.11,8.53-7.34h89c3.03,2.23,5.88,4.69,8.53,7.34,4.5,4.5,8.43,9.57,11.67,15.09.09.13.17.27.24.41,1.01,1.73,1.95,3.5,2.81,5.32,1.47,3.09,2.74,6.29,3.78,9.6Z"/>
      <path class="cls-2" d="M149.25,49.29l-11.72,13.04c-2.92,2.92-6.7,6.75-11.4,10.99-2.12,1.91-4.42,3.9-6.93,5.94-12.29,9.98-29.28,20.89-51.79,27.33-2.86.82-5.81,1.57-8.85,2.23-3.04.67-6.17,1.25-9.4,1.73-7.36,1.12-15.2,1.74-23.54,1.74l-12.51.05c-.91-2.02-1.73-4.08-2.46-6.19,0,0-.01,0,0-.01l19.16-.06c5.08,0,10.01-.31,14.78-.89,3.25-.39,6.42-.91,9.52-1.53,24.54-4.91,44.49-16.53,58.71-27.37,2.58-1.97,4.97-3.91,7.17-5.79,3.93-3.33,7.23-6.45,9.87-9.09l16.34-17.85c.09.13.17.27.24.41,1.01,1.73,1.95,3.5,2.81,5.32Z"/>
      <path class="cls-6" d="M146.44,43.97l-15.83,17.44c-2.7,2.7-6.09,5.89-10.13,9.32-2.21,1.87-4.61,3.81-7.19,5.78-14.33,10.87-34.41,22.47-59.08,27.28-3.11.61-6.29,1.11-9.55,1.48-4.56.53-9.26.81-14.1.81h-.75l-19.16.07s-.01,0,0-.01c-2.69-7.71-4.15-16.01-4.15-24.64,0-20.71,8.39-39.46,21.97-53.03,2.65-2.65,5.5-5.11,8.53-7.34,12.45-9.19,27.84-14.63,44.5-14.63s32.05,5.44,44.5,14.63c3.03,2.23,5.88,4.69,8.53,7.34,4.5,4.5,8.43,9.57,11.67,15.09.09.13.17.27.24.41Z"/>
      <path class="cls-3" d="M64.276,74.944c-1.083.547-.315,2.326,1.439,2.644l21.494,3.881c.82.146,1.454-.173,1.54-.777l2.194-15.84c.175-1.292-1.896-2.413-2.979-1.867l-7.196,3.633-17.096-17.464c-1.155-1.18-2.981-1.551-4.106-.983l-5.089,2.569c-1.125.568-1.258,1.929-.103,3.108l17.096,17.464-7.194,3.632Z"/>
      <line class="cls-4" x1="78.255" y1="92.301" x2="70.446" y2="90.881"/>
      <line class="cls-4" x1="73.108" y1="103.836" x2="66.591" y2="106.993"/>
      <line class="cls-4" x1="82.952" y1="109.427" x2="79.225" y2="115.816"/>
      <line class="cls-4" x1="97.346" y1="109.129" x2="99.264" y2="115.816"/>
      <line class="cls-4" x1="110.699" y1="101.23" x2="115.491" y2="106.89"/>
      <line class="cls-4" x1="118.955" y1="91.591" x2="126.764" y2="93.366"/>
      <line class="cls-4" x1="116.766" y1="83.218" x2="123.333" y2="79.455"/>
      <line class="cls-4" x1="104.88" y1="78.936" x2="107.542" y2="71.659"/>
      <path class="cls-5" d="M156.5,81.5c0,1.9-.07,3.78-.21,5.64-.22,3.01-.62,5.96-1.19,8.85-2.91,14.9-10.24,28.22-20.57,38.55-9.83,9.83-22.39,16.95-36.44,20.12-3.28.74-6.64,1.26-10.06,1.55-2.15.2-4.33.29-6.53.29-26.66,0-50.07-13.91-63.37-34.87-1.89-2.96-3.56-6.07-5.02-9.29-.91-2.02-1.73-4.08-2.46-6.19,0,0-.01,0,0-.01-2.69-7.71-4.15-16.01-4.15-24.64,0-20.71,8.39-39.46,21.97-53.03,2.65-2.65,5.5-5.11,8.53-7.34,12.45-9.19,27.84-14.63,44.5-14.63s32.05,5.44,44.5,14.63c3.03,2.23,5.88,4.69,8.53,7.34,4.5,4.5,8.43,9.57,11.67,15.09.09.13.17.27.24.41,1.01,1.73,1.95,3.5,2.81,5.32,1.47,3.09,2.74,6.29,3.78,9.6,2.26,7.13,3.47,14.73,3.47,22.61Z"/>
    </g>
  </g>
</svg>