<svg xmlns="http://www.w3.org/2000/svg" viewBox="0 0 150 150"><defs><style>.cls-1{fill:#f6f5fa;}.cls-2{fill:#2d2a3f;}</style></defs><g id="图层_2" data-name="图层 2"><g id="图层_1-2" data-name="图层 1"><rect class="cls-1" width="150" height="150" rx="75"/><path class="cls-2" d="M74.62,47.87a7.78,7.78,0,1,0-7.78-7.77A7.78,7.78,0,0,0,74.62,47.87Z"/><path class="cls-2" d="M64.61,111.81A16.17,16.17,0,0,1,52,85.49l-5.86-5.86A24.43,24.43,0,0,0,80.63,114.1l-5.87-5.87A16.1,16.1,0,0,1,64.61,111.81Z"/><path class="cls-2" d="M84.51,36.9v1.89a2.13,2.13,0,0,0,2.15,1.89l3.23.22-2.45,8.67L78.2,50h0l-8.29.34a3.76,3.76,0,0,0-3.5,2.85L62,71.23l-.11,0A26.38,26.38,0,0,0,48.7,77.1L54.56,83a16.17,16.17,0,0,1,22.72,22.72l5.88,5.87a24.53,24.53,0,0,0,2.6-3.67,4.08,4.08,0,0,0,3.48,3.18h9.49a3.71,3.71,0,0,0,3.69-3.7v-.52c0-2-3.12-3.69-5.15-3.69h-1l5.44-22.73a4.63,4.63,0,0,0-1.3-3.62,4.69,4.69,0,0,0-3.59-1.4l-16.19.9-.38-.1,2.61-16.88,8.37-.61a4.64,4.64,0,0,0,4.28-3.38l3.78-13.4c0-.14.07-.28.1-.42l4.65.31V33.88L86.66,35A2.13,2.13,0,0,0,84.51,36.9Z"/><path class="cls-2" d="M109.25,33.55l-3.85.14V42l3.85.14c3,.2,4-1,4-2.67V36.21C113.25,34.54,112.26,33.35,109.25,33.55Z"/></g></g></svg>