<svg xmlns="http://www.w3.org/2000/svg" viewBox="0 0 150 150"><defs><style>.cls-1{fill:#f6f5fa;}.cls-2{fill:#d9d8e0;}.cls-3{fill:#a19fad;}.cls-4{fill:#2d2a3f;}.cls-5{fill:none;}</style></defs><g id="图层_2" data-name="图层 2"><g id="图层_1-2" data-name="图层 1"><path class="cls-1" d="M149.84,70.23a75,75,0,0,0-149.68,0C.05,71.81,0,73.4,0,75a75,75,0,0,0,121.22,59.06,73.54,73.54,0,0,0,6.81-6,74.73,74.73,0,0,0,22-53C150,73.4,150,71.81,149.84,70.23Z"/><path class="cls-2" d="M150,75a74.73,74.73,0,0,1-22,53,73.54,73.54,0,0,1-6.81,6A75,75,0,0,1,0,75c0-1.6.05-3.19.16-4.77H149.84C150,71.81,150,73.4,150,75Z"/><path class="cls-3" d="M121.22,134.06a75,75,0,0,1-92.45,0Z"/><path class="cls-4" d="M49,50.59a6.34,6.34,0,1,0-6.34-6.34A6.34,6.34,0,0,0,49,50.59Z"/><path class="cls-4" d="M39.91,97.21c-.38.33-.77.64-1.17.94a19.9,19.9,0,0,1-11.9,3.94,19.58,19.58,0,0,1-6.73-1.17,20.34,20.34,0,0,1-7.27-4.58,19.81,19.81,0,0,1-3.75-5.13,19.61,19.61,0,0,1-2.16-9,19.88,19.88,0,0,1,4.88-13.07l4.78,4.78A13,13,0,0,0,14,79.45a12.64,12.64,0,0,0-.29,2.71,12.24,12.24,0,0,0,.21,2.28,13,13,0,0,0,3.52,6.89A13.18,13.18,0,0,0,20,93.4a12.8,12.8,0,0,0,5.31,1.84,11.87,11.87,0,0,0,1.58.1,12.29,12.29,0,0,0,1.49-.08,13.09,13.09,0,0,0,6.78-2.84l3.65,3.65.82.82Z"/><path class="cls-4" d="M57.67,91.29v.43a3,3,0,0,1-3,3H46.92a3.3,3.3,0,0,1-2.83-2.58,20.27,20.27,0,0,1-2.13,3l-4.78-4.79A13.19,13.19,0,0,0,40,83.24c0-.35,0-.72,0-1.08A13.17,13.17,0,0,0,18.66,71.84l-4.78-4.78a19.81,19.81,0,0,1,10.28-4.62l8.73-9.95-5.31-3.07-6.42,5.72a3.79,3.79,0,1,1-5-5.66l8.47-7.55a3.8,3.8,0,0,1,2.53-1,3.69,3.69,0,0,1,1.89.52S46.35,51.55,46.37,51.58A3.73,3.73,0,0,1,48.07,54a4.43,4.43,0,0,1-.93,4.15L39.86,66.4l13.21-.73h.21A3.77,3.77,0,0,1,56,66.81a3.73,3.73,0,0,1,1,3L52.62,88.28h.85a4.34,4.34,0,0,1,1.44.27,5.74,5.74,0,0,1,1.46.74A2.63,2.63,0,0,1,57.67,91.29Z"/><path class="cls-4" d="M134.32,68.44c-1.38,0-1.25.14-1.26-1.29V64.7c0-1,0-1-1-1H116.69v3.1c0,1.56,0,1.56-1.57,1.63H115c-.4,0-.57.15-.57.57,0,2.44,0,4.89,0,7.33,0,.5.2.65.67.63s1,0,1.57,0V97.68a23.73,23.73,0,0,0,8.21,1.79A22.09,22.09,0,0,0,133,97.4s.05-13.18.05-19.43V77c.67,0,1.24,0,1.8,0,.19,0,.5-.28.5-.43,0-2.64,0-5.28,0-8C135,68.49,134.66,68.45,134.32,68.44Zm-9.39,9.41a5.18,5.18,0,0,1-.05-10.35,5.18,5.18,0,0,1,.05,10.35Z"/><path class="cls-4" d="M132.52,61.8c.44,0,.54-.2.5-.59a8.72,8.72,0,0,0-1.18-3.76,8.1,8.1,0,0,0-5-3.83.61.61,0,0,1-.55-.71c0-.78,0-1.56,0-2.38h-2.77c0,.81,0,1.55,0,2.29,0,.45-.07.69-.61.79a7.11,7.11,0,0,0-1.92.73,9,9,0,0,0-4.12,5.4,10.28,10.28,0,0,0-.25,2.06Z"/><path class="cls-4" d="M112.63,68.46a10.3,10.3,0,0,0-1.15.16A4.06,4.06,0,0,0,109,70.76a.77.77,0,0,1-.84.5c-.63,0-1.26,0-1.93,0v2.82c.73,0,1.42,0,2.1,0a.74.74,0,0,1,.55.33,4.25,4.25,0,0,0,3,2.41c.79.19.87.17.87-.62,0-2.34,0-4.69,0-7C112.7,69,112.66,68.75,112.63,68.46Z"/><path class="cls-4" d="M142.31,71.26a1.6,1.6,0,0,1-1.94-1.08,3.15,3.15,0,0,0-3.13-1.6v8.36a3.93,3.93,0,0,0,3.4-2.21,1,1,0,0,1,1.13-.67c.53,0,1.07,0,1.63,0V71.25A9.7,9.7,0,0,0,142.31,71.26Z"/><path class="cls-4" d="M124.85,69.39a3.3,3.3,0,0,0,0,6.59,3.3,3.3,0,0,0,0-6.59Z"/><path class="cls-4" d="M81.18,98.71c-.38.49.91.79,2.1.35l14.53-5.41c.55-.2.78-.49.54-.7l-6.19-5.41a2.71,2.71,0,0,0-2.65.35L87,91.18H68.62a4.13,4.13,0,0,0-2.89,1l-1.79,2.32c-.39.52.17,1,1.41,1H83.71Z"/><polygon class="cls-4" points="97.87 99.58 95.47 99.58 103.6 87.73 105.99 87.73 97.87 99.58"/><path class="cls-5" d="M150,75a74.73,74.73,0,0,1-22,53,73.54,73.54,0,0,1-6.81,6A75,75,0,0,1,0,75c0-1.6.05-3.19.16-4.77a75,75,0,0,1,149.68,0C150,71.81,150,73.4,150,75Z"/></g></g></svg>