<?xml version="1.0" encoding="UTF-8"?>
<svg id="Layer_2" data-name="Layer 2" xmlns="http://www.w3.org/2000/svg" viewBox="0 0 163 163">
  <defs>
    <style>
      .cls-1 {
        fill: none;
        stroke: #78b0ea;
        stroke-miterlimit: 10;
        stroke-width: 13px;
      }

      .cls-2 {
        fill: #2d2a3f;
      }

      .cls-3 {
        fill: #a19fad;
      }

      .cls-4 {
        fill: #d9d8e0;
      }

      .cls-5 {
        fill: #f6f5fa;
      }
    </style>
  </defs>
  <g id="_图层_1" data-name="图层 1">
    <path class="cls-5" d="M156.34,76.73c-1.17-18.81-9.28-35.74-21.81-48.26-13.57-13.58-32.32-21.97-53.03-21.97S42.03,14.89,28.46,28.47c-12.52,12.52-20.63,29.45-21.8,48.26-.11,1.58-.16,3.17-.16,4.77,0,23.98,11.25,45.34,28.77,59.06,12.74,9.99,28.79,15.94,46.23,15.94s33.49-5.95,46.22-15.94c2.39-1.87,4.67-3.88,6.81-6.03,13.58-13.57,21.97-32.32,21.97-53.03,0-1.6-.05-3.19-.16-4.77Z"/>
    <path class="cls-4" d="M156.5,81.5c0,20.71-8.39,39.46-21.97,53.03-2.14,2.15-4.42,4.16-6.81,6.03-12.73,9.99-28.78,15.94-46.22,15.94s-33.49-5.95-46.23-15.94c-17.52-13.72-28.77-35.08-28.77-59.06,0-1.6.05-3.19.16-4.77h149.68c.11,1.58.16,3.17.16,4.77Z"/>
    <path class="cls-3" d="M127.72,140.56c-12.73,9.99-28.78,15.94-46.22,15.94s-33.49-5.95-46.23-15.94h92.45Z"/>
    <g>
      <path class="cls-2" d="M62.483,57.085c3.5,0,6.338-2.838,6.338-6.338s-2.837-6.338-6.338-6.338-6.338,2.838-6.338,6.338,2.838,6.338,6.338,6.338Z"/>
      <path class="cls-2" d="M53.407,103.709c-.38.33-.769.643-1.167.938-1.209.905-2.528,1.674-3.931,2.283-2.435,1.074-5.132,1.657-7.964,1.657-1.023,0-2.012-.068-2.993-.22-1.294-.194-2.545-.507-3.746-.947-1.386-.499-2.714-1.15-3.94-1.936-1.209-.761-2.317-1.649-3.323-2.646-1.513-1.488-2.782-3.221-3.754-5.132-.736-1.437-1.302-2.968-1.666-4.582-.33-1.429-.499-2.917-.499-4.447,0-4.997,1.843-9.562,4.887-13.062l4.777,4.777c-1.285,1.589-2.207,3.475-2.638,5.555-.194.871-.288,1.775-.288,2.714,0,.778.068,1.539.203,2.283.465,2.663,1.725,5.047,3.525,6.89.761.795,1.632,1.48,2.57,2.063,1.581.981,3.382,1.623,5.309,1.843.516.068,1.048.101,1.581.101.499,0,.998-.025,1.488-.085,2.553-.279,4.878-1.302,6.781-2.832l3.652,3.644.82.82.313.321Z"/>
      <path class="cls-2" d="M71.17,97.791v.431c0,1.649-1.353,3.01-3.01,3.01h-7.736c-1.04,0-2.435-.981-2.832-2.587-.626,1.065-1.336,2.063-2.131,2.993l-4.785-4.785c1.572-1.987,2.596-4.439,2.815-7.11.025-.355.042-.719.042-1.082,0-.964-.101-1.911-.304-2.815-1.285-5.927-6.561-10.365-12.877-10.365-3.103,0-5.943,1.065-8.192,2.858l-4.777-4.777c2.841-2.443,6.383-4.1,10.281-4.625l8.725-9.943-5.309-3.077-6.417,5.724c-.727.643-1.623.964-2.519.964-1.04,0-2.08-.431-2.832-1.268-1.395-1.564-1.251-3.957.304-5.352l8.471-7.55c.71-.634,1.615-.964,2.528-.964.651,0,1.302.169,1.894.516,0,0,17.34,10.069,17.366,10.095.896.55,1.488,1.429,1.691,2.393.406,1.403.102,2.976-.93,4.151l-7.271,8.277,13.206-.736c.076-.008.144-.008.211-.008,1.015,0,2.004.414,2.714,1.15.761.778,1.15,1.86,1.057,2.951l-4.43,18.524h.845c.439,0,.938.093,1.446.271.507.178,1.015.423,1.454.736.753.533,1.302,1.234,1.302,2.004Z"/>
    </g>
    <g>
      <path class="cls-2" d="M137.82,74.943c-1.383-.018-1.248.14-1.255-1.293-.004-.815,0-1.63-.001-2.445-.002-.99-.003-.993-.963-.993-4.841,0-9.682,0-14.524,0h-.886v3.101q0,1.554-1.571,1.629c-.025.001-.049.002-.074,0-.4-.025-.577.144-.575.563.01,2.445.013,4.891-.002,7.336-.003.495.205.65.671.624.502-.027,1.007-.006,1.567-.006v20.723c.162,0,4.202,1.854,8.219,1.783,4.053-.072,8.083-2.068,8.083-2.068,0,0,.056-13.178.056-19.427v-1.013c.671,0,1.239.037,1.797-.021.186-.019.495-.278.497-.431.031-2.64.022-5.281.022-7.993-.386-.027-.723-.066-1.061-.07ZM128.431,84.349c-2.868.034-5.067-2.488-5.082-5.131-.016-2.705,2.202-5.211,5.028-5.216,2.492-.005,5.065,2.222,4.949,5.158.143,2.884-2.353,5.16-4.894,5.189Z"/>
      <path class="cls-2" d="M136.016,68.303c.449,0,.546-.207.507-.597-.133-1.334-.475-2.58-1.178-3.756-1.166-1.95-2.803-3.232-4.976-3.826-.425-.116-.557-.304-.546-.713.02-.78.006-1.56.006-2.381h-2.77c0,.814-.014,1.552.005,2.289.012.451-.077.688-.612.794-.662.132-1.318.402-1.916.726-2.175,1.178-3.379,3.142-4.129,5.406-.207.625-.167,1.332-.245,2.052,5.389,0,10.622-.003,15.855.006Z"/>
      <path class="cls-2" d="M116.133,74.963c-.438.058-.811.062-1.157.161-1.146.328-1.941,1.119-2.472,2.137-.215.411-.435.513-.841.498-.632-.022-1.266-.006-1.932-.006v2.814c.732,0,1.418-.024,2.1.015.193.011.467.162.547.325.62,1.262,1.567,2.081,2.951,2.413.793.19.872.173.873-.62.004-2.344.003-4.688-.002-7.031,0-.209-.04-.418-.069-.707Z"/>
      <path class="cls-2" d="M145.805,77.761c-.917.112-1.526-.108-1.936-1.076-.466-1.103-1.968-1.755-3.129-1.601v8.355c1.535-.232,2.773-.783,3.395-2.21.241-.551.564-.722,1.13-.672.534.047,1.075.01,1.633.01v-2.813c-.408,0-.755-.035-1.093.007Z"/>
      <path class="cls-2" d="M128.354,75.889c-1.75.036-3.083,1.436-3.091,3.283-.008,1.849,1.301,3.306,3.122,3.303,1.739-.002,3.147-1.48,3.143-3.307.093-1.597-1.4-3.315-3.174-3.279Z"/>
    </g>
    <path class="cls-2" d="M92.385,105.208c-.343.494.824.792,1.893.351l13.095-5.407c.499-.207.7-.496.488-.703l-5.584-5.409c-.458-.44-2.038-.142-2.382.352l-2.282,3.286h-16.544c-1.117,0-2.248.447-2.605.961l-1.614,2.324c-.357.514.153.961,1.27.961h16.544s-2.281,3.285-2.281,3.285Z"/>
    <polygon class="cls-2" points="107.368 106.078 104.975 106.078 113.102 94.23 115.494 94.23 107.368 106.078"/>
    <path class="cls-1" d="M156.5,81.5c0,20.71-8.39,39.46-21.97,53.03-2.14,2.15-4.42,4.16-6.81,6.03-12.73,9.99-28.78,15.94-46.22,15.94s-33.49-5.95-46.23-15.94c-17.52-13.72-28.77-35.08-28.77-59.06,0-1.6.05-3.19.16-4.77,1.17-18.81,9.28-35.74,21.8-48.26C42.03,14.89,60.79,6.5,81.5,6.5s39.46,8.39,53.03,21.97c12.53,12.52,20.64,29.45,21.81,48.26.11,1.58.16,3.17.16,4.77Z"/>
  </g>
</svg>