<svg xmlns="http://www.w3.org/2000/svg" viewBox="0 0 150 150"><defs><style>.cls-1{fill:#f6f5fa;}.cls-2{fill:#2d2a3f;}.cls-3{fill:#605e6e;}.cls-4{fill:#a19fad;}</style></defs><g id="图层_2" data-name="图层 2"><g id="图层_1-2" data-name="图层 1"><rect class="cls-1" width="150" height="150" rx="75"/><rect class="cls-1" x="53.21" y="43.14" width="44.52" height="71.85"/><path class="cls-2" d="M88.51,78.17a14.48,14.48,0,0,0-2.4-1.51,8.9,8.9,0,0,1-4.39-4.54c-.53-1.16-1.23-2.26-1.87-3.38-1.36-2.32-3.87-2.83-6.17-1.22S69.21,70.69,67,72.34a3.28,3.28,0,0,0-1.11,1.58c-.57,1.91-1,3.86-1.47,5.79a1.54,1.54,0,0,0,1.18,2.09,1.68,1.68,0,0,0,2-1.42,22.93,22.93,0,0,0,.86-3.69c.17-1.72,1.45-2.54,3-3.45a5.91,5.91,0,0,1-.08.77c-.83,3.34-1.82,6.67-2.47,10a22.85,22.85,0,0,1-4.45,9.61,19.41,19.41,0,0,0-1.66,2.57,2,2,0,0,0,.91,2.89A2.72,2.72,0,0,0,67,98.62a7.34,7.34,0,0,0,.71-1c1.33-2,2.72-4,3.93-6a23.11,23.11,0,0,0,1.69-3.89,33.39,33.39,0,0,0,.85-3.24c1.65,1.63,3.14,3,4.54,4.51a4.21,4.21,0,0,1,1,1.79c.52,2.16.9,4.35,1.39,6.51a2.59,2.59,0,0,0,3.17,2.13,2.34,2.34,0,0,0,1.8-3.07c-.5-2.4-1-4.81-1.53-7.19a4.81,4.81,0,0,0-1.08-2c-1.69-1.91-3.5-3.74-5.23-5.62-.27-.3-.62-.75-.55-1.07.41-2,.92-3.92,1.41-5.87.75.72,1,1.69,1.69,2.18a58.79,58.79,0,0,0,6.18,3.8c.38.2,1.45-.23,1.9-.64C89.46,79.41,89.17,78.65,88.51,78.17Z"/><path class="cls-2" d="M77.43,65.87a3.64,3.64,0,0,0-.11-7.27,3.64,3.64,0,1,0,.11,7.27Z"/><path class="cls-3" d="M97.73,44.34v62.74c0,3-2.27,5.59-5,5.59H58.17c-2.69,0-5-2.56-5-5.58V44.34a17.15,17.15,0,0,0-5.58.94c0,23.7,0,61.8,0,61.8,0,6.15,4.75,11.18,10.55,11.18H92.76c5.81,0,10.56-5,10.56-11.18l0-61.8A17.13,17.13,0,0,0,97.73,44.34Z"/><path class="cls-4" d="M73.09,28.71h4.76a5.62,5.62,0,0,1,5.62,5.62v3.09a0,0,0,0,1,0,0h-16a0,0,0,0,1,0,0V34.32A5.62,5.62,0,0,1,73.09,28.71Z"/><path class="cls-2" d="M53.26,48.46H97.68a17.6,17.6,0,0,1,9.45,2.76c-.52-6.14-2-13.8-10.1-13.8H53.91c-7.43,0-9.58,7.66-10.1,13.8A17.58,17.58,0,0,1,53.26,48.46Z"/><path class="cls-4" d="M67.47,149.62c1.28.13,2.57.22,3.87.29h7.32c1.62-.08,3.22-.22,4.81-.4V118.26h-16Z"/></g></g></svg>