<?xml version="1.0" encoding="UTF-8"?>
<svg id="Layer_2" data-name="Layer 2" xmlns="http://www.w3.org/2000/svg" viewBox="0 0 163 163">
  <defs>
    <style>
      .cls-1 {
        fill: #605e6e;
      }

      .cls-2 {
        fill: none;
        stroke: #63c0ab;
        stroke-miterlimit: 10;
        stroke-width: 13px;
      }

      .cls-3 {
        fill: #2d2a3f;
      }

      .cls-4 {
        fill: #a19fad;
      }

      .cls-5 {
        fill: #f6f5fa;
      }
    </style>
  </defs>
  <g id="_图层_1" data-name="图层 1">
    <g>
      <rect class="cls-5" x="59.706" y="49.64" width="44.523" height="71.848"/>
      <path class="cls-3" d="M95.011,84.667c-.752-.555-1.544-1.094-2.398-1.507-2.118-1.023-3.499-2.559-4.396-4.539-.526-1.162-1.223-2.264-1.872-3.379-1.353-2.324-3.868-2.836-6.162-1.224-2.242,1.575-4.469,3.169-6.641,4.821-.509.387-.939,1-1.111,1.579-.567,1.915-1.014,3.858-1.476,5.797-.261,1.094.198,1.861,1.18,2.085.96.219,1.768-.312,2.059-1.416.323-1.224.737-2.448.859-3.691.169-1.723,1.446-2.543,2.956-3.452-.034.344-.028.561-.08.767-.833,3.349-1.818,6.673-2.472,10.05-.686,3.533-2.208,6.685-4.447,9.611-.623.814-1.179,1.681-1.659,2.57-.617,1.145-.218,2.269.913,2.89,1.039.571,2.361.375,3.222-.511.277-.285.497-.618.714-.945,1.325-1.999,2.722-3.965,3.933-6.018.721-1.224,1.205-2.572,1.687-3.896.356-.98.538-2.011.853-3.232,1.648,1.624,3.141,3.028,4.534,4.507.467.495.829,1.154.983,1.788.523,2.16.903,4.348,1.395,6.515.367,1.611,1.643,2.432,3.165,2.13,1.429-.284,2.133-1.481,1.802-3.073-.499-2.399-.953-4.806-1.531-7.19-.172-.711-.573-1.44-1.08-2.011-1.695-1.908-3.497-3.74-5.227-5.623-.276-.301-.623-.752-.557-1.07.41-1.966.928-3.913,1.411-5.866.749.721,1.01,1.691,1.697,2.18,1.953,1.391,4.036,2.651,6.177,3.799.38.204,1.453-.229,1.903-.637.621-.563.325-1.322-.332-1.807Z"/>
      <path class="cls-3" d="M83.933,72.374c2.037-.037,3.591-1.646,3.56-3.689-.03-2.043-1.624-3.599-3.669-3.582-2.029.017-3.648,1.623-3.656,3.627-.008,2.044,1.684,3.682,3.764,3.644Z"/>
      <path class="cls-1" d="M104.229,50.838v62.746c0,3.03-2.273,5.589-4.965,5.589h-34.594c-2.691,0-4.965-2.56-4.965-5.587v-62.748c-1.952.006-3.824.343-5.581.941-.006,23.697-.008,61.805-.008,61.805,0,6.148,4.749,11.179,10.554,11.179h34.594c5.805,0,10.554-5.03,10.554-11.179l-.017-61.808c-1.754-.596-3.624-.932-5.572-.938Z"/>
      <path class="cls-4" d="M79.587,35.205h4.762c3.1,0,5.618,2.517,5.618,5.618v3.095h-15.997v-3.095c0-3.1,2.517-5.618,5.618-5.618Z"/>
      <path class="cls-3" d="M59.758,54.959h44.419c3.471,0,6.707,1.023,9.451,2.761-.518-6.141-2.016-13.803-10.103-13.803h-43.115c-7.433,0-9.585,7.662-10.103,13.803,2.744-1.738,5.981-2.761,9.451-2.761Z"/>
      <path class="cls-4" d="M73.969,156.123c1.281.128,2.571.222,3.869.284h7.323c1.617-.078,3.216-.218,4.805-.396v-31.249h-15.997v31.361Z"/>
      <rect class="cls-2" x="6.5" y="6.5" width="150" height="150" rx="75" ry="75"/>
    </g>
  </g>
</svg>