<svg xmlns="http://www.w3.org/2000/svg" viewBox="0 0 150 150"><defs><style>.cls-1{fill:#f6f5fa;}.cls-2{fill:#c9c9d1;}.cls-3{fill:#2d2a3f;}.cls-4{fill:#b2b0bd;}.cls-5{fill:#a8a7b5;}.cls-6{fill:#a19fad;}.cls-7{fill:none;}</style></defs><g id="图层_2" data-name="图层 2"><g id="图层_1-2" data-name="图层 1"><path class="cls-1" d="M150,75a75.25,75.25,0,0,1-2.84,20.54c-.34,1.18-.7,2.35-1.1,3.51h0a76.5,76.5,0,0,1-2.84,7.15c-.33.71-.66,1.42-1,2.12a75,75,0,0,1-6.15,10.23q-1.73,2.43-3.66,4.7-2.07,2.49-4.37,4.78a74.72,74.72,0,0,1-47.3,21.74c-1.89.15-3.8.22-5.73.22q-3.6,0-7.13-.34a74.88,74.88,0,0,1-51-27.23,75.84,75.84,0,0,1-5.17-7.14,74.86,74.86,0,0,1-4.89-9c-.3-.63-.58-1.27-.85-1.91-.44-1-.85-2-1.23-3.08-.63-1.65-1.19-3.34-1.69-5A75,75,0,0,1,0,75c0-.65,0-1.3,0-2A74.81,74.81,0,0,1,22,22,75,75,0,0,1,150,73.05C150,73.7,150,74.35,150,75Z"/><path class="cls-2" d="M150,75a75.25,75.25,0,0,1-2.84,20.54c-.34,1.18-.7,2.35-1.1,3.51h0a76.5,76.5,0,0,1-2.84,7.15c-.33.71-.66,1.42-1,2.12a75,75,0,0,1-6.15,10.23q-1.73,2.43-3.66,4.7-2.07,2.49-4.37,4.78a74.72,74.72,0,0,1-47.3,21.74c-1.89.15-3.8.22-5.73.22q-3.6,0-7.13-.34a74.88,74.88,0,0,1-51-27.23,75.84,75.84,0,0,1-5.17-7.14,74.86,74.86,0,0,1-4.89-9c-.3-.63-.58-1.27-.85-1.91-.44-1-.85-2-1.23-3.08-.63-1.65-1.19-3.34-1.69-5A75,75,0,0,1,0,75c0-.65,0-1.3,0-2H150C150,73.7,150,74.35,150,75Z"/><path class="cls-3" d="M89.85,73.05H75.54l0,.78H73l0-.78H58.74L16.89,122.43a74.88,74.88,0,0,0,51,27.23L68.93,134H79.66l1.07,15.83A74.72,74.72,0,0,0,128,128q2.29-2.29,4.37-4.78Zm-17,2.73h2.85L76,79.29H72.63Zm-.46,6.83h3.77l.44,6.5H72Zm-2,29.37L71.5,96h5.59l1.08,16Z"/><path class="cls-4" d="M102.15,67.21c-.89,2.89-12.05,5.25-15.07-1.43-1.6-3.52,2.38-13.12,7-12.93C97.42,53,104.31,60.24,102.15,67.21Z"/><path class="cls-3" d="M98.36,66.26a13.11,13.11,0,0,1-2.9,2.47l.47,6.65h0a1.53,1.53,0,0,1-2.35,0h0s.31-8.13.39-9.1c0-.08-2.25-3.14-2.25-3.14l2.48,1.79.42-4.61s.49,5.4.67,6.91Z"/><path class="cls-5" d="M122.29,76.79c-1.48,4.81-20.09,8.73-25.12-2.4-2.65-5.87,4-21.86,11.73-21.53C114.41,53.09,125.88,65.16,122.29,76.79Z"/><path class="cls-3" d="M116,75.2s-3.1,3.41-4.83,4.11l.78,11.08h0a2.57,2.57,0,0,1-3.92,0h0s.51-13.54.64-15.16c0-.14-3.75-5.23-3.75-5.23L109,73l.7-7.68s.82,9,1.12,11.52Z"/><path class="cls-6" d="M150,75a75.25,75.25,0,0,1-2.84,20.54c-.34,1.18-.7,2.35-1.1,3.51h0a76.5,76.5,0,0,1-2.84,7.15c-.39,0-.77.05-1.16.06a39.06,39.06,0,0,1-5.51-.12c-8.59-.8-16.93-4.57-20.85-13.25-1.32-2.92-1.41-7.18-.55-11.85a46.73,46.73,0,0,1,2.24-8,50.65,50.65,0,0,1,4-8.26c4.23-7,10-12.32,16.22-12.05,2.89.12,6.67,2,10.45,5.1A75.38,75.38,0,0,1,150,73.05C150,73.7,150,74.35,150,75Z"/><path class="cls-3" d="M147.16,95.54c-.34,1.18-.7,2.35-1.1,3.51h0a18,18,0,0,1-4.29,3l.29,4.19.15,2.06a75,75,0,0,1-6.15,10.23c.13-3.27.31-8,.49-12.41.23-5.45.45-10.44.55-11.69,0-.29-7-9.76-7-9.76l7.71,5.56,1.3-14.33s1.53,16.81,2.09,21.48Z"/><path class="cls-4" d="M45.76,67.21c.89,2.89,12.05,5.25,15.07-1.43,1.6-3.52-2.38-13.12-7-12.93C50.49,53,43.6,60.24,45.76,67.21Z"/><path class="cls-3" d="M49.55,66.26a13.11,13.11,0,0,0,2.9,2.47L52,75.38h0a1.53,1.53,0,0,0,2.35,0h0S54,67.25,54,66.28c0-.08,2.25-3.14,2.25-3.14l-2.48,1.79-.42-4.61s-.49,5.4-.67,6.91Z"/><path class="cls-5" d="M25.62,76.79c1.49,4.81,20.09,8.73,25.12-2.4,2.65-5.87-4-21.86-11.73-21.53C33.5,53.09,22,65.16,25.62,76.79Z"/><path class="cls-3" d="M31.94,75.2s3.1,3.41,4.83,4.11L36,90.39h0a2.57,2.57,0,0,0,3.92,0h0s-.51-13.54-.64-15.16C39.26,75.09,43,70,43,70l-4.13,3-.7-7.68s-.82,9-1.12,11.52Z"/><path class="cls-6" d="M32.21,92.9c-3.92,8.68-12.26,12.45-20.85,13.25a40.43,40.43,0,0,1-4.53.16c-.3-.63-.58-1.27-.85-1.91-.44-1-.85-2-1.23-3.08-.63-1.65-1.19-3.34-1.69-5A75,75,0,0,1,0,75c0-.65,0-1.3,0-2A75.55,75.55,0,0,1,2.45,55.92c2.88-2,5.64-3.09,7.88-3.18,6.19-.27,12,5,16.22,12.05a50.65,50.65,0,0,1,4,8.26,46.73,46.73,0,0,1,2.24,8C33.62,85.72,33.53,90,32.21,92.9Z"/><path class="cls-3" d="M11.36,106.15c.12,3.1.25,6.35.36,9.14a74.86,74.86,0,0,1-4.89-9c-.3-.63-.58-1.27-.85-1.91l.16-2.32a9,9,0,0,1-1.39-.76c-.63-1.65-1.19-3.34-1.69-5l3.65,1.14C7.27,92.74,8.8,75.93,8.8,75.93l1.3,14.33,7.71-5.56s-7,9.47-7,9.76C10.91,95.71,11.13,100.7,11.36,106.15Z"/><path class="cls-7" d="M150,75a75.25,75.25,0,0,1-2.84,20.54c-.34,1.18-.7,2.35-1.1,3.51h0a76.5,76.5,0,0,1-2.84,7.15c-.33.71-.66,1.42-1,2.12a75,75,0,0,1-6.15,10.23q-1.73,2.43-3.66,4.7-2.07,2.49-4.37,4.78a74.72,74.72,0,0,1-47.3,21.74c-1.89.15-3.8.22-5.73.22q-3.6,0-7.13-.34a74.88,74.88,0,0,1-51-27.23,75.84,75.84,0,0,1-5.17-7.14,74.86,74.86,0,0,1-4.89-9c-.3-.63-.58-1.27-.85-1.91-.44-1-.85-2-1.23-3.08-.63-1.65-1.19-3.34-1.69-5A75,75,0,0,1,0,75c0-.65,0-1.3,0-2A74.81,74.81,0,0,1,22,22,75,75,0,0,1,150,73.05C150,73.7,150,74.35,150,75Z"/></g></g></svg>