<?xml version="1.0" encoding="UTF-8"?>
<svg id="Layer_2" data-name="Layer 2" xmlns="http://www.w3.org/2000/svg" viewBox="0 0 158 158">
  <defs>
    <style>
      .cls-1 {
        fill: #b2b0bd;
      }

      .cls-2 {
        fill: #c9c9d1;
      }

      .cls-3 {
        fill: #a8a7b5;
      }

      .cls-4 {
        fill: #2d2a3f;
      }

      .cls-5 {
        fill: #a19fad;
      }

      .cls-6 {
        fill: #f6f5fa;
      }

      .cls-7 {
        fill: none;
        stroke: #be87d8;
        stroke-miterlimit: 10;
        stroke-width: 8px;
      }
    </style>
  </defs>
  <g id="_图层_1" data-name="图层 1">
    <g>
      <path class="cls-6" d="M154,79c0,7.12-.99,14.01-2.84,20.54-.34,1.18-.7,2.35-1.1,3.51v.01c-.83,2.44-1.78,4.83-2.84,7.15-.33.71-.66,1.42-1.01,2.12-1.78,3.58-3.84,7-6.15,10.23-1.15,1.62-2.37,3.19-3.66,4.7-1.38,1.66-2.84,3.25-4.37,4.78-12.31,12.31-28.87,20.35-47.3,21.74-1.89.15-3.8.22-5.73.22-2.4,0-4.78-.11-7.13-.34-20.52-1.93-38.63-12.13-50.98-27.23-1.86-2.27-3.58-4.66-5.17-7.14-1.83-2.87-3.46-5.87-4.89-8.98-.3-.63-.58-1.27-.85-1.91-.44-1.01-.85-2.04-1.23-3.08-.63-1.65-1.19-3.34-1.69-5.05-1.99-6.74-3.06-13.88-3.06-21.27,0-.65.01-1.3.02-1.95.16-5.9.99-11.64,2.43-17.13,3.42-13.05,10.26-24.7,19.51-33.95C39.53,12.4,58.29,4,79,4s39.46,8.4,53.03,21.97c9.71,9.7,16.76,22.05,20,35.87,1.15,4.9,1.81,9.99,1.95,15.21.01.65.02,1.3.02,1.95Z"/>
      <path class="cls-2" d="M154,79c0,7.12-.99,14.01-2.84,20.54-.34,1.18-.7,2.35-1.1,3.51v.01c-.83,2.44-1.78,4.83-2.84,7.15-.33.71-.66,1.42-1.01,2.12-1.78,3.58-3.84,7-6.15,10.23-1.15,1.62-2.37,3.19-3.66,4.7-1.38,1.66-2.84,3.25-4.37,4.78-12.31,12.31-28.87,20.35-47.3,21.74-1.89.15-3.8.22-5.73.22-2.4,0-4.78-.11-7.13-.34-20.52-1.93-38.63-12.13-50.98-27.23-1.86-2.27-3.58-4.66-5.17-7.14-1.83-2.87-3.46-5.87-4.89-8.98-.3-.63-.58-1.27-.85-1.91-.44-1.01-.85-2.04-1.23-3.08-.63-1.65-1.19-3.34-1.69-5.05-1.99-6.74-3.06-13.88-3.06-21.27,0-.65.01-1.3.02-1.95h149.96c.01.65.02,1.3.02,1.95Z"/>
      <path class="cls-4" d="M93.85,77.05h-14.31l.05.78h-2.59l.05-.78h-14.31l-41.85,49.38c12.35,15.1,30.46,25.3,50.98,27.23l1.06-15.71h10.73l1.07,15.83c18.43-1.39,34.99-9.43,47.3-21.74,1.53-1.53,2.99-3.12,4.37-4.78l-42.55-50.21ZM76.87,79.78h2.85l.24,3.51h-3.33l.24-3.51ZM76.41,86.61h3.77l.44,6.5h-4.65l.44-6.5ZM74.42,115.98l1.08-16h5.59l1.08,16h-7.75Z"/>
      <g>
        <path class="cls-1" d="M106.152,71.215c-.893,2.888-12.055,5.244-15.076-1.437-1.591-3.521,2.381-13.122,7.039-12.924,3.306.14,10.192,7.387,8.037,14.361Z"/>
        <path class="cls-4" d="M102.361,70.262s-1.863,2.048-2.899,2.469l.466,6.646h0c-.62.728-1.727.73-2.35.005l-.004-.005s.31-8.124.387-9.099c.007-.083-2.252-3.139-2.252-3.139l2.479,1.786.419-4.608s.492,5.407.673,6.91l3.08-.966Z"/>
      </g>
      <g>
        <path class="cls-3" d="M126.293,80.786c-1.488,4.812-20.089,8.738-25.122-2.395-2.652-5.867,3.967-21.866,11.729-21.535,5.508.233,16.984,12.309,13.393,23.931Z"/>
        <path class="cls-4" d="M119.975,79.198s-3.105,3.412-4.83,4.115l.776,11.075h0c-1.033,1.213-2.878,1.217-3.916.008l-.007-.008s.516-13.538.646-15.163c.011-.139-3.752-5.231-3.752-5.231l4.131,2.977.699-7.679s.82,9.01,1.121,11.515l5.132-1.61Z"/>
      </g>
      <g>
        <path class="cls-5" d="M154,79c0,7.12-.99,14.01-2.84,20.54-.34,1.18-.7,2.35-1.1,3.51v.01c-.83,2.44-1.78,4.83-2.84,7.15-.39.03-.77.05-1.16.06-1.82.09-3.67.05-5.51-.12-8.59-.8-16.93-4.57-20.85-13.25-1.32-2.92-1.41-7.18-.55-11.85.47-2.59,1.23-5.31,2.24-8,1.07-2.86,2.42-5.68,3.97-8.26,4.23-7.01,10.03-12.32,16.22-12.05,2.89.12,6.67,1.99,10.45,5.1,1.15,4.9,1.81,9.99,1.95,15.21.01.65.02,1.3.02,1.95Z"/>
        <path class="cls-4" d="M151.16,99.54c-.34,1.18-.7,2.35-1.1,3.51v.01c-1.49,1.31-3.07,2.52-4.29,3.02l.29,4.19.15,2.06c-1.78,3.58-3.84,7-6.15,10.23.13-3.27.31-7.99.49-12.41.23-5.45.45-10.44.55-11.69,0-.29-7-9.76-7-9.76l7.71,5.56,1.3-14.33s1.53,16.81,2.09,21.48l5.96-1.87Z"/>
      </g>
      <g>
        <path class="cls-1" d="M49.759,71.215c.893,2.888,12.055,5.244,15.076-1.437,1.591-3.521-2.381-13.122-7.039-12.924-3.306.14-10.192,7.387-8.037,14.361Z"/>
        <path class="cls-4" d="M53.551,70.262s1.863,2.048,2.899,2.469l-.466,6.646h0c.62.728,1.727.73,2.35.005l.004-.005s-.31-8.124-.387-9.099c-.007-.083,2.252-3.139,2.252-3.139l-2.479,1.786-.419-4.608s-.492,5.407-.673,6.91l-3.08-.966Z"/>
      </g>
      <g>
        <path class="cls-3" d="M29.618,80.786c1.488,4.812,20.089,8.738,25.122-2.395,2.652-5.867-3.967-21.866-11.729-21.535-5.508.233-16.984,12.309-13.393,23.931Z"/>
        <path class="cls-4" d="M35.937,79.198s3.105,3.412,4.83,4.115l-.776,11.075h0c1.033,1.213,2.878,1.217,3.916.008l.007-.008s-.516-13.538-.646-15.163c-.011-.139,3.752-5.231,3.752-5.231l-4.131,2.977-.699-7.679s-.82,9.01-1.121,11.515l-5.132-1.61Z"/>
      </g>
      <g>
        <path class="cls-5" d="M36.21,96.9c-3.92,8.68-12.26,12.45-20.85,13.25-1.51.14-3.03.19-4.53.16-.3-.63-.58-1.27-.85-1.91-.44-1.01-.85-2.04-1.23-3.08-.63-1.65-1.19-3.34-1.69-5.05-1.99-6.74-3.06-13.88-3.06-21.27,0-.65.01-1.3.02-1.95.16-5.9.99-11.64,2.43-17.13,2.88-1.95,5.64-3.09,7.88-3.18,6.19-.27,11.99,5.04,16.22,12.05,1.55,2.58,2.9,5.4,3.97,8.26,1.01,2.69,1.77,5.41,2.24,8,.86,4.67.77,8.93-.55,11.85Z"/>
        <path class="cls-4" d="M15.36,110.15c.12,3.1.25,6.35.36,9.14-1.83-2.87-3.46-5.87-4.89-8.98-.3-.63-.58-1.27-.85-1.91l.16-2.32c-.42-.17-.89-.44-1.39-.76-.63-1.65-1.19-3.34-1.69-5.05l3.65,1.14c.56-4.67,2.09-21.48,2.09-21.48l1.3,14.33,7.71-5.56s-7,9.47-7,9.76c.1,1.25.32,6.24.55,11.69Z"/>
      </g>
      <path class="cls-7" d="M154,79c0,7.12-.99,14.01-2.84,20.54-.34,1.18-.7,2.35-1.1,3.51v.01c-.83,2.44-1.78,4.83-2.84,7.15-.33.71-.66,1.42-1.01,2.12-1.78,3.58-3.84,7-6.15,10.23-1.15,1.62-2.37,3.19-3.66,4.7-1.38,1.66-2.84,3.25-4.37,4.78-12.31,12.31-28.87,20.35-47.3,21.74-1.89.15-3.8.22-5.73.22-2.4,0-4.78-.11-7.13-.34-20.52-1.93-38.63-12.13-50.98-27.23-1.86-2.27-3.58-4.66-5.17-7.14-1.83-2.87-3.46-5.87-4.89-8.98-.3-.63-.58-1.27-.85-1.91-.44-1.01-.85-2.04-1.23-3.08-.63-1.65-1.19-3.34-1.69-5.05-1.99-6.74-3.06-13.88-3.06-21.27,0-.65.01-1.3.02-1.95.16-5.9.99-11.64,2.43-17.13,3.42-13.05,10.26-24.7,19.51-33.95C39.53,12.4,58.29,4,79,4s39.46,8.4,53.03,21.97c9.71,9.7,16.76,22.05,20,35.87,1.15,4.9,1.81,9.99,1.95,15.21.01.65.02,1.3.02,1.95Z"/>
    </g>
  </g>
</svg>