<?xml version="1.0" encoding="UTF-8"?>
<svg id="Layer_2" data-name="Layer 2" xmlns="http://www.w3.org/2000/svg" viewBox="0 0 163 163">
  <defs>
    <style>
      .cls-1 {
        fill: #78768c;
      }

      .cls-2 {
        fill: none;
        stroke: #f68d3e;
        stroke-miterlimit: 10;
        stroke-width: 13px;
      }

      .cls-3 {
        fill: #2d2a3f;
      }

      .cls-4 {
        fill: #a19fad;
      }

      .cls-5 {
        fill: #d9d8e0;
      }
    </style>
  </defs>
  <g id="_图层_1" data-name="图层 1">
    <g>
      <path class="cls-5" d="M156.374,85.765c-2.22,39.44-34.89,70.73-74.87,70.73h-.41c-2.12-.01-4.22-.11-6.29-.3C36.514,152.815,6.504,120.665,6.504,81.505v-.01c0-1.81.08-3.61.21-5.39l39.02,2.16.4,9.66,52.72,3.5,5.18-.06,52.34-5.6Z"/>
      <path class="cls-3" d="M105.02,91.354l-8.731,15.034,1.886,4.037,7.127,2.067s7.669,10.984,7.962,11.118-15.829,18.046-15.829,18.046l14.066-17.338-6.891-10.104s-5.958-1.148-6.636-2.411c-.678-1.263-3.589-4.256-3.589-4.256l-17.888,4.435-9.34,4.069,2.86,2.325-4.326-2.555,9.813-7.348.98-10.334,21.828-5.282.545-1.435,6.164-.068Z"/>
      <polygon class="cls-5" points="76.559 110.835 76.922 103.626 98.464 96.665 100.482 97.354 95.06 106.228 76.559 110.835"/>
      <path class="cls-3" d="M95.614,135.465l-17.1,6.19,10.04,8.93-7.46,5.91c-2.12-.01-4.22-.11-6.29-.3l9.12-5.88s-10.14-10.32-9.46-10.32c.69,0,19.04-4.65,19.04-4.65l-8.59-5.53,16.96-1.66-12.99,2.14,6.73,5.17Z"/>
      <polygon class="cls-4" points="78.518 141.656 78.503 144.716 83.919 150.318 83.899 154.269 88.551 150.587 78.518 141.656"/>
      <polygon class="cls-4" points="93.507 135.341 93.502 136.231 95.614 135.467 88.88 130.293 88.87 132.359 93.507 135.341"/>
      <path class="cls-4" d="M98.176,110.425l-1.886-4.037-.016,3.207,1.894,2.451s.083.808,6.442,2.169l6.891,10.104-.007,1.496,1.771-2.205-7.962-11.118-7.127-2.067Z"/>
      <polygon class="cls-4" points="76.559 110.835 76.497 111.983 94.385 107.548 95.224 108.434 95.06 106.228 76.559 110.835"/>
      <path class="cls-3" d="M74.15,55.537c-1.074.262-1.298,2.156-.105,2.887l14.624,8.942c.559.34,1.188.187,1.528-.372l8.876-14.668c.721-1.198-.349-2.776-1.423-2.515l-7.139,1.739-5.095-20.91c-.344-1.412-1.567-2.212-2.683-1.94l-5.049,1.23c-1.116.272-1.836,1.546-1.492,2.958l5.095,20.91-7.137,1.739Z"/>
      <path class="cls-1" d="M24.66,130.401c.265.307.527.617.797.92l20.68-43.391-.407-9.665-20.265,51.245-.805.892Z"/>
      <rect class="cls-2" x="6.5" y="6.5" width="150" height="150" rx="75" ry="75"/>
    </g>
  </g>
</svg>