<svg xmlns="http://www.w3.org/2000/svg" viewBox="0 0 150 150"><defs><style>.cls-1{fill:#f6f5fa;}.cls-2{fill:#d9d8e0;}.cls-3{fill:#2d2a3f;}.cls-4{fill:#a19fad;}.cls-5{fill:#78768c;}</style></defs><g id="图层_2" data-name="图层 2"><g id="图层_1-2" data-name="图层 1"><rect class="cls-1" width="150" height="150" rx="75"/><path class="cls-2" d="M149.87,79.27A75,75,0,0,1,75,150h-.41c-2.12,0-4.22-.11-6.29-.3A75,75,0,0,1,0,75H0c0-1.81.08-3.61.21-5.4l39,2.17.4,9.66,52.72,3.5,5.18-.07Z"/><path class="cls-3" d="M98.52,84.85l-8.73,15,1.89,4L98.8,106s7.67,11,8,11.12-15.82,18-15.82,18L105,117.82l-6.89-10.11s-6-1.14-6.64-2.41a33.23,33.23,0,0,0-3.58-4.25L70,105.48l-9.34,4.07,2.86,2.33-4.33-2.56L69,102l1-10.33,21.83-5.28.55-1.44Z"/><polygon class="cls-2" points="70.06 104.33 70.42 97.13 91.96 90.17 93.98 90.85 88.56 99.73 70.06 104.33"/><path class="cls-3" d="M89.11,129,72,135.16l10,8.92L74.59,150c-2.12,0-4.22-.11-6.29-.3l9.12-5.89S67.28,133.5,68,133.5s19-4.66,19-4.66l-8.59-5.53,17-1.65-13,2.13Z"/><polygon class="cls-4" points="72.02 135.16 72 138.22 77.42 143.82 77.4 147.77 82.05 144.09 72.02 135.16"/><polygon class="cls-4" points="87.01 128.84 87 129.73 89.11 128.97 82.38 123.79 82.37 125.86 87.01 128.84"/><path class="cls-4" d="M91.68,103.93l-1.89-4,0,3.2,1.9,2.46s.08.8,6.44,2.16L105,117.82v1.49l1.77-2.2L98.8,106Z"/><polygon class="cls-4" points="70.06 104.33 70 105.48 87.89 101.05 88.72 101.93 88.56 99.73 70.06 104.33"/><path class="cls-3" d="M67.65,49c-1.07.26-1.3,2.15-.1,2.88l14.62,8.95a1.07,1.07,0,0,0,1.53-.38l8.87-14.66c.72-1.2-.35-2.78-1.42-2.52L84,45.05,78.92,24.14a2.35,2.35,0,0,0-2.69-1.94l-5,1.23a2.35,2.35,0,0,0-1.49,3l5.1,20.91Z"/><path class="cls-5" d="M18.16,123.9c.27.31.53.62.8.92L39.64,81.43l-.41-9.67L19,123Z"/></g></g></svg>