<?xml version="1.0" encoding="UTF-8"?>
<svg id="Layer_2" data-name="Layer 2" xmlns="http://www.w3.org/2000/svg" viewBox="0 0 158 158">
  <defs>
    <style>
      .cls-1 {
        fill: none;
        stroke: #f68d3e;
        stroke-miterlimit: 10;
        stroke-width: 8px;
      }

      .cls-2 {
        fill: #78768c;
      }

      .cls-3 {
        fill: #2d2a3f;
      }

      .cls-4 {
        fill: #a19fad;
      }

      .cls-5 {
        fill: #d9d8e0;
      }
    </style>
  </defs>
  <g id="_图层_1" data-name="图层 1">
    <g>
      <path class="cls-5" d="M153.874,83.265c-2.22,39.44-34.89,70.73-74.87,70.73h-.41c-2.12-.01-4.22-.11-6.29-.3C34.014,150.315,4.004,118.165,4.004,79.005v-.01c0-1.81.08-3.61.21-5.39l39.02,2.16.4,9.66,52.72,3.5,5.18-.06,52.34-5.6Z"/>
      <path class="cls-3" d="M102.52,88.854l-8.731,15.034,1.886,4.037,7.127,2.067s7.669,10.984,7.962,11.118-15.829,18.046-15.829,18.046l14.066-17.338-6.891-10.104s-5.958-1.148-6.636-2.411c-.678-1.263-3.589-4.256-3.589-4.256l-17.888,4.435-9.34,4.069,2.86,2.325-4.326-2.555,9.813-7.348.98-10.334,21.828-5.282.545-1.435,6.164-.068Z"/>
      <polygon class="cls-5" points="74.059 108.335 74.422 101.126 95.964 94.165 97.982 94.854 92.56 103.728 74.059 108.335"/>
      <path class="cls-3" d="M93.114,132.965l-17.1,6.19,10.04,8.93-7.46,5.91c-2.12-.01-4.22-.11-6.29-.3l9.12-5.88s-10.14-10.32-9.46-10.32c.69,0,19.04-4.65,19.04-4.65l-8.59-5.53,16.96-1.66-12.99,2.14,6.73,5.17Z"/>
      <polygon class="cls-4" points="76.018 139.156 76.003 142.216 81.419 147.818 81.399 151.769 86.051 148.087 76.018 139.156"/>
      <polygon class="cls-4" points="91.007 132.841 91.002 133.731 93.114 132.967 86.38 127.793 86.37 129.859 91.007 132.841"/>
      <path class="cls-4" d="M95.676,107.925l-1.886-4.037-.016,3.207,1.894,2.451s.083.808,6.442,2.169l6.891,10.104-.007,1.496,1.771-2.205-7.962-11.118-7.127-2.067Z"/>
      <polygon class="cls-4" points="74.059 108.335 73.997 109.483 91.885 105.048 92.724 105.934 92.56 103.728 74.059 108.335"/>
      <path class="cls-3" d="M71.65,53.037c-1.074.262-1.298,2.156-.105,2.887l14.624,8.942c.559.34,1.188.187,1.528-.372l8.876-14.668c.721-1.198-.349-2.776-1.423-2.515l-7.139,1.739-5.095-20.91c-.344-1.412-1.567-2.212-2.683-1.94l-5.049,1.23c-1.116.272-1.836,1.546-1.492,2.958l5.095,20.91-7.137,1.739Z"/>
      <path class="cls-2" d="M22.16,127.901c.265.307.527.617.797.92l20.68-43.391-.407-9.665-20.265,51.245-.805.892Z"/>
      <rect class="cls-1" x="4" y="4" width="150" height="150" rx="75" ry="75"/>
    </g>
  </g>
</svg>