<svg id="Layer_1" data-name="Layer 1" xmlns="http://www.w3.org/2000/svg" viewBox="0 0 199.003 329.358"><defs><style>.cls-1{fill:#2d2a3f;}</style></defs><path class="cls-1" d="M114.012,252.079l-.014.007.02,0Z"/><path class="cls-1" d="M70.018,251.854a.609.609,0,0,0,.179-.2,2.923,2.923,0,0,1,.551-1.415c.075-.122.152-.248.221-.374s.156-.283.227-.424a3.092,3.092,0,0,1,.694-1.008c.029-.061.056-.123.084-.185a2.828,2.828,0,0,1,.608-.973.367.367,0,0,1,.1-.241.435.435,0,0,1,.288-.114c.017-.039.033-.08.05-.122a.847.847,0,0,1,.357-.493.574.574,0,0,1,.42-.5l.387-.437a.877.877,0,0,1,.582-.611,1.743,1.743,0,0,1,.6-.6c.1-.07.19-.136.274-.209a.636.636,0,0,1,.356-.515.991.991,0,0,0,.188-.153l.014-.014.87-.71.393-.329.494-.311.012-.018a.409.409,0,0,1,.238-.217.279.279,0,0,1,.171.02l.007-.006a1.7,1.7,0,0,1,.509-.374.784.784,0,0,1,.47-.386,1.271,1.271,0,0,0,.221-.113h0a1.267,1.267,0,0,1,.521-.382,1.925,1.925,0,0,0,.25-.139l0,0-.048-.1,1.507-.763.049.1.455-.192a1.426,1.426,0,0,1,.746-.279l.614-.274a.582.582,0,0,1,.552-.136.467.467,0,0,0,.322-.051c.045-.018.091-.036.139-.051l.038-.029a.712.712,0,0,1,.685-.219l.076-.033a1.08,1.08,0,0,1,.75-.248l.578-.15a1.481,1.481,0,0,1,.872-.159l.646-.17a.794.794,0,0,0,.144-.033.542.542,0,0,1,.4,0l.046-.022a.438.438,0,0,1,.339-.057.576.576,0,0,1,.4.01c.036.01.07.021.1.027a.464.464,0,0,1,.553-.138.884.884,0,0,0,.367-.049.767.767,0,0,1,.694.042l.087-.059,0,.025a1.052,1.052,0,0,1,.611,0,.917.917,0,0,0,.463.016.623.623,0,0,1,.723.05l.1-.055a.658.658,0,0,1,.672.06.355.355,0,0,1,.306.017l.185.018a1.023,1.023,0,0,1,.831.061,2.426,2.426,0,0,0,.26.089.479.479,0,0,1,.312.086.654.654,0,0,1,.6,0c.058.017.115.036.172.054a1.189,1.189,0,0,0,.622.092.525.525,0,0,1,.481.153.963.963,0,0,0,.12.086.838.838,0,0,1,.468.044.993.993,0,0,0,.239.053,1.324,1.324,0,0,1,.935.341,1.4,1.4,0,0,1,.573.194.956.956,0,0,1,.814.224l.021.015.047.088a5.136,5.136,0,0,1,1.5.564c.1.051.2.1.3.15.2.095.4.186.6.274a6.571,6.571,0,0,1,2.018,1.218.641.641,0,0,1,.526.262l.485.341a2.006,2.006,0,0,1,.7.6.93.93,0,0,1,.543.347l.025.027a1.728,1.728,0,0,0,.469.394,1.685,1.685,0,0,1,.584.536.81.81,0,0,1,.336.268q.04.048.084.093a.624.624,0,0,1,.146.21c.053.1.084.16.167.174l.028.008a1.423,1.423,0,0,1,.726.821.656.656,0,0,1,.441.388l.32.367.112.15a.376.376,0,0,1,.247.275l.269.478a1.417,1.417,0,0,1,.588.677l.011.021a2.427,2.427,0,0,1,.2.33,1.333,1.333,0,0,0,.33.462l.015.011.183.285a1.146,1.146,0,0,1,.381.563l.139.214.011,0,.095-.04,1.141,2.256-.083.054a.057.057,0,0,0-.017.014s.011.033.018.052a.524.524,0,0,1,.025.079l.079.147a1.3,1.3,0,0,1,.248.713l.17.394.024.038a.9.9,0,0,1,.195.6l.158.375a.471.471,0,0,1,.053.558,1.069,1.069,0,0,1,.291,1.145,1.292,1.292,0,0,1,.307.927l.028.118a1.38,1.38,0,0,1,.141.747,1.211,1.211,0,0,1,.121.734l-.028.2a1.408,1.408,0,0,0,.044.287,1.056,1.056,0,0,1,.023.535.217.217,0,0,1,.069.062.312.312,0,0,1,.029.246.287.287,0,0,0-.008.081l.025.028v.035l.04.518a.508.508,0,0,1,.024.434l-.018.454,42.507,8.458c.022-.057.067-.1.073-.164a1.353,1.353,0,0,1,.122-.346,1.061,1.061,0,0,0,.108-.909.748.748,0,0,0-.3-.313,2.576,2.576,0,0,0,.319-1.829,2.874,2.874,0,0,1,.045-1.108l.062-1.94v-.038a2.93,2.93,0,0,1,.065-.749,2.491,2.491,0,0,0-.034-1.358l.065-1.7a8.591,8.591,0,0,0-.379-2.306c4.2,4.125,10.266,4.319,13.283,2.3l21.823-14.58a10.241,10.241,0,0,0,2.818-14.163l-.811-1.214c-3.12-4.67-12.84-3.7-17.51-.582l-2.39,1.6L154.16,169.67a12.849,12.849,0,0,0-18.952-4.027L99.335,192.609l4.9-37.051a15.059,15.059,0,0,0-5.206-13.478,12.8,12.8,0,0,0-9.286-3.58c-.114,0-68.04,4.262-68.04,4.262a12.85,12.85,0,0,0-11.634,9.6L.414,189.657A12.851,12.851,0,1,0,25.3,196.1l7.322-28.273,20.794-1.309-5.9,44.6c-.083.064-.15.133-.242.2a1.761,1.761,0,0,0-.982,1.422c-.233.2-.488.386-.756.577a4.819,4.819,0,0,0-1.656,1.663,2.427,2.427,0,0,0-1.607,1.686L41.2,217.865a1.592,1.592,0,0,0-1.159,1.372,2.335,2.335,0,0,0-.986,1.359c-.045.117-.089.23-.137.337a1.2,1.2,0,0,0-.8.317,1,1,0,0,0-.265.664,7.783,7.783,0,0,0-1.68,2.686c-.077.171-.153.341-.231.51a8.61,8.61,0,0,0-1.918,2.784c-.2.387-.4.788-.625,1.17-.191.347-.4.695-.61,1.032A8.069,8.069,0,0,0,31.27,234a1.718,1.718,0,0,1-.5.563,1.549,1.549,0,0,0-.724,1.5,2.246,2.246,0,0,0-.76,1.5l-.011.054c-.248.919-.585,1.836-.91,2.723a29.743,29.743,0,0,0-1,3.13l42.57,8.47C69.965,251.914,69.99,251.878,70.018,251.854Z"/><path class="cls-1" d="M114.345,272.06l-.261.649a.923.923,0,0,1-.251.53.206.206,0,0,1-.071.128,1.261,1.261,0,0,1-.4.578.281.281,0,0,1-.18.225l-.036.095a.483.483,0,0,1-.16.412.445.445,0,0,0-.107.159,1.161,1.161,0,0,1-.469.625c-.044.037-.088.073-.13.111a1.368,1.368,0,0,1-.331.645l-.051.067c-.063.086-.125.175-.187.264a3.764,3.764,0,0,1-.857.969l-.076.068c-.038.055-.072.113-.108.174a1.116,1.116,0,0,1-.54.543l-.052.043a1.51,1.51,0,0,1-.65.734l-.076.055a11.235,11.235,0,0,1-2.264,1.987.929.929,0,0,1-.4.33,1.414,1.414,0,0,0-.2.116.672.672,0,0,1-.193.2,1.673,1.673,0,0,1-.244.133,1.688,1.688,0,0,0-.17.087,1.108,1.108,0,0,1-.564.387l-.593.339a.6.6,0,0,1-.25.17,10.134,10.134,0,0,1-2.571,1.255l-.292.131-.677.321-.935.33-.467.113a.536.536,0,0,1-.438.11l-.157.05a.736.736,0,0,1-.494.164c-.038,0-.075,0-.112.009a.518.518,0,0,1-.366.107.663.663,0,0,0-.147.012l-.006,0a2.129,2.129,0,0,1-.762.169,3.811,3.811,0,0,1-1.31.229c-.118.006-.237.013-.355.022a3.761,3.761,0,0,0-.442.072,2.132,2.132,0,0,1-.875.053l-.77.1c-.132,0-.264,0-.4.011a2.274,2.274,0,0,1-.849-.059,1.484,1.484,0,0,1-.723,0l-1.011-.052-.069.165-.012-.164a.738.738,0,0,1-.489-.087.834.834,0,0,0-.247-.082.572.572,0,0,1-.6-.006,1.243,1.243,0,0,1-.784-.159l-.024-.019a.186.186,0,0,1-.049.012.257.257,0,0,1-.25-.047.967.967,0,0,1-.609-.092l-.253-.054-.484-.11a1.038,1.038,0,0,1-.6-.195l-.08-.046-.27-.036a5.455,5.455,0,0,1-1.646-.539l-1.784-.756-.424-.244-.666-.286a3.092,3.092,0,0,0-.317-.144,1.633,1.633,0,0,1-.638-.386,1.36,1.36,0,0,0-.437-.23A1.117,1.117,0,0,1,78.9,282a.6.6,0,0,1-.461-.2.641.641,0,0,1-.4-.346l-.7-.465-.425-.344-.028-.015a5.794,5.794,0,0,0-.971-.853l0,0-.018-.008c-.192-.089-.452-.209-.431-.542l-.007-.011a.465.465,0,0,1-.347-.081.567.567,0,0,1-.185-.439l-.006-.007c-.26-.023-.349-.225-.416-.376a.693.693,0,0,0-.1-.182.579.579,0,0,1-.49-.329.688.688,0,0,0-.17-.195l-.033-.021-.013-.037a1.644,1.644,0,0,0-.4-.574,1.962,1.962,0,0,1-.427-.6c-.214.015-.287-.181-.329-.294l0-.007-.217-.35a.541.541,0,0,1-.283-.367l-.268-.465a1.1,1.1,0,0,1-.376-.553l-.18-.334-.392-.747a11.552,11.552,0,0,1-.936-1.854l-.1-.239-.34-.674-.16-.573a.718.718,0,0,1-.168-.54l-.121-.307v-.02a1.785,1.785,0,0,0-.188-.665,2.229,2.229,0,0,1-.2-.655.772.772,0,0,0-.069-.209.516.516,0,0,1,.028-.613,3.6,3.6,0,0,1-.426-2.413,5.29,5.29,0,0,1-.228-2.069c0-.127.006-.253.007-.379a.715.715,0,0,1-.039-.452l-42.318-8.42a18.4,18.4,0,0,0-.591,4.915,1.611,1.611,0,0,0,.013,1.58,1.8,1.8,0,0,0,.109,1.226c-.617.566-.339,1.268-.118,1.8,0,.348-.011.7-.02,1.046a14.644,14.644,0,0,0,.629,5.714,9.925,9.925,0,0,0,1.178,6.66,1.428,1.428,0,0,0-.078,1.695,2.143,2.143,0,0,1,.191.576,6.154,6.154,0,0,0,.552,1.808,4.934,4.934,0,0,1,.518,1.837v.055l.334.846a1.986,1.986,0,0,0,.463,1.492L29.183,286l.936,1.861.285.66a32,32,0,0,0,2.585,5.119l1.083,2.061.5.923a3.039,3.039,0,0,0,1.038,1.526l.739,1.284a1.5,1.5,0,0,0,.78,1.014l.6.966.007.02c.115.31.316.853.907.812a5.447,5.447,0,0,0,1.181,1.651,4.552,4.552,0,0,1,1.107,1.584l.035.1.091.058a1.883,1.883,0,0,1,.47.539,1.6,1.6,0,0,0,1.354.907,1.944,1.944,0,0,1,.278.5c.183.418.429.976,1.149,1.039l.015.02a1.571,1.571,0,0,0,.51,1.212,1.294,1.294,0,0,0,.96.224l.019.029c-.059.92.658,1.251,1.189,1.5l.049.023.007.011a2.061,2.061,0,0,0,1.476,1.164,2.053,2.053,0,0,0,1.2,1.189l.078.042,1.173.95,1.942,1.286a1.78,1.78,0,0,0,1.094.953,1.655,1.655,0,0,0,1.273.555,3.076,3.076,0,0,0,1.9,1.441,3.731,3.731,0,0,1,1.207.637,4.53,4.53,0,0,0,1.762,1.065,8.632,8.632,0,0,1,.875.4l1.838.789,1.171.673,4.927,2.089a15.019,15.019,0,0,0,4.542,1.487l.747.1c.074.041.147.084.22.127a2.879,2.879,0,0,0,1.645.539l1.337.3.7.149a2.675,2.675,0,0,0,1.68.253.717.717,0,0,0,.692.13.491.491,0,0,0,.135-.034l.065.053a3.419,3.419,0,0,0,2.164.438,1.583,1.583,0,0,0,1.655.018,2.316,2.316,0,0,1,.683.225,2.035,2.035,0,0,0,1.349.242l.034.452.189-.457,2.791.144a4.119,4.119,0,0,0,2,.016,6.3,6.3,0,0,0,2.343.161c.385-.023.749-.044,1.115-.03l2.125-.272a5.917,5.917,0,0,0,2.417-.148,9.8,9.8,0,0,1,1.219-.2c.326-.027.653-.044.98-.062a10.532,10.532,0,0,0,3.617-.633,5.851,5.851,0,0,0,2.1-.467l.015-.006a1.76,1.76,0,0,1,.406-.035,1.423,1.423,0,0,0,1.011-.3c.1-.012.206-.018.31-.025a2.018,2.018,0,0,0,1.364-.453l.433-.137a1.472,1.472,0,0,0,1.208-.305l1.292-.31,2.58-.912,1.869-.885.8-.362a28.005,28.005,0,0,0,7.1-3.465,1.643,1.643,0,0,0,.691-.469l1.639-.938a3.056,3.056,0,0,0,1.555-1.068c.145-.087.3-.162.47-.24a4.422,4.422,0,0,0,.675-.366,1.861,1.861,0,0,0,.531-.546,4.235,4.235,0,0,1,.539-.32,2.553,2.553,0,0,0,1.116-.91,31.07,31.07,0,0,0,6.251-5.485l.21-.152a4.179,4.179,0,0,0,1.794-2.027c.046-.041.094-.081.143-.118a3.074,3.074,0,0,0,1.49-1.5c.1-.168.194-.327.3-.478.071-.062.141-.125.211-.188a10.352,10.352,0,0,0,2.367-2.677c.171-.246.342-.492.515-.729l.141-.185a3.792,3.792,0,0,0,.914-1.779c.117-.105.238-.206.36-.307a3.211,3.211,0,0,0,1.294-1.725,1.234,1.234,0,0,1,.295-.441,1.32,1.32,0,0,0,.441-1.137l.1-.26a.773.773,0,0,0,.5-.624,3.466,3.466,0,0,0,1.094-1.593.571.571,0,0,0,.2-.354,2.548,2.548,0,0,0,.692-1.464l.722-1.792a16.508,16.508,0,0,0,1.79-3.733c.167-.441.34-.9.522-1.335.082-.189.165-.379.248-.568a12.993,12.993,0,0,0,1.457-5.2c.024-.049.05-.1.076-.144L114.9,270.946A5.114,5.114,0,0,1,114.345,272.06Z"/><path class="cls-1" d="M95.226,130.792a21.512,21.512,0,1,0-29.837-5.937A21.51,21.51,0,0,0,95.226,130.792Z"/><path class="cls-1" d="M110.542,271.666l0-.012-.016,0Z"/><path class="cls-1" d="M47.564,23.515c-3.353,3.858-2.987,10.158-2.516,15.813-6.615,3.158-12.73,7.036-15.438,13.259a2.093,2.093,0,0,0,1.232,2.707C42.867,59.316,45.05,77.3,46.987,89.675a2.006,2.006,0,0,0,3.49,1.041,64.621,64.621,0,0,1,25.186-17.81c1.992-1.282,1.783-3,.327-4.624-1.575-1.69-3.457-3.149-4.543-5.352a1.509,1.509,0,0,1,.235-1.806c2.928-3.915,6.866-5.372,12.122-6.954,4.9-1.474,10.8-3.025,17.094-6.807l49.866,100.493-31.07-69.947L85.942,6.275a4,4,0,1,0-5.945.7,3.93,3.93,0,0,0,2.358.987l.628,1.364c-7.178,4.965-13.976,6.749-19.951,8.061-6.242,1.37-11.813,2.067-15.468,6.126Zm47.68,11.862a26.786,26.786,0,0,1-8.658-18.39Zm55.52,112.479,2.249-1.546L85.942,6.275"/><path class="cls-1" d="M95.759,168.114l35.8-4.04A12.851,12.851,0,0,0,142.7,153.905l7.794-37.727a12.851,12.851,0,1,0-25.171-5.2l-5.908,28.6-30.793,3.481"/></svg>