<?xml version="1.0" encoding="utf-8"?>
<!-- Generator: Adobe Illustrator 24.3.0, SVG Export Plug-In . SVG Version: 6.00 Build 0)  -->
<svg version="1.1" id="Layer_1" xmlns="http://www.w3.org/2000/svg" xmlns:xlink="http://www.w3.org/1999/xlink" x="0px" y="0px"
	 viewBox="0 0 792 612" style="enable-background:new 0 0 792 612;" xml:space="preserve">
<style type="text/css">
	.st0{fill:#78C8AA;}
	.st1{fill:#FAD68A;}
	.st2{fill:#EA734D;}
	.st3{fill:#2D2A3F;}
</style>
<g>
	<g>
		<g>
			<path class="st0" d="M350.1,262.4h-75.6c1.1,31.8,13.8,60.5,34,82.3l53.5-53.5C355.4,283.3,351.1,273.3,350.1,262.4z"/>
			<path class="st1" d="M315.5,351.7c21.7,20,50.4,32.6,82,33.7v-75.6c-10.8-0.9-20.6-5.1-28.5-11.6L315.5,351.7z"/>
			<path class="st2" d="M435.5,297.8c-8,6.7-18,11.1-29,12v75.6c31.8-1.1,60.7-13.9,82.5-34.1L435.5,297.8z"/>
		</g>
		<g>
			<path class="st3" d="M424.9,261.3C424.9,261.3,424.9,261.3,424.9,261.3C424.9,261.3,424.9,261.3,424.9,261.3
				C424.9,261.3,424.9,261.3,424.9,261.3z"/>
			<path class="st3" d="M388.5,236.7c0.1,0,0.2,0,0.3-0.1c0.3-0.4,0.8-0.7,1.2-0.9c0.1-0.1,0.3-0.1,0.4-0.2c0.1-0.1,0.3-0.1,0.4-0.2
				c0.3-0.2,0.7-0.4,1.1-0.5c0.1,0,0.1-0.1,0.2-0.1c0.3-0.2,0.6-0.4,1-0.5c0.1-0.1,0.1-0.1,0.2-0.1c0.1,0,0.2,0,0.3,0.1
				c0,0,0.1,0,0.1-0.1c0.2-0.1,0.3-0.2,0.6-0.2c0.2-0.2,0.4-0.3,0.6-0.2l0.6-0.1c0.2-0.2,0.5-0.3,0.8-0.2c0.3-0.1,0.6-0.2,0.8-0.2
				c0.1,0,0.2,0,0.3,0c0.2-0.2,0.4-0.2,0.6-0.2c0.1,0,0.2,0,0.2,0l0,0l1.1-0.1l0.5-0.1l0.6,0l0,0c0.1,0,0.2-0.1,0.3,0
				c0.1,0,0.1,0.1,0.1,0.1l0,0c0.2,0,0.4-0.1,0.6,0c0.2-0.1,0.4-0.1,0.6-0.1c0.1,0,0.2,0,0.2,0h0c0.2-0.1,0.4-0.1,0.6,0
				c0.1,0,0.2,0,0.3,0c0,0,0,0,0,0l0-0.1l1.7,0.2l0,0.1l0.5,0.1c0.3,0,0.5,0,0.8,0.2l0.7,0.1c0.2,0,0.4,0,0.5,0.2
				c0.1,0.1,0.2,0.1,0.3,0.1c0,0,0.1,0,0.1,0l0,0c0.2,0,0.5,0,0.7,0.2l0.1,0c0.3,0,0.6,0.1,0.8,0.2l0.6,0.2c0.3,0,0.6,0.1,0.8,0.4
				l0.6,0.2c0,0,0.1,0,0.1,0.1c0.1,0,0.3,0.1,0.3,0.2c0,0,0,0,0.1,0c0.1,0,0.2,0,0.3,0.1c0.2,0,0.3,0.1,0.3,0.2c0,0,0,0.1,0.1,0.1
				c0.1,0,0.4-0.1,0.5,0.2c0.1,0.1,0.2,0.1,0.3,0.2c0.2,0.1,0.4,0.1,0.6,0.4l0.1,0l0,0c0.2,0,0.4,0.2,0.5,0.3
				c0.1,0.1,0.2,0.2,0.4,0.3c0.3,0,0.5,0.2,0.6,0.4l0.1,0c0.3,0.1,0.4,0.2,0.5,0.4c0.1,0,0.2,0.1,0.2,0.2l0.1,0.1
				c0.3,0.1,0.5,0.3,0.7,0.5c0.1,0.1,0.1,0.2,0.2,0.2c0.1,0.1,0.2,0.1,0.2,0.2c0.2,0,0.4,0.1,0.5,0.3c0,0,0.1,0.1,0.1,0.1
				c0.1,0.2,0.3,0.3,0.5,0.4c0.2,0.1,0.3,0.3,0.3,0.4c0,0,0,0.1,0.1,0.1c0.2,0.1,0.3,0.2,0.4,0.3c0.1,0.1,0.1,0.1,0.2,0.2
				c0.3,0.2,0.5,0.4,0.6,0.8c0.2,0.1,0.3,0.3,0.4,0.5c0.3,0.1,0.5,0.4,0.6,0.6l0,0l0,0.1c0.4,0.4,0.7,0.8,0.9,1.3
				c0.1,0.1,0.1,0.2,0.2,0.3c0.1,0.2,0.2,0.4,0.3,0.6c0.4,0.7,0.8,1.3,1,2.1c0.2,0.1,0.3,0.3,0.3,0.5l0.2,0.6
				c0.1,0.3,0.3,0.6,0.3,0.9c0.2,0.2,0.2,0.4,0.3,0.6l0,0c0,0.2,0.1,0.4,0.2,0.6c0.1,0.2,0.2,0.5,0.2,0.8c0.1,0.1,0.1,0.3,0.1,0.4
				c0,0,0,0.1,0,0.1c0,0.1,0,0.2,0,0.3c0,0.1,0,0.2,0,0.2l0,0c0.2,0.3,0.2,0.7,0.1,1.1c0.2,0.2,0.2,0.4,0.2,0.6l0.1,0.5l0,0.2
				c0.1,0.1,0.1,0.2,0.1,0.4l0,0.5c0.2,0.3,0.1,0.6,0.1,0.9l0,0c0,0.1,0,0.3,0,0.4c0,0.2,0,0.4,0,0.6l0,0l0,0.3
				c0.1,0.2,0.1,0.5,0,0.7l0,0.3c0,0,0,0,0,0l0.1,0l-0.3,2.5l-0.1,0c0,0,0,0,0,0c0,0,0,0,0,0.1c0,0,0,0.1,0,0.1l0,0.2
				c0,0.2,0,0.5-0.2,0.7l-0.1,0.4l0,0c0,0.2,0,0.4-0.2,0.6l-0.1,0.4c0.1,0.3-0.1,0.4-0.3,0.5c0.1,0.5,0,0.8-0.4,1.1
				c0,0.3,0,0.7-0.3,0.9l0,0.1c0,0.2-0.1,0.5-0.3,0.7c0,0.3-0.1,0.5-0.3,0.7l-0.1,0.2c-0.1,0.1-0.1,0.2-0.1,0.3
				c-0.1,0.2-0.1,0.3-0.3,0.5c0,0,0,0.1,0,0.1c0,0.1-0.1,0.2-0.1,0.2c0,0,0,0.1-0.1,0.1l0,0l0,0l-0.3,0.5c0,0.1-0.1,0.3-0.2,0.4
				l-0.3,0.4l30.6,30.6c0,0,0.1,0,0.2-0.1c0.1-0.1,0.2-0.1,0.3-0.2c0.2-0.2,0.5-0.3,0.6-0.7c0-0.1,0-0.3-0.1-0.4
				c0.7-0.2,1-0.8,1.3-1.3c0.2-0.4,0.4-0.7,0.7-0.9l1.1-1.6l0,0c0.1-0.2,0.3-0.4,0.5-0.6c0.3-0.3,0.6-0.6,0.7-1.1l1-1.4
				c0.3-0.2,0.9-1.8,1-2.1c1.2,5.8,6.1,9.3,9.8,9.3h26.2c5.6,0,10.2-4.6,10.2-10.2v-1.5c0-5.6-8.6-10.2-14.2-10.2H489l15-62.9
				c0.3-3.7-1-7.4-3.6-10c-2.6-2.7-6.2-4.1-9.9-3.9l-44.8,2.5l24.7-28.1c3.5-4,4.5-9.3,3.2-14.1c-0.7-3.3-2.7-6.2-5.7-8.1
				c-0.1-0.1-58.9-34.3-58.9-34.3c-4.8-2.8-10.9-2.2-15,1.5l-28.7,25.6c-5.3,4.7-5.8,12.8-1,18.1c4.7,5.3,12.8,5.8,18.1,1L404,146
				l18,10.5l-29.7,33.8c-0.1,0-0.2,0-0.3,0c-0.5,0-1.2,0-1.6,0.6c-0.3,0-0.6,0-0.9,0.1c-0.8,0-1.6,0-2.3,0.5
				c-0.9-0.3-1.7,0.1-2.3,0.5l-1.6,0.4c-0.6-0.2-1.2,0-1.7,0.5c-0.7-0.1-1.1,0.3-1.6,0.6c-0.1,0.1-0.2,0.1-0.3,0.2
				c-0.2-0.1-0.5-0.2-0.8-0.2c-0.2,0-0.4,0.2-0.6,0.4c-1.1,0.2-2,0.7-2.9,1.3c-0.2,0.1-0.3,0.2-0.5,0.3c-1.2,0.1-2.2,0.7-3.1,1.2
				c-0.4,0.2-0.8,0.4-1.2,0.6c-0.4,0.2-0.7,0.4-1.1,0.5c-1.2,0.6-2.5,1.2-3.4,2.4c-0.2,0.1-0.4,0.2-0.7,0.2
				c-0.5,0.1-1.1,0.1-1.4,0.8c-0.7,0-1.1,0.4-1.5,0.8l0,0c-0.7,0.6-1.5,1.2-2.3,1.8c-0.9,0.6-1.8,1.3-2.6,2l30.7,30.7
				C388.4,236.7,388.4,236.7,388.5,236.7z"/>
			<path class="st3" d="M414.1,278.1l-0.6,0.4c-0.1,0.2-0.3,0.2-0.5,0.3c0,0-0.1,0.1-0.1,0.1c-0.2,0.1-0.4,0.2-0.7,0.3
				c-0.1,0.1-0.2,0.1-0.3,0.1l-0.1,0.1c-0.1,0.2-0.2,0.2-0.4,0.3c-0.1,0-0.1,0-0.2,0.1c-0.2,0.2-0.5,0.2-0.7,0.3c-0.1,0-0.1,0-0.2,0
				c-0.2,0.2-0.4,0.3-0.6,0.4l-0.1,0c-0.1,0-0.2,0.1-0.3,0.1c-0.4,0.2-0.8,0.3-1.3,0.3c0,0-0.1,0-0.1,0c-0.1,0-0.1,0.1-0.2,0.1
				c-0.2,0.1-0.5,0.2-0.8,0.2c0,0,0,0-0.1,0c-0.3,0.2-0.6,0.3-0.9,0.2l-0.1,0c-1.1,0.3-2.2,0.4-3,0.4c-0.2,0.1-0.4,0.1-0.5,0
				c-0.1,0-0.2,0-0.2,0c-0.1,0-0.2,0.1-0.3,0.1c-0.1,0-0.2,0-0.3,0c-0.1,0-0.1,0-0.2,0c-0.2,0.1-0.5,0.1-0.7,0l-0.7,0
				c-0.1,0-0.2,0-0.3,0c-1,0-1.9-0.1-2.8-0.4l-0.3-0.1l-0.7-0.1l-1-0.2l-0.5-0.2c-0.1,0-0.3,0-0.4-0.2l-0.2,0
				c-0.2,0-0.4-0.1-0.5-0.1c0,0-0.1,0-0.1-0.1c-0.2,0-0.3-0.1-0.4-0.1c0,0-0.1-0.1-0.1-0.1l0,0c-0.2-0.1-0.5-0.1-0.7-0.3
				c-0.5-0.1-0.8-0.3-1.2-0.5c-0.1-0.1-0.2-0.1-0.3-0.2c-0.1-0.1-0.3-0.1-0.4-0.2c-0.3-0.1-0.5-0.2-0.8-0.4l-0.7-0.3
				c-0.1-0.1-0.2-0.1-0.3-0.2c-0.2-0.1-0.5-0.3-0.7-0.5c-0.2-0.1-0.4-0.2-0.6-0.4l-0.8-0.6l-0.1,0.1l0.1-0.1
				c-0.2-0.1-0.3-0.2-0.4-0.3c0-0.1-0.1-0.2-0.2-0.2c-0.3,0-0.4-0.2-0.5-0.3c-0.3-0.2-0.5-0.3-0.6-0.6l0,0c0,0,0,0,0,0
				c-0.1,0-0.2-0.1-0.2-0.2c-0.2-0.1-0.4-0.3-0.5-0.4l-0.2-0.2l-0.3-0.4c-0.2-0.1-0.3-0.3-0.4-0.5c0,0,0-0.1,0-0.1l-0.2-0.2
				c-0.5-0.4-0.8-0.9-1.1-1.4l-1.1-1.6l-0.2-0.4l-0.4-0.6c-0.1-0.1-0.1-0.2-0.2-0.3c-0.1-0.2-0.3-0.4-0.3-0.7c0-0.1-0.1-0.3-0.2-0.4
				c-0.2-0.2-0.3-0.5-0.3-0.8c-0.1-0.1-0.3-0.2-0.3-0.4c-0.1-0.2-0.2-0.3-0.1-0.5l-0.3-0.8l-0.2-0.5l0,0c-0.1-0.2-0.2-0.4-0.1-0.6
				c-0.2-0.2-0.2-0.4-0.2-0.6l0,0l0,0c-0.1-0.2-0.3-0.4-0.1-0.7c0,0,0,0,0,0c-0.1-0.1-0.2-0.2-0.2-0.3c0-0.1,0-0.3,0.1-0.5
				c0,0,0,0,0,0c-0.2-0.2-0.2-0.4-0.1-0.5c0-0.1,0-0.1,0-0.2c-0.2-0.1-0.2-0.4-0.2-0.5c0-0.1,0-0.2,0-0.3l0,0l0,0
				c0.1-0.2,0-0.5,0-0.7c0-0.2-0.1-0.5,0-0.7c-0.2-0.1-0.1-0.3-0.1-0.4l0,0l0-0.4c-0.1-0.1-0.1-0.3,0-0.5l0-0.5
				c-0.1-0.2,0-0.5,0-0.7l0-0.4l0.1-0.8c0-0.7,0.1-1.4,0.3-2.1l0-0.3l0.1-0.7l0.2-0.6c0-0.2,0-0.4,0.2-0.5l0.1-0.3l0,0
				c0.1-0.2,0.2-0.4,0.2-0.7c0-0.2,0.1-0.4,0.2-0.7c0-0.1,0-0.1,0.1-0.2c0-0.2,0.1-0.4,0.4-0.5c0.1-1,0.4-1.7,1-2.2
				c0.2-0.7,0.6-1.3,1-1.8c0.1-0.1,0.1-0.2,0.2-0.3c0-0.1,0.1-0.3,0.2-0.4l-30.5-30.5c-1.2,1.1-2.4,2.3-3.2,3.8
				c-0.5,0.3-0.8,0.7-0.9,1.3c-0.3,0.2-0.5,0.6-0.6,1.1c-0.8,0.1-1,0.9-1.1,1.4c-0.2,0.3-0.4,0.6-0.6,0.9c-1.1,1.5-2.2,3.1-2.7,5.1
				c-1.5,1.5-2.4,3.5-2.7,6.2c-0.8,0.2-0.9,0.9-1,1.4c0,0.2-0.1,0.4-0.2,0.6c-0.3,0.6-0.4,1.2-0.5,1.8c-0.1,0.7-0.2,1.3-0.6,1.8l0,0
				l-0.2,0.9c-0.4,0.4-0.5,1-0.4,1.5l-0.5,1.6l-0.3,2.1l-0.1,0.7c-0.3,1.8-0.7,3.8-0.7,5.7l-0.2,2.3l-0.1,1c-0.1,0.6-0.2,1.2,0,1.8
				l-0.1,1.5c-0.2,0.5-0.1,0.9,0.1,1.3l0,1.1l0,0c-0.1,0.3-0.2,0.9,0.3,1.2c-0.1,0.7,0,1.4,0.1,2c0.1,0.7,0.2,1.3,0,1.9l0,0.1l0,0.1
				c0.1,0.2,0.1,0.4,0.1,0.7c0,0.5,0,1.1,0.6,1.5c0,0.2,0,0.4,0,0.6c-0.1,0.4-0.2,1,0.4,1.5c0,0,0,0,0,0c-0.3,0.5-0.4,0.9-0.2,1.3
				c0.1,0.3,0.3,0.5,0.7,0.7c0,0,0,0,0,0c-0.6,0.7-0.1,1.4,0.2,1.9l0,0l0,0c0,0.6,0,1.3,0.6,1.8c-0.2,0.6,0.1,1.2,0.3,1.7l0,0.1
				l0.4,1.4l0.9,2.1c-0.1,0.5,0,0.9,0.4,1.4c0,0.6,0.4,0.9,0.8,1.2c-0.1,0.9,0.4,1.6,0.8,2.3c0.3,0.4,0.6,0.8,0.6,1.2
				c0.1,0.7,0.5,1.3,0.9,1.9c0.2,0.3,0.4,0.5,0.5,0.8l1.1,1.7l0.6,1.2l2.9,4.5c0.7,1.4,1.7,2.6,3,3.8l0.6,0.5c0,0.1,0.1,0.2,0.1,0.2
				c0.2,0.5,0.5,1,1.1,1.4l0.9,1l0.5,0.5c0.3,0.4,0.6,0.9,1.3,1.1c0.1,0.3,0.4,0.4,0.5,0.5c0,0,0.1,0.1,0.1,0l0,0.1
				c0.3,0.6,0.8,1.1,1.6,1.6c0.3,0.5,0.7,0.9,1.4,0.9c0.2,0.1,0.3,0.3,0.4,0.6c0.2,0.4,0.5,0.8,1,1l-0.2,0.4l0.4-0.3l2.2,1.7
				c0.6,0.6,1.1,0.9,1.7,1.1c0.5,0.6,1.2,1,1.9,1.4c0.3,0.2,0.6,0.4,0.9,0.6l1.9,1c0.6,0.6,1.4,0.9,2.1,1.2c0.4,0.2,0.8,0.3,1.1,0.5
				c0.3,0.2,0.6,0.3,0.8,0.5c1,0.6,2.1,1.2,3.4,1.5c0.6,0.4,1.3,0.6,2,0.8l0,0c0.1,0,0.2,0.1,0.4,0.2c0.3,0.2,0.6,0.4,1,0.3
				c0.1,0,0.2,0.1,0.3,0.2c0.4,0.2,0.8,0.5,1.4,0.4l0.4,0.1c0.4,0.4,0.9,0.4,1.2,0.4l1.2,0.5l2.7,0.7l2,0.3l0.9,0.1
				c2.5,0.7,5.1,1.1,7.8,1.1c0.3,0.1,0.6,0.1,0.8,0l1.9,0.1c0.6,0.1,1.2,0.2,1.9,0c0.2,0,0.3,0,0.5,0.1c0.2,0,0.5,0.1,0.8,0.1
				c0.2,0,0.5,0,0.7-0.2c0.2,0,0.4,0,0.6,0c0.4,0,0.9,0.1,1.4-0.1c2.3,0,5.3-0.2,8.2-1.1l0.3,0c1,0.1,1.9-0.2,2.6-0.7
				c0.1,0,0.1,0,0.2,0c0.8,0.2,1.5-0.1,2.1-0.4c0.2-0.1,0.3-0.2,0.5-0.2c0.1,0,0.2,0,0.3,0c1.2,0,2.4-0.5,3.5-0.9
				c0.3-0.1,0.6-0.2,0.8-0.3l0.2-0.1c0.6-0.2,1.3-0.4,1.7-1c0.2,0,0.3,0,0.5-0.1c0.7-0.1,1.4-0.1,2-0.7c0.1-0.1,0.3-0.2,0.5-0.2
				c0.3-0.1,0.8-0.2,1-0.7l0.2-0.2c0.2,0,0.5,0,0.8-0.2c0.7,0,1.3-0.4,1.8-0.7c0.1,0,0.3-0.1,0.4-0.2c0.5-0.2,1-0.3,1.4-0.8l1.6-1.1
				c1.3-0.5,2.5-1.3,3.6-2.1c0.4-0.3,0.8-0.6,1.2-0.8c0.2-0.1,0.3-0.2,0.5-0.3c1.5-1,3-1.9,4.1-3.5c0,0,0.1-0.1,0.1-0.1l-30.5-30.5
				C414.8,277.7,414.5,278,414.1,278.1z"/>
			<path class="st3" d="M476.7,150c11.9,0,21.5-9.6,21.5-21.5c0-11.9-9.6-21.5-21.5-21.5c-11.9,0-21.5,9.6-21.5,21.5
				C455.2,140.4,464.8,150,476.7,150z"/>
		</g>
	</g>
	<g>
		<path class="st3" d="M98.7,447.3c-0.2-0.3-1-0.9-2.4-1.7c-1.4-0.8-3.1-1.7-5.1-2.6c-2-0.9-4.3-1.7-6.7-2.4c-2.4-0.7-4.8-1-7.2-1
			c-6.6,0-10,2.2-10,6.7c0,1.4,0.4,2.5,1.1,3.4c0.7,0.9,1.8,1.7,3.2,2.4c1.4,0.7,3.1,1.4,5.3,2c2.1,0.6,4.6,1.3,7.4,2
			c3.8,1.1,7.3,2.2,10.4,3.4c3.1,1.2,5.7,2.8,7.9,4.6c2.1,1.8,3.8,4.1,5,6.7c1.2,2.6,1.8,5.8,1.8,9.5c0,4.5-0.8,8.4-2.5,11.5
			c-1.7,3.1-3.9,5.7-6.7,7.6c-2.8,1.9-6,3.3-9.6,4.2c-3.6,0.9-7.4,1.3-11.2,1.3c-2.9,0-6-0.2-9.1-0.7c-3.1-0.5-6.1-1.1-9.1-2
			c-2.9-0.9-5.8-1.9-8.5-3.1c-2.8-1.2-5.3-2.6-7.6-4.2l8.1-16.2c0.3,0.4,1.3,1.1,2.9,2.1c1.7,1.1,3.7,2.1,6.2,3.2
			c2.5,1.1,5.2,2,8.2,2.8c3,0.8,6.1,1.2,9.2,1.2c6.6,0,9.8-2,9.8-6c0-1.5-0.5-2.8-1.5-3.7s-2.3-1.9-4.1-2.7
			c-1.7-0.8-3.8-1.5-6.2-2.2c-2.4-0.7-5-1.4-7.7-2.3c-3.7-1.1-6.9-2.4-9.6-3.7c-2.7-1.3-5-2.8-6.7-4.6c-1.8-1.7-3.1-3.7-4-6
			c-0.9-2.3-1.3-4.9-1.3-7.9c0-4.2,0.8-8,2.4-11.2c1.6-3.2,3.7-6,6.4-8.2c2.7-2.2,5.9-3.9,9.4-5c3.6-1.1,7.4-1.7,11.4-1.7
			c2.8,0,5.5,0.3,8.3,0.8c2.7,0.5,5.3,1.2,7.8,2c2.5,0.8,4.8,1.8,7,2.8c2.1,1.1,4.1,2.1,5.9,3.2L98.7,447.3z"/>
		<path class="st3" d="M138.2,504.1v-80.3h18.6v80.3H138.2z"/>
		<path class="st3" d="M190.2,504.1v-80.3h30c6.6,0,12.4,1.1,17.4,3.2c5,2.1,9.1,5,12.5,8.6c3.4,3.6,5.9,7.9,7.6,12.7
			c1.7,4.9,2.5,10.1,2.5,15.6c0,6.1-0.9,11.6-2.8,16.6c-1.9,4.9-4.6,9.2-8.1,12.7c-3.5,3.5-7.7,6.2-12.7,8.1
			c-4.9,1.9-10.4,2.9-16.5,2.9H190.2z M241.4,463.8c0-3.5-0.5-6.8-1.4-9.7c-0.9-2.9-2.3-5.4-4.1-7.5c-1.8-2.1-4-3.7-6.7-4.9
			c-2.6-1.1-5.6-1.7-8.9-1.7h-11.4v47.7h11.4c3.4,0,6.4-0.6,9.1-1.8c2.6-1.2,4.8-2.9,6.6-5c1.8-2.1,3.1-4.7,4.1-7.6
			C240.9,470.5,241.4,467.3,241.4,463.8z"/>
		<path class="st3" d="M345.8,487.8v16.3h-56.5v-80.3h55.4v16.3h-36.9v15.6h31.7v15h-31.7v17.1H345.8z"/>
		<path class="st3" d="M401.9,423.9H419l8.1,25.7l8.1-25.7h17.2L439,461.2l8.1,21.6l20.1-59.1h20.3l-32.1,80.3h-15.5l-12.8-31.5
			l-12.7,31.5h-15.6l-32-80.3H387l20.3,59.1l7.9-21.6L401.9,423.9z"/>
		<path class="st3" d="M527.6,423.8h16.7l29.3,80.3h-19l-6.2-18h-25l-6.1,18h-19L527.6,423.8z M545.4,473.3l-9.4-28.4l-9.6,28.4
			H545.4z"/>
		<path class="st3" d="M599.7,504.1v-80.3h18.6v64h38.9v16.3H599.7z"/>
		<path class="st3" d="M684,504.1v-80.3h18.6v34.6l29.4-34.6h20.8l-30.1,35.9l32.1,44.5h-21.2l-22.7-32.4l-8.4,8.7v23.6H684z"/>
	</g>
	<g>
		<path class="st3" d="M53.6,404.3v-33.9h14.5c1.6,0,3.1,0.3,4.5,1c1.4,0.7,2.5,1.5,3.5,2.6c1,1.1,1.7,2.3,2.3,3.7
			c0.6,1.4,0.8,2.8,0.8,4.2c0,1.5-0.3,2.9-0.8,4.3c-0.5,1.4-1.3,2.6-2.2,3.7c-0.9,1.1-2.1,1.9-3.4,2.6c-1.3,0.6-2.8,1-4.4,1h-6.9
			v10.9H53.6z M61.5,386.5h6.4c0.9,0,1.7-0.4,2.4-1.2c0.7-0.8,1-2,1-3.5c0-0.8-0.1-1.5-0.3-2.1c-0.2-0.6-0.5-1.1-0.8-1.4
			c-0.4-0.4-0.7-0.7-1.2-0.8c-0.4-0.2-0.9-0.3-1.3-0.3h-6.1V386.5z"/>
		<path class="st3" d="M91.1,404.3v-33.9h15.3c1.6,0,3.1,0.3,4.4,1c1.4,0.7,2.5,1.5,3.5,2.6c1,1.1,1.8,2.3,2.3,3.7
			c0.6,1.4,0.8,2.8,0.8,4.2c0,1.1-0.1,2.1-0.4,3c-0.3,1-0.6,1.9-1.1,2.7c-0.5,0.9-1.1,1.6-1.7,2.3c-0.7,0.7-1.5,1.3-2.3,1.7
			l7.5,12.6h-8.8l-6.5-10.9h-5.1v10.9H91.1z M98.9,386.5h7.2c0.9,0,1.7-0.4,2.4-1.3c0.7-0.9,1-2,1-3.4c0-1.4-0.4-2.5-1.1-3.3
			c-0.8-0.8-1.6-1.2-2.5-1.2h-6.9V386.5z"/>
		<path class="st3" d="M145.6,404.6c-2.5,0-4.8-0.5-6.9-1.5c-2.1-1-3.8-2.3-5.3-3.9c-1.5-1.6-2.6-3.4-3.4-5.5
			c-0.8-2.1-1.2-4.2-1.2-6.4c0-2.2,0.4-4.4,1.3-6.5c0.8-2.1,2-3.9,3.5-5.5c1.5-1.6,3.3-2.8,5.4-3.8c2.1-0.9,4.3-1.4,6.8-1.4
			c2.5,0,4.8,0.5,6.9,1.5c2.1,1,3.8,2.3,5.3,3.9c1.5,1.6,2.6,3.5,3.4,5.5c0.8,2.1,1.2,4.2,1.2,6.3c0,2.2-0.4,4.4-1.3,6.5
			c-0.8,2.1-2,3.9-3.5,5.5c-1.5,1.6-3.3,2.8-5.4,3.8C150.3,404.1,148.1,404.6,145.6,404.6z M136.8,387.4c0,1.3,0.2,2.6,0.6,3.8
			c0.4,1.2,0.9,2.3,1.7,3.3c0.7,1,1.7,1.7,2.8,2.3c1.1,0.6,2.4,0.9,3.8,0.9c1.5,0,2.8-0.3,3.9-0.9c1.1-0.6,2-1.4,2.8-2.4
			c0.7-1,1.3-2.1,1.6-3.3c0.4-1.2,0.5-2.5,0.5-3.8c0-1.3-0.2-2.6-0.6-3.8c-0.4-1.2-1-2.3-1.7-3.3c-0.8-0.9-1.7-1.7-2.8-2.2
			c-1.1-0.6-2.4-0.8-3.8-0.8c-1.5,0-2.8,0.3-3.9,0.9c-1.1,0.6-2,1.4-2.8,2.3c-0.7,1-1.3,2-1.7,3.3
			C136.9,384.9,136.8,386.1,136.8,387.4z"/>
		<path class="st3" d="M171.7,396.3c0.3,0.3,1,0.6,2,1c1,0.4,2.2,0.6,3.6,0.6c1.2,0,2.1-0.2,2.8-0.6c0.7-0.4,1.2-1,1.6-1.8
			c0.4-0.8,0.6-1.9,0.7-3.2c0.1-1.3,0.2-2.8,0.2-4.6v-17.3h7.8v17.3c0,2.6-0.1,4.9-0.4,7.1c-0.3,2.1-0.9,3.9-1.8,5.4
			c-0.9,1.5-2.2,2.7-4,3.5c-1.8,0.8-4.1,1.2-7,1.2c-2.9,0-5.3-0.7-7.4-2.1L171.7,396.3z"/>
		<path class="st3" d="M228.2,397.4v6.9h-23.9v-33.9h23.4v6.9h-15.6v6.6h13.4v6.4h-13.4v7.2H228.2z"/>
		<path class="st3" d="M237.9,387.1c0-2,0.4-4.1,1.1-6.1c0.8-2,1.9-3.8,3.3-5.4c1.5-1.6,3.3-2.9,5.4-3.9c2.1-1,4.5-1.5,7.2-1.5
			c3.2,0,6,0.7,8.3,2.1c2.3,1.4,4.1,3.2,5.2,5.4l-6,4.2c-0.4-0.9-0.9-1.6-1.5-2.2c-0.6-0.6-1.2-1.1-1.9-1.4
			c-0.7-0.4-1.4-0.6-2.1-0.8c-0.7-0.1-1.5-0.2-2.2-0.2c-1.5,0-2.8,0.3-3.9,0.9c-1.1,0.6-2,1.4-2.8,2.3c-0.7,1-1.3,2-1.6,3.3
			c-0.4,1.2-0.5,2.4-0.5,3.7c0,1.3,0.2,2.6,0.6,3.9c0.4,1.2,1,2.3,1.8,3.3c0.8,1,1.7,1.7,2.8,2.3c1.1,0.6,2.3,0.8,3.7,0.8
			c0.7,0,1.4-0.1,2.2-0.3c0.7-0.2,1.5-0.4,2.2-0.8s1.3-0.8,1.9-1.4c0.6-0.6,1-1.3,1.4-2.2l6.4,3.8c-0.5,1.2-1.3,2.4-2.3,3.3
			c-1,1-2.2,1.8-3.5,2.5c-1.3,0.7-2.7,1.2-4.2,1.5s-2.9,0.5-4.3,0.5c-2.5,0-4.7-0.5-6.8-1.5c-2.1-1-3.8-2.3-5.3-4
			c-1.5-1.7-2.6-3.5-3.4-5.6C238.3,391.4,237.9,389.2,237.9,387.1z"/>
		<path class="st3" d="M305.9,377.3h-10.3v27.1h-7.8v-27.1h-10.4v-6.9h28.5V377.3z"/>
	</g>
	<path class="st3" d="M424,259.1C424,259.1,424,259.1,424,259.1C424,259.1,424,259.1,424,259.1C424,259.1,424,259.1,424,259.1z"/>
</g>
</svg>
